<?xml version="1.0" encoding="UTF-8" standalone="no"?>
<!DOCTYPE svg PUBLIC "-//W3C//DTD SVG 1.1//EN" "http://www.w3.org/Graphics/SVG/1.1/DTD/svg11.dtd">
<svg width="100%" height="100%" viewBox="0 0 26 34" version="1.1" xmlns="http://www.w3.org/2000/svg" xmlns:xlink="http://www.w3.org/1999/xlink" xml:space="preserve" style="fill-rule:evenodd;clip-rule:evenodd;stroke-linejoin:round;stroke-miterlimit:1.41421;">
    <g transform="matrix(1,0,0,1,-547.93,-400.24)">
        <g transform="matrix(0.832038,0,0,0.832038,141.527,95.2013)">
            <path d="M503.851,366.616C500.299,366.616 496.843,368.584 493.483,372.52C490.123,376.456 488.443,381.176 488.443,386.68C488.443,392.216 490.075,396.952 493.339,400.888C496.603,404.824 500.123,406.792 503.899,406.792C507.707,406.792 511.243,404.984 514.507,401.368C517.771,397.784 519.419,392.888 519.451,386.68C519.451,380.504 517.771,375.64 514.411,372.088C511.019,368.44 507.531,366.616 503.947,366.616L503.851,366.616ZM503.755,369.592C506.603,369.592 508.763,371.176 510.235,374.344C511.515,377 512.155,380.408 512.155,384.568C512.155,384.664 512.155,385.016 512.155,385.624C512.123,386.04 512.107,386.408 512.107,386.728C511.819,391.88 510.955,395.992 509.515,399.064C508.075,402.136 506.155,403.768 503.755,403.96C501.291,403.96 499.243,402.328 497.611,399.064C496.139,395.928 495.403,392.36 495.403,388.36C495.403,388.264 495.419,388.008 495.451,387.592C495.451,387.272 495.451,386.984 495.451,386.728C495.643,381.992 496.363,377.944 497.611,374.584C498.859,371.224 500.891,369.528 503.707,369.496L503.755,369.592Z" style="fill-rule:nonzero;"/>
        </g>
    </g>
</svg>
