<?xml version="1.0" encoding="UTF-8" standalone="no"?>
<!DOCTYPE svg PUBLIC "-//W3C//DTD SVG 1.1//EN" "http://www.w3.org/Graphics/SVG/1.1/DTD/svg11.dtd">
<svg width="100%" height="100%" viewBox="0 0 14 34" version="1.1" xmlns="http://www.w3.org/2000/svg" xmlns:xlink="http://www.w3.org/1999/xlink" xml:space="preserve" style="fill-rule:evenodd;clip-rule:evenodd;stroke-linejoin:round;stroke-miterlimit:1.41421;">
    <g transform="matrix(1,0,0,1,-331.267,-400.599)">
        <g transform="matrix(0.832038,0,0,0.832038,141.527,95.2013)">
            <path d="M234.235,378.808C234.331,378.744 234.475,378.712 234.667,378.712C234.891,378.712 235.051,378.744 235.147,378.808C235.467,378.904 235.659,379.128 235.723,379.48L235.723,387.4C235.723,388.104 235.739,388.856 235.771,389.656C235.771,390.744 235.771,391.368 235.771,391.528C235.771,394.92 235.675,397.464 235.483,399.16C235.259,401.432 234.939,402.968 234.523,403.768C234.139,404.504 233.739,404.904 233.323,404.968C232.875,405 232.539,405.496 232.315,406.456C232.315,406.456 232.315,406.488 232.315,406.552C232.283,406.616 232.267,406.664 232.267,406.696C232.267,406.952 232.539,407.08 233.083,407.08C233.851,406.984 234.763,406.888 235.819,406.792C236.875,406.696 237.787,406.648 238.555,406.648C239.611,406.648 240.459,406.664 241.099,406.696C241.835,406.728 242.699,406.808 243.691,406.936C244.203,406.936 244.459,406.728 244.459,406.312C244.459,405.608 244.283,405.256 243.931,405.256C243.899,405.288 243.851,405.304 243.787,405.304C243.723,405.304 243.659,405.32 243.595,405.352C243.275,405.352 242.939,405.096 242.587,404.584C242.139,403.944 241.771,402.504 241.483,400.264C241.323,399.208 241.211,397.776 241.147,395.968C241.083,394.16 241.051,391.672 241.051,388.504L241.051,384.424L241.051,378.712C241.051,376.152 241.067,374.296 241.099,373.144C241.131,371.992 241.147,370.744 241.147,369.4C241.371,368.92 241.483,368.488 241.483,368.104C241.483,367.464 241.243,367.128 240.763,367.096C240.763,367.096 240.715,367.08 240.619,367.048C240.523,367.048 240.459,367.048 240.427,367.048C240.139,367.048 239.803,367.128 239.419,367.288C239.259,367.384 239.067,367.64 238.843,368.056C238.395,368.888 237.803,369.928 237.067,371.176L237.019,371.272C236.507,372.168 235.819,373.128 234.955,374.152C234.219,375.048 233.179,375.912 231.835,376.744C230.555,377.544 229.515,378.296 228.715,379C228.555,379.16 228.379,379.448 228.187,379.864C228.091,379.96 228.043,380.088 228.043,380.248C228.043,380.568 228.315,380.904 228.859,381.256C228.987,381.384 229.259,381.448 229.675,381.448C229.707,381.448 229.787,381.448 229.915,381.448C230.043,381.416 230.139,381.4 230.203,381.4C230.459,381.336 230.651,381.24 230.779,381.112L231.067,380.824C231.515,380.44 231.995,380.104 232.507,379.816C232.859,379.624 233.355,379.336 233.995,378.952L234.235,378.808Z" style="fill-rule:nonzero;"/>
        </g>
    </g>
</svg>
