<?xml version="1.0" encoding="UTF-8" standalone="no"?>
<!DOCTYPE svg PUBLIC "-//W3C//DTD SVG 1.1//EN" "http://www.w3.org/Graphics/SVG/1.1/DTD/svg11.dtd">
<svg width="100%" height="100%" viewBox="0 0 23 34" version="1.1" xmlns="http://www.w3.org/2000/svg" xmlns:xlink="http://www.w3.org/1999/xlink" xml:space="preserve" style="fill-rule:evenodd;clip-rule:evenodd;stroke-linejoin:round;stroke-miterlimit:1.41421;">
    <g transform="matrix(1,0,0,1,-346.524,-400.28)">
        <g transform="matrix(0.832038,0,0,0.832038,141.527,95.2013)">
            <path d="M272.155,395.848C271.163,395.848 270.443,396.312 269.995,397.24C268.715,399.416 266.715,400.68 263.995,401.032C261.307,401.352 258.107,401.544 254.395,401.608C254.139,401.608 253.947,401.544 253.819,401.416C253.755,401.416 253.723,401.352 253.723,401.224C253.723,401.096 253.819,400.888 254.011,400.6C255.419,398.712 257.243,397.08 259.483,395.704C261.755,394.296 263.963,392.856 266.107,391.384C268.251,389.912 270.091,388.264 271.627,386.44C273.131,384.744 273.883,382.552 273.883,379.864C273.883,378.072 273.515,376.168 272.779,374.152L272.731,374.152C271.803,372.008 270.251,370.232 268.075,368.824C265.867,367.384 263.275,366.664 260.299,366.664C256.491,366.664 253.211,367.672 250.459,369.688C247.739,371.704 246.379,374.296 246.379,377.464C246.475,381.272 248.027,384.136 251.035,386.056C251.291,386.184 251.483,386.28 251.611,386.344C251.707,386.376 251.851,386.456 252.043,386.584C252.811,386.904 253.675,387.064 254.635,387.064C257.707,387.064 259.691,386.136 260.587,384.28C260.651,384.152 260.699,384.04 260.731,383.944L260.779,383.944C260.811,383.848 260.827,383.72 260.827,383.56C260.827,382.664 260.427,382.216 259.627,382.216C259.307,382.216 259.019,382.344 258.763,382.6C257.739,383.496 256.491,383.944 255.019,383.944C254.411,383.944 253.819,383.752 253.243,383.368C252.635,382.984 252.203,382.584 251.947,382.168L251.899,382.168C251.259,381.048 250.939,379.704 250.939,378.136C250.939,376.344 251.675,374.712 253.147,373.24C254.619,371.768 256.299,371.032 258.187,371.032C259.307,371.032 260.155,371.08 260.731,371.176C261.275,371.272 262.043,371.688 263.035,372.424C264.123,373.16 264.875,374.024 265.291,375.016C266.091,376.424 266.491,378.136 266.491,380.152C266.363,381.496 265.995,382.76 265.387,383.944C264.747,385.224 264.107,386.312 263.467,387.208C262.731,388.072 262.011,388.824 261.307,389.464C260.411,390.296 259.627,390.952 258.955,391.432C258.315,391.816 257.803,392.152 257.419,392.44L257.371,392.488C254.651,394.376 252.539,396.312 251.035,398.296C249.531,400.28 248.187,402.664 247.003,405.448C246.939,405.512 246.907,405.624 246.907,405.784C246.907,405.912 246.971,406.104 247.099,406.36C247.291,406.68 247.515,406.84 247.771,406.84C251.035,406.584 254.123,406.44 257.035,406.408C259.115,406.408 260.963,406.432 262.579,406.48C264.195,406.528 265.899,406.616 267.691,406.744C268.523,406.744 269.051,406.408 269.275,405.736C269.531,405.16 269.755,404.504 269.947,403.768C270.171,402.872 270.379,402.216 270.571,401.8C270.827,401.128 271.195,400.44 271.675,399.736C272.123,399.096 272.507,398.376 272.827,397.576C272.923,397.448 272.971,397.24 272.971,396.952C272.971,396.696 272.939,396.504 272.875,396.376C272.747,395.96 272.475,395.752 272.059,395.752L272.155,395.848Z" style="fill-rule:nonzero;"/>
        </g>
    </g>
</svg>
