<?xml version="1.0" encoding="UTF-8" standalone="no"?>
<!DOCTYPE svg PUBLIC "-//W3C//DTD SVG 1.1//EN" "http://www.w3.org/Graphics/SVG/1.1/DTD/svg11.dtd">
<svg width="100%" height="100%" viewBox="0 0 25 34" version="1.1" xmlns="http://www.w3.org/2000/svg" xmlns:xlink="http://www.w3.org/1999/xlink" xml:space="preserve" style="fill-rule:evenodd;clip-rule:evenodd;stroke-linejoin:round;stroke-miterlimit:1.41421;">
    <g transform="matrix(1,0,0,1,-371.005,-400.28)">
        <g transform="matrix(0.832038,0,0,0.832038,141.527,95.2013)">
            <path d="M303.499,366.712C300.299,366.904 297.051,367 293.755,367C291.867,367 290.147,366.976 288.595,366.928C287.043,366.88 285.483,366.792 283.915,366.664C283.563,366.664 283.291,366.808 283.099,367.096C282.907,367.416 282.763,367.672 282.667,367.864C281.579,369.912 280.379,371.688 279.067,373.192C278.747,373.512 278.539,373.976 278.443,374.584C278.443,375.192 278.651,375.496 279.067,375.496C280.155,375.496 281.051,374.92 281.755,373.768C282.523,372.712 284.315,372.04 287.131,371.752C288.155,371.624 289.595,371.56 291.451,371.56C292.507,371.56 293.515,371.608 294.475,371.704C294.827,371.736 295.067,371.784 295.195,371.848L295.243,371.944C295.243,372.072 295.099,372.328 294.811,372.712C293.531,374.184 292.267,375.528 291.019,376.744C289.547,378.184 288.187,379.432 286.939,380.488C286.459,380.904 286.219,381.416 286.219,382.024C286.219,382.504 286.411,382.744 286.795,382.744C287.467,382.744 288.011,382.632 288.427,382.408C289.003,382.152 289.579,382.024 290.155,382.024C292.779,382.024 294.955,383.08 296.683,385.192C298.059,386.952 298.747,388.92 298.747,391.096C298.747,391.608 298.699,392.152 298.603,392.728C298.571,395.48 297.659,397.96 295.867,400.168C294.107,402.376 291.803,403.48 288.955,403.48C286.939,403.48 285.195,402.728 283.723,401.224C282.283,399.72 281.563,398.072 281.563,396.28C281.563,396.088 281.563,395.896 281.563,395.704C281.531,395.448 281.515,395.288 281.515,395.224C281.515,394.072 281.755,393.16 282.235,392.488C282.587,391.944 283.179,391.464 284.011,391.048C284.875,390.6 285.307,390.12 285.307,389.608L285.307,389.176C285.307,388.92 285.227,388.744 285.067,388.648C284.875,388.52 284.635,388.432 284.347,388.384C284.059,388.336 283.627,388.312 283.051,388.312C282.219,388.344 281.499,388.52 280.891,388.84C277.499,390.28 275.803,392.776 275.803,396.328C275.803,398.888 277.019,401.272 279.451,403.48C281.915,405.688 284.987,406.792 288.667,406.792C290.427,406.792 292.315,406.376 294.331,405.544C296.283,404.744 298.075,403.64 299.707,402.232C301.307,400.856 302.667,399.272 303.787,397.48C304.907,395.688 305.483,393.864 305.515,392.008C305.515,390.056 305.339,388.344 304.987,386.872C304.635,385.4 304.091,384.024 303.355,382.744C301.819,380.088 299.531,378.344 296.491,377.512C296.011,377.416 295.771,377.208 295.771,376.888C295.835,376.6 295.931,376.36 296.059,376.168C297.147,374.888 298.251,373.704 299.371,372.616L299.515,372.472C301.115,370.936 302.315,369.8 303.115,369.064C303.563,368.584 303.803,368.088 303.835,367.576C303.835,367.064 303.643,366.808 303.259,366.808L303.499,366.712Z" style="fill-rule:nonzero;"/>
        </g>
    </g>
</svg>
