<?xml version="1.0" encoding="UTF-8" standalone="no"?>
<!DOCTYPE svg PUBLIC "-//W3C//DTD SVG 1.1//EN" "http://www.w3.org/Graphics/SVG/1.1/DTD/svg11.dtd">
<svg width="100%" height="100%" viewBox="0 0 25 34" version="1.1" xmlns="http://www.w3.org/2000/svg" xmlns:xlink="http://www.w3.org/1999/xlink" xml:space="preserve" style="fill-rule:evenodd;clip-rule:evenodd;stroke-linejoin:round;stroke-miterlimit:1.41421;">
    <g transform="matrix(1,0,0,1,-397.324,-400.16)">
        <g transform="matrix(0.832038,0,0,0.832038,141.527,95.2013)">
            <path d="M308.443,395.752C307.867,396.264 307.531,396.888 307.435,397.624C307.435,398.392 307.851,398.84 308.683,398.968L325.147,398.968C325.531,398.968 325.819,398.984 326.011,399.016C326.299,399.016 326.443,399.4 326.443,400.168C326.411,401.768 326.299,402.792 326.107,403.24C325.915,403.688 325.675,403.992 325.387,404.152C325.291,404.184 325.147,404.248 324.955,404.344C324.763,404.44 324.571,404.536 324.379,404.632C323.963,404.824 323.499,405.4 322.987,406.36C322.987,406.488 323.067,406.616 323.227,406.744C323.451,406.904 323.643,406.984 323.803,406.984C324.571,406.888 325.483,406.792 326.539,406.696C327.595,406.6 328.491,406.552 329.227,406.552C329.995,406.552 330.827,406.6 331.723,406.696C332.651,406.792 333.467,406.888 334.171,406.984C334.683,406.984 334.939,406.776 334.939,406.36C334.907,405.72 334.795,405.336 334.603,405.208C334.411,405.048 334.171,404.856 333.883,404.632C333.595,404.376 333.307,403.944 333.019,403.336C332.731,402.696 332.491,401.624 332.299,400.12C332.299,399.896 332.379,399.624 332.539,399.304C332.731,398.952 333.083,398.776 333.595,398.776L335.035,398.776C335.931,398.776 336.379,398.344 336.379,397.48L336.379,395.992C336.379,395.16 335.931,394.744 335.035,394.744L333.307,394.744C332.507,394.744 332.059,394.552 331.963,394.168C331.867,393.784 331.819,393.368 331.819,392.92C331.787,392.376 331.771,391.464 331.771,390.184C331.771,388.776 331.787,387.672 331.819,386.872L331.963,377.512L332.107,368.152C332.043,368.152 331.963,367.912 331.867,367.432C331.771,366.856 331.435,366.552 330.859,366.52C329.771,366.552 328.939,367.112 328.363,368.2C325.451,372.936 322.251,377.576 318.763,382.12C315.627,386.216 312.123,390.696 308.251,395.56L308.443,395.752ZM324.955,378.472C325.051,378.312 325.291,378.024 325.675,377.608C325.739,377.48 325.819,377.416 325.915,377.416C326.107,377.416 326.203,377.816 326.203,378.616C326.171,379.544 326.155,380.968 326.155,382.888L326.155,387.16C326.219,388.504 326.267,389.64 326.299,390.568C326.331,391.272 326.347,392.248 326.347,393.496C326.347,394.36 326.107,394.792 325.627,394.792L324.715,394.792L314.347,395.032C314.283,395.032 314.203,395.048 314.107,395.08C314.043,395.08 313.995,395.08 313.963,395.08C313.643,395.08 313.483,394.984 313.483,394.792C313.483,394.504 313.579,394.248 313.771,394.024C315.499,391.464 317.371,388.92 319.387,386.392C321.371,383.896 323.259,381.288 325.051,378.568L324.955,378.472Z" style="fill-rule:nonzero;"/>
        </g>
    </g>
</svg>
