<?xml version="1.0" encoding="UTF-8" standalone="no"?>
<!DOCTYPE svg PUBLIC "-//W3C//DTD SVG 1.1//EN" "http://www.w3.org/Graphics/SVG/1.1/DTD/svg11.dtd">
<svg width="100%" height="100%" viewBox="0 0 24 35" version="1.1" xmlns="http://www.w3.org/2000/svg" xmlns:xlink="http://www.w3.org/1999/xlink" xml:space="preserve" style="fill-rule:evenodd;clip-rule:evenodd;stroke-linejoin:round;stroke-miterlimit:1.41421;">
    <g transform="matrix(1,0,0,1,-423.004,-400.2)">
        <g transform="matrix(0.832038,0,0,0.832038,141.527,95.2013)">
            <path d="M343.243,367.048C343.115,367.048 343.019,367.032 342.955,367C342.891,366.968 342.811,366.952 342.715,366.952L342.523,366.904C342.363,366.904 342.203,366.984 342.043,367.144C341.883,367.304 341.803,367.512 341.803,367.768C341.867,369.048 341.963,370.344 342.091,371.656C342.219,372.808 342.283,374.104 342.283,375.544C342.283,376.984 342.219,378.28 342.091,379.432C341.963,380.744 341.867,382.008 341.803,383.224C341.771,383.64 341.755,384.28 341.755,385.144C341.755,386.04 342.203,386.488 343.099,386.488C343.355,386.488 343.739,386.28 344.251,385.864C344.603,385.512 345.467,384.92 346.843,384.088C347.803,383.512 348.891,383.224 350.107,383.224C350.651,383.224 351.211,383.272 351.787,383.368C354.123,383.72 356.043,384.792 357.547,386.584C359.115,388.44 359.915,390.872 359.947,393.88C359.947,397.048 359.179,399.496 357.643,401.224C356.075,403.016 354.139,404.088 351.835,404.44C351.547,404.472 351.115,404.488 350.539,404.488C348.587,404.488 346.923,403.832 345.547,402.52C344.203,401.208 343.531,399.624 343.531,397.768C343.531,394.856 344.859,393.032 347.515,392.296L347.563,392.296C348.107,392.232 348.379,391.864 348.379,391.192C348.379,390.456 348.027,390.088 347.323,390.088C347.131,390.088 346.939,390.072 346.747,390.04C346.427,390.04 346.251,390.04 346.219,390.04C344.107,390.04 342.331,390.616 340.891,391.768C339.227,393.112 338.363,395.24 338.299,398.152C338.299,401.608 339.579,404.056 342.139,405.496C344.763,406.968 347.931,407.704 351.643,407.704C355.579,407.704 359.083,406.216 362.155,403.24C365.035,400.456 366.475,397.208 366.475,393.496C366.475,393.432 366.475,393.288 366.475,393.064C366.443,392.84 366.427,392.712 366.427,392.68C366.427,388.072 365.035,384.424 362.251,381.736C359.403,378.952 355.979,377.544 351.979,377.512C349.963,377.608 348.043,377.976 346.219,378.616C346.091,378.68 345.915,378.712 345.691,378.712C345.371,378.712 345.211,378.536 345.211,378.184C345.275,377.992 345.307,377.608 345.307,377.032L345.307,375.832L345.307,374.968L345.307,373.96C345.275,373.864 345.259,373.656 345.259,373.336C345.259,373.016 345.547,372.856 346.123,372.856C347.307,372.76 349.067,372.712 351.403,372.712C353.483,372.712 355.771,372.792 358.267,372.952C358.459,373.016 358.603,373.048 358.699,373.048L358.747,373.048C359.163,373.048 359.531,373.032 359.851,373C360.331,372.936 360.731,372.584 361.051,371.944C361.659,370.664 362.539,369.384 363.691,368.104C363.915,367.848 364.027,367.592 364.027,367.336C364.027,367.208 363.979,367.096 363.883,367C363.691,366.712 363.323,366.568 362.779,366.568C362.395,366.696 362.075,366.872 361.819,367.096C361.595,367.288 361.275,367.432 360.859,367.528C359.323,367.752 357.579,367.864 355.627,367.864C355.307,367.864 354.795,367.848 354.091,367.816C353.355,367.784 352.811,367.768 352.459,367.768C350.155,367.608 347.179,367.384 343.531,367.096C343.531,367.096 343.531,367.112 343.531,367.144L343.243,367.048Z" style="fill-rule:nonzero;"/>
        </g>
    </g>
</svg>
