<?xml version="1.0" encoding="UTF-8" standalone="no"?>
<!DOCTYPE svg PUBLIC "-//W3C//DTD SVG 1.1//EN" "http://www.w3.org/Graphics/SVG/1.1/DTD/svg11.dtd">
<svg width="100%" height="100%" viewBox="0 0 25 34" version="1.1" xmlns="http://www.w3.org/2000/svg" xmlns:xlink="http://www.w3.org/1999/xlink" xml:space="preserve" style="fill-rule:evenodd;clip-rule:evenodd;stroke-linejoin:round;stroke-miterlimit:1.41421;">
    <g transform="matrix(1,0,0,1,-448.046,-400.439)">
        <g transform="matrix(0.832038,0,0,0.832038,141.527,95.2013)">
            <path d="M388.651,366.856C386.347,366.856 383.931,367.608 381.403,369.112C378.939,370.584 376.715,372.456 374.731,374.728C372.779,376.968 371.195,379.416 369.979,382.072C369.435,383.32 369.035,384.528 368.779,385.696C368.523,386.864 368.395,388.136 368.395,389.512C368.395,395.496 369.963,399.992 373.099,403C376.331,406.04 380.267,407.56 384.907,407.56L384.907,407.512L385.195,407.512C388.107,407.48 390.939,406.104 393.691,403.384C396.411,400.696 397.771,397.416 397.771,393.544C397.771,389.032 396.395,385.624 393.643,383.32C390.891,380.952 387.531,379.768 383.563,379.768C383.019,379.768 382.683,379.88 382.555,380.104C380.571,382.792 378.331,385.24 375.835,387.448C375.707,387.64 375.483,387.736 375.163,387.736C374.939,387.704 374.827,387.608 374.827,387.448C374.987,384.632 375.611,382.2 376.699,380.152C377.819,378.072 379.115,376.296 380.587,374.824C382.091,373.32 383.595,372.12 385.099,371.224C386.635,370.296 387.883,369.624 388.843,369.208C389.547,369.208 390.075,368.984 390.427,368.536C390.491,368.344 390.523,368.2 390.523,368.104C390.523,367.368 389.979,367 388.891,367L388.651,366.856ZM384.043,404.44C381.803,404.44 379.883,403.24 378.283,400.84C376.747,398.536 375.979,396.648 375.979,395.176C375.979,392.808 376.747,390.712 378.283,388.888C379.915,386.936 381.851,385.96 384.091,385.96C386.363,385.96 388.283,386.872 389.851,388.696C391.419,390.488 392.203,392.664 392.203,395.224C392.203,397.816 391.419,400.008 389.851,401.8C388.283,403.624 386.363,404.536 384.091,404.536L384.043,404.44Z" style="fill-rule:nonzero;"/>
        </g>
    </g>
</svg>
