<?xml version="1.0" encoding="UTF-8" standalone="no"?>
<!DOCTYPE svg PUBLIC "-//W3C//DTD SVG 1.1//EN" "http://www.w3.org/Graphics/SVG/1.1/DTD/svg11.dtd">
<svg width="100%" height="100%" viewBox="0 0 23 34" version="1.1" xmlns="http://www.w3.org/2000/svg" xmlns:xlink="http://www.w3.org/1999/xlink" xml:space="preserve" style="fill-rule:evenodd;clip-rule:evenodd;stroke-linejoin:round;stroke-miterlimit:1.41421;">
    <g transform="matrix(1,0,0,1,-474.085,-400)">
        <g transform="matrix(0.832038,0,0,0.832038,141.527,95.2013)">
            <path d="M424.507,366.76C423.483,366.824 421.963,366.856 419.947,366.856C419.435,366.856 418.667,366.84 417.643,366.808C416.619,366.776 415.851,366.76 415.339,366.76C411.243,366.568 408.187,366.424 406.171,366.328L406.027,366.328L405.883,366.328C405.435,366.328 404.907,366.504 404.299,366.856C403.691,367.208 403.323,367.64 403.195,368.152C402.843,369.368 402.395,370.52 401.851,371.608C401.179,372.92 400.539,374.056 399.931,375.016C399.771,375.208 399.691,375.48 399.691,375.832C399.691,376.024 399.723,376.168 399.787,376.264C399.979,376.616 400.299,376.792 400.747,376.792C401.899,376.792 402.763,376.2 403.339,375.016C404.299,373.32 406.507,372.36 409.963,372.136C410.987,372.04 412.427,371.992 414.283,371.992C415.851,371.992 417.403,372.072 418.939,372.232C419.579,372.232 419.899,372.456 419.899,372.904C419.899,373.032 419.851,373.192 419.755,373.384C417.675,377.48 414.907,382.824 411.451,389.416C408.539,394.952 406.251,400.408 404.587,405.784C404.587,405.784 404.587,405.816 404.587,405.88C404.555,405.944 404.539,405.992 404.539,406.024C404.539,406.184 404.587,406.36 404.683,406.552C404.779,406.776 405.003,406.888 405.355,406.888C406.315,406.728 407.211,406.648 408.043,406.648C408.811,406.648 409.707,406.728 410.731,406.888C410.795,406.888 410.875,406.904 410.971,406.936C411.035,406.936 411.083,406.936 411.115,406.936C411.755,406.936 412.139,406.552 412.267,405.784C413.547,398.968 415.451,392.408 417.979,386.104C420.347,380.152 423.019,374.088 425.995,367.912C426.091,367.752 426.139,367.56 426.139,367.336C426.139,366.952 425.867,366.76 425.323,366.76C424.907,366.76 424.619,366.776 424.459,366.808L424.507,366.76Z" style="fill-rule:nonzero;"/>
        </g>
    </g>
</svg>
