<?xml version="1.0" encoding="UTF-8" standalone="no"?>
<!DOCTYPE svg PUBLIC "-//W3C//DTD SVG 1.1//EN" "http://www.w3.org/Graphics/SVG/1.1/DTD/svg11.dtd">
<svg width="100%" height="100%" viewBox="0 0 24 34" version="1.1" xmlns="http://www.w3.org/2000/svg" xmlns:xlink="http://www.w3.org/1999/xlink" xml:space="preserve" style="fill-rule:evenodd;clip-rule:evenodd;stroke-linejoin:round;stroke-miterlimit:1.41421;">
    <g transform="matrix(1,0,0,1,-497.688,-400)">
        <g transform="matrix(0.832038,0,0,0.832038,141.527,95.2013)">
            <path d="M441.787,366.424C438.747,366.424 436.139,367.288 433.963,369.016C431.819,370.744 430.747,372.808 430.747,375.208C430.811,377.32 431.147,378.904 431.755,379.96C432.363,380.984 432.987,381.768 433.627,382.312C434.171,382.792 434.683,383.144 435.163,383.368C435.355,383.464 435.451,383.576 435.451,383.704C435.451,383.8 435.371,383.928 435.211,384.088C433.483,385.368 431.851,386.936 430.315,388.792C428.811,390.648 428.059,392.696 428.059,394.936C428.059,398.616 429.403,401.512 432.091,403.624C434.779,405.736 438.027,406.792 441.835,406.792C445.611,406.792 448.971,405.56 451.915,403.096C454.827,400.664 456.283,397.8 456.283,394.504C456.283,391.976 455.595,389.672 454.219,387.592C452.811,385.448 450.971,383.832 448.699,382.744C448.027,382.456 447.691,382.2 447.691,381.976C447.691,381.848 447.739,381.784 447.835,381.784C448.283,381.464 448.619,381.208 448.843,381.016C449.899,380.088 450.811,379.128 451.579,378.136C452.347,377.112 452.731,375.96 452.731,374.68C452.731,372.504 451.691,370.568 449.611,368.872C447.531,367.176 444.955,366.328 441.883,366.328L441.787,366.424ZM441.931,404.296C439.723,404.296 437.883,403.464 436.411,401.8C434.843,400.008 433.979,397.96 433.819,395.656C433.819,395.592 433.819,395.432 433.819,395.176C433.787,394.92 433.771,394.76 433.771,394.696C433.771,392.68 434.267,390.68 435.259,388.696C436.411,386.328 437.787,385.144 439.387,385.144C439.675,385.144 440.411,385.368 441.595,385.816C442.715,386.264 443.979,386.968 445.387,387.928C446.699,388.824 447.867,389.928 448.891,391.24C449.755,392.392 450.187,393.848 450.187,395.608C449.867,398.904 448.923,401.128 447.355,402.28C445.787,403.432 443.979,404.088 441.931,404.248L441.931,404.296ZM441.835,368.68C443.051,368.712 444.347,369.256 445.723,370.312C447.099,371.368 447.787,372.632 447.787,374.104C447.787,375.608 447.483,376.952 446.875,378.136C446.235,379.352 445.371,380.056 444.283,380.248C443.003,380.248 441.291,379.592 439.147,378.28C437.035,376.968 435.979,375.576 435.979,374.104C435.979,372.6 436.571,371.304 437.755,370.216C438.875,369.192 440.235,368.68 441.835,368.68Z" style="fill-rule:nonzero;"/>
        </g>
    </g>
</svg>
