<?xml version="1.0" encoding="UTF-8" standalone="no"?>
<!DOCTYPE svg PUBLIC "-//W3C//DTD SVG 1.1//EN" "http://www.w3.org/Graphics/SVG/1.1/DTD/svg11.dtd">
<svg width="100%" height="100%" viewBox="0 0 24 34" version="1.1" xmlns="http://www.w3.org/2000/svg" xmlns:xlink="http://www.w3.org/1999/xlink" xml:space="preserve" style="fill-rule:evenodd;clip-rule:evenodd;stroke-linejoin:round;stroke-miterlimit:1.41421;">
    <g transform="matrix(1,0,0,1,-522.769,-400.04)">
        <g transform="matrix(0.832038,0,0,0.832038,141.527,95.2013)">
            <path d="M464.395,406.888C466.763,406.888 469.259,406.152 471.883,404.68C474.571,403.176 477.003,401.304 479.179,399.064C481.419,396.76 483.227,394.312 484.603,391.72C485.275,390.504 485.763,389.304 486.067,388.12C486.371,386.936 486.523,385.672 486.523,384.328C486.523,378.248 485.195,373.784 482.539,370.936C479.851,367.928 476.171,366.408 471.499,366.376C468.619,366.376 465.611,367.736 462.475,370.456C459.627,372.92 458.203,375.944 458.203,379.528C458.203,379.688 458.219,379.928 458.251,380.248C458.283,380.568 458.299,380.808 458.299,380.968C458.299,385.448 459.851,388.84 462.955,391.144C466.187,393.512 469.403,394.696 472.603,394.696C473.083,394.696 473.419,394.584 473.611,394.36C474.059,393.016 474.539,392.008 475.051,391.336C475.563,390.696 476.571,389.816 478.075,388.696C478.235,388.504 478.443,388.408 478.699,388.408C478.923,388.44 479.035,388.536 479.035,388.696C478.811,390.84 478.091,392.808 476.875,394.6C475.627,396.456 474.267,398.024 472.795,399.304C471.323,400.584 469.787,401.704 468.187,402.664C466.715,403.528 465.483,404.2 464.491,404.68L464.443,404.68C463.611,404.904 463.115,405.128 462.955,405.352C462.859,405.48 462.811,405.624 462.811,405.784C462.811,406.488 463.355,406.84 464.443,406.84L464.395,406.888ZM472.267,370.072C475.115,370.52 477.019,371.928 477.979,374.296C478.971,376.76 479.531,378.632 479.659,379.912L479.947,382.072C479.947,382.104 479.963,382.2 479.995,382.36C479.995,382.52 479.995,382.616 479.995,382.648C479.995,383.064 479.915,383.464 479.755,383.848C479.371,384.648 478.411,385.512 476.875,386.44C475.339,387.336 473.755,387.816 472.123,387.88C467.643,387.88 464.891,385.048 463.867,379.384C463.707,378.52 463.627,377.8 463.627,377.224C463.627,375.272 464.251,373.624 465.499,372.28C466.811,370.776 468.555,370.024 470.731,370.024C471.371,370.024 471.867,370.056 472.219,370.12L472.267,370.072Z" style="fill-rule:nonzero;"/>
        </g>
    </g>
</svg>
