<?xml version="1.0" encoding="UTF-8" standalone="no"?>
<!DOCTYPE svg PUBLIC "-//W3C//DTD SVG 1.1//EN" "http://www.w3.org/Graphics/SVG/1.1/DTD/svg11.dtd">
<svg width="100%" height="100%" viewBox="0 0 32 35" version="1.1" xmlns="http://www.w3.org/2000/svg" xmlns:xlink="http://www.w3.org/1999/xlink" xml:space="preserve" style="fill-rule:evenodd;clip-rule:evenodd;stroke-linejoin:round;stroke-miterlimit:1.41421;">
    <g transform="matrix(1,0,0,1,-367.946,-351.558)">
        <g transform="matrix(4.16667,0,0,4.16667,242.686,-1132.72)">
            <path d="M37.394,362.256C37.466,362.382 37.517,362.496 37.547,362.598C37.565,362.712 37.569,362.823 37.561,362.931C37.551,363.039 37.52,363.144 37.466,363.246C37.436,363.294 37.403,363.336 37.367,363.372C37.331,363.408 37.289,363.441 37.241,363.471C37.049,363.627 36.857,363.726 36.665,363.768C36.563,363.786 36.443,363.789 36.305,363.777C36.275,363.771 36.242,363.768 36.206,363.768C36.17,363.768 36.137,363.765 36.107,363.759C36.047,363.747 35.991,363.734 35.94,363.719C35.889,363.704 35.831,363.69 35.765,363.678C35.627,363.642 35.496,363.603 35.373,363.561C35.25,363.519 35.144,363.474 35.054,363.426C35.042,363.42 35.033,363.417 35.027,363.417C35.021,363.417 35.015,363.414 35.009,363.408C34.985,363.402 34.961,363.405 34.937,363.417C34.925,363.429 34.916,363.437 34.91,363.44C34.904,363.443 34.898,363.45 34.892,363.462C34.712,363.636 34.544,363.806 34.388,363.971C34.232,364.136 34.064,364.293 33.884,364.443L33.821,364.506L33.803,364.506C33.803,364.5 33.8,364.497 33.794,364.497C33.782,364.485 33.771,364.475 33.762,364.465C33.753,364.457 33.743,364.446 33.731,364.434C33.557,364.296 33.396,364.145 33.249,363.98C33.103,363.815 32.942,363.648 32.768,363.48C32.756,363.468 32.747,363.461 32.741,363.458C32.735,363.455 32.726,363.447 32.714,363.435L32.669,363.435L32.66,363.435C32.492,363.531 32.282,363.612 32.03,363.678C31.982,363.69 31.936,363.699 31.891,363.705C31.845,363.711 31.799,363.714 31.751,363.714C31.709,363.72 31.67,363.725 31.634,363.728C31.598,363.731 31.556,363.735 31.508,363.741C31.502,363.747 31.487,363.75 31.463,363.75L31.265,363.75C31.199,363.75 31.133,363.753 31.067,363.759C30.995,363.759 30.932,363.749 30.878,363.728C30.824,363.707 30.773,363.681 30.725,363.651C30.695,363.621 30.662,363.594 30.626,363.57C30.59,363.546 30.554,363.519 30.518,363.489C30.332,363.351 30.191,363.144 30.095,362.868C30.077,362.808 30.066,362.751 30.063,362.697C30.061,362.643 30.065,362.592 30.077,362.544C30.089,362.508 30.103,362.469 30.117,362.427C30.132,362.385 30.152,362.34 30.176,362.292C30.206,362.214 30.242,362.138 30.284,362.063C30.326,361.988 30.371,361.914 30.419,361.842C30.467,361.776 30.51,361.719 30.549,361.671C30.588,361.623 30.629,361.563 30.671,361.491C30.683,361.467 30.692,361.446 30.698,361.428L30.698,361.419C30.728,361.371 30.746,361.323 30.752,361.275L30.77,361.239C30.896,361.035 31.004,360.81 31.094,360.564C31.094,360.552 31.097,360.546 31.103,360.546C31.139,360.486 31.166,360.428 31.184,360.371C31.202,360.314 31.217,360.252 31.229,360.186L31.229,360.177C31.241,360.159 31.248,360.141 31.251,360.123C31.254,360.105 31.262,360.09 31.274,360.078C31.304,360.012 31.329,359.958 31.351,359.916C31.372,359.874 31.391,359.82 31.409,359.754C31.439,359.682 31.47,359.61 31.503,359.538C31.536,359.466 31.565,359.391 31.589,359.313C31.607,359.235 31.625,359.166 31.643,359.106C31.661,359.047 31.679,358.98 31.697,358.908L31.697,358.827C31.709,358.785 31.724,358.745 31.742,358.706C31.76,358.667 31.778,358.626 31.796,358.584C31.85,358.458 31.901,358.343 31.949,358.238C31.997,358.133 32.048,358.02 32.102,357.9C32.114,357.876 32.123,357.855 32.129,357.837C32.135,357.819 32.144,357.798 32.156,357.774C32.168,357.756 32.178,357.738 32.187,357.72C32.196,357.702 32.207,357.687 32.219,357.675C32.219,357.669 32.222,357.666 32.228,357.666C32.258,357.636 32.282,357.605 32.3,357.572C32.318,357.539 32.333,357.507 32.345,357.477L32.363,357.477C32.375,357.465 32.381,357.456 32.381,357.45C32.429,357.39 32.474,357.33 32.516,357.27C32.558,357.21 32.612,357.144 32.678,357.072C32.78,356.97 32.883,356.871 32.988,356.775C33.093,356.679 33.206,356.595 33.326,356.523C33.362,356.481 33.422,356.436 33.506,356.388C33.524,356.376 33.545,356.364 33.569,356.352L33.587,356.334C33.593,356.334 33.597,356.333 33.601,356.33C33.603,356.327 33.608,356.325 33.614,356.325C33.668,356.307 33.722,356.292 33.776,356.28C33.83,356.268 33.884,356.25 33.938,356.226C33.962,356.238 33.986,356.244 34.01,356.244C34.04,356.25 34.085,356.265 34.145,356.289C34.187,356.307 34.218,356.325 34.239,356.343C34.26,356.361 34.277,356.379 34.289,356.397C34.337,356.421 34.382,356.447 34.424,356.474C34.466,356.501 34.508,356.529 34.55,356.559C34.706,356.679 34.844,356.81 34.964,356.951C35.084,357.092 35.186,357.231 35.27,357.369L35.279,357.369C35.291,357.399 35.309,357.429 35.333,357.459C35.357,357.489 35.381,357.519 35.405,357.549C35.417,357.555 35.424,357.561 35.427,357.567C35.43,357.573 35.438,357.579 35.45,357.585C35.48,357.669 35.52,357.75 35.571,357.828C35.623,357.906 35.672,357.978 35.72,358.044C35.72,358.05 35.721,358.055 35.725,358.058C35.728,358.061 35.729,358.065 35.729,358.071C35.777,358.167 35.826,358.272 35.877,358.386C35.928,358.5 35.972,358.617 36.008,358.737C36.02,358.785 36.03,358.835 36.04,358.886C36.048,358.937 36.062,358.986 36.08,359.034C36.092,359.118 36.104,359.216 36.116,359.327C36.128,359.438 36.149,359.553 36.179,359.673C36.209,359.793 36.24,359.9 36.273,359.993C36.306,360.086 36.344,360.192 36.386,360.312C36.416,360.414 36.45,360.51 36.489,360.6C36.528,360.69 36.572,360.765 36.62,360.825C36.62,360.849 36.626,360.879 36.638,360.915C36.656,360.987 36.692,361.05 36.746,361.104L36.755,361.113C36.779,361.167 36.8,361.226 36.818,361.289C36.836,361.352 36.86,361.413 36.89,361.473C36.878,361.473 36.878,361.479 36.89,361.491C36.902,361.527 36.911,361.551 36.917,361.563C36.965,361.63 37.016,361.697 37.07,361.766C37.124,361.835 37.178,361.911 37.232,361.995C37.292,362.073 37.346,362.16 37.394,362.256M33.479,362.526C33.545,362.556 33.623,362.577 33.713,362.589C33.749,362.595 33.783,362.598 33.816,362.598L33.911,362.598C34.013,362.598 34.103,362.574 34.181,362.526C34.199,362.514 34.214,362.504 34.226,362.495C34.238,362.485 34.25,362.475 34.262,362.463C34.262,362.397 34.277,362.337 34.307,362.283C34.307,362.278 34.308,362.274 34.311,362.274C34.314,362.274 34.316,362.271 34.316,362.265C34.328,362.235 34.325,362.208 34.307,362.184C34.301,362.178 34.296,362.172 34.293,362.166C34.29,362.16 34.286,362.154 34.28,362.148C34.268,362.124 34.268,362.112 34.28,362.112C34.304,362.094 34.328,362.082 34.352,362.076C34.388,362.064 34.421,362.048 34.451,362.027C34.481,362.006 34.511,361.983 34.541,361.959C34.583,361.917 34.619,361.866 34.649,361.806C34.655,361.794 34.658,361.782 34.658,361.77C34.658,361.758 34.661,361.746 34.667,361.734C34.679,361.71 34.688,361.688 34.694,361.667C34.7,361.646 34.709,361.62 34.721,361.59C34.733,361.524 34.751,361.461 34.775,361.401C34.799,361.341 34.829,361.284 34.865,361.23C34.877,361.212 34.889,361.196 34.901,361.181C34.913,361.166 34.925,361.149 34.937,361.131C34.955,361.107 34.973,361.085 34.991,361.064C35.009,361.043 35.024,361.02 35.036,360.996C35.054,360.978 35.069,360.957 35.081,360.933C35.087,360.927 35.09,360.912 35.09,360.888C35.09,360.852 35.08,360.813 35.059,360.771C35.037,360.729 35.003,360.69 34.955,360.654C34.931,360.631 34.889,360.606 34.829,360.582C34.775,360.564 34.722,360.546 34.671,360.528C34.621,360.51 34.565,360.495 34.505,360.483C34.475,360.477 34.448,360.473 34.424,360.47C34.4,360.467 34.373,360.459 34.343,360.447C34.307,360.441 34.281,360.434 34.267,360.425C34.251,360.416 34.229,360.405 34.199,360.393C34.091,360.357 34.013,360.282 33.965,360.168C33.959,360.15 33.953,360.134 33.947,360.119C33.941,360.104 33.935,360.087 33.929,360.069C33.923,360.051 33.92,360.033 33.92,360.015C33.92,359.997 33.917,359.979 33.911,359.961C33.911,359.937 33.881,359.925 33.821,359.925C33.809,359.919 33.791,359.916 33.767,359.916C33.725,359.91 33.692,359.913 33.668,359.925C33.644,359.961 33.623,360.009 33.605,360.069C33.593,360.099 33.581,360.126 33.569,360.15C33.557,360.174 33.545,360.201 33.533,360.231C33.515,360.267 33.494,360.298 33.47,360.321C33.446,360.363 33.413,360.384 33.371,360.384L33.344,360.384C33.29,360.378 33.237,360.381 33.186,360.393C33.135,360.405 33.086,360.417 33.038,360.429C32.978,360.453 32.919,360.47 32.862,360.479C32.805,360.488 32.747,360.498 32.687,360.51C32.615,360.51 32.561,360.519 32.525,360.537C32.507,360.549 32.477,360.576 32.435,360.618C32.393,360.648 32.369,360.684 32.363,360.726C32.351,360.762 32.346,360.789 32.35,360.807C32.353,360.825 32.36,360.849 32.372,360.879C32.396,360.945 32.432,361.011 32.48,361.077C32.51,361.155 32.543,361.236 32.579,361.32C32.615,361.404 32.651,361.494 32.687,361.59C32.705,361.626 32.723,361.658 32.741,361.685C32.759,361.712 32.777,361.749 32.795,361.797C32.813,361.851 32.849,361.903 32.903,361.95C32.915,361.963 32.939,361.98 32.975,362.004C32.999,362.028 33.021,362.051 33.042,362.072C33.063,362.093 33.083,362.118 33.101,362.148C33.113,362.16 33.12,362.172 33.123,362.184C33.126,362.196 33.134,362.208 33.146,362.22C33.17,362.25 33.194,362.279 33.218,362.306C33.242,362.333 33.269,362.361 33.299,362.391C33.335,362.422 33.362,362.447 33.38,362.468C33.398,362.489 33.431,362.508 33.479,362.526M33.371,360.87L33.371,360.888C33.377,360.894 33.392,360.897 33.416,360.897C33.422,360.897 33.426,360.899 33.429,360.902C33.433,360.905 33.437,360.906 33.443,360.906C33.491,360.906 33.53,360.927 33.56,360.969C33.608,361.023 33.68,361.044 33.776,361.032C33.812,361.02 33.836,361.005 33.848,360.987C33.86,360.981 33.867,360.975 33.871,360.969C33.873,360.964 33.881,360.957 33.893,360.951C33.911,360.921 33.935,360.912 33.965,360.924C33.995,360.93 34.02,360.933 34.041,360.933L34.109,360.933C34.139,360.921 34.148,360.93 34.136,360.96C34.136,361.014 34.121,361.065 34.091,361.113C34.085,361.137 34.067,361.164 34.037,361.194C33.983,361.236 33.942,361.283 33.915,361.334C33.888,361.385 33.866,361.443 33.848,361.509L33.848,361.563C33.848,361.581 33.857,361.593 33.875,361.599C33.893,361.599 33.914,361.605 33.938,361.617C33.98,361.63 34.02,361.64 34.06,361.649C34.098,361.658 34.139,361.668 34.181,361.68C34.217,361.693 34.238,361.698 34.244,361.698C34.244,361.704 34.247,361.707 34.253,361.707C34.247,361.713 34.241,361.716 34.235,361.716C34.205,361.716 34.176,361.715 34.149,361.712C34.123,361.709 34.094,361.707 34.064,361.707L33.965,361.707L33.879,361.707C33.853,361.707 33.824,361.71 33.794,361.716C33.764,361.728 33.737,361.728 33.713,361.716C33.683,361.71 33.654,361.707 33.627,361.707C33.601,361.707 33.572,361.704 33.542,361.698L33.371,361.698L33.353,361.698C33.359,361.693 33.365,361.689 33.371,361.689C33.371,361.677 33.387,361.664 33.42,361.649C33.453,361.634 33.494,361.62 33.542,361.608C33.56,361.608 33.587,361.602 33.623,361.59C33.647,361.59 33.659,361.578 33.659,361.554C33.665,361.494 33.65,361.434 33.614,361.374C33.602,361.356 33.587,361.338 33.569,361.32C33.551,361.302 33.536,361.284 33.524,361.266C33.476,361.206 33.428,361.14 33.38,361.068C33.374,361.038 33.371,360.984 33.371,360.906L33.371,360.87ZM33.902,361.905C33.926,361.929 33.948,361.95 33.969,361.968C33.99,361.986 34.013,362.007 34.037,362.031C34.043,362.037 34.046,362.042 34.046,362.045C34.046,362.048 34.049,362.052 34.055,362.058C34.055,362.07 34.049,362.082 34.037,362.094C34.019,362.1 33.992,362.103 33.956,362.103C33.944,362.103 33.93,362.102 33.915,362.099C33.9,362.096 33.887,362.094 33.875,362.094C33.833,362.089 33.791,362.089 33.749,362.094C33.707,362.094 33.674,362.097 33.65,362.103C33.614,362.103 33.587,362.1 33.569,362.094C33.545,362.089 33.509,362.073 33.461,362.049C33.443,362.031 33.443,362.022 33.461,362.022C33.485,362.01 33.5,362.001 33.506,361.995C33.56,361.977 33.614,361.95 33.668,361.914C33.68,361.908 33.695,361.905 33.713,361.905L33.902,361.905Z" style="fill-rule:nonzero;"/>
        </g>
    </g>
</svg>
