<?xml version="1.0" encoding="UTF-8" standalone="no"?>
<!DOCTYPE svg PUBLIC "-//W3C//DTD SVG 1.1//EN" "http://www.w3.org/Graphics/SVG/1.1/DTD/svg11.dtd">
<svg width="100%" height="100%" viewBox="0 0 35 36" version="1.1" xmlns="http://www.w3.org/2000/svg" xmlns:xlink="http://www.w3.org/1999/xlink" xml:space="preserve" style="fill-rule:evenodd;clip-rule:evenodd;stroke-linejoin:round;stroke-miterlimit:1.41421;">
    <g transform="matrix(1,0,0,1,-495.079,-351.471)">
        <g transform="matrix(4.16667,0,0,4.16667,353.122,-1207.36)">
            <path d="M35.216,376.973C35.216,376.979 35.222,376.988 35.234,377L35.288,377.054C35.306,377.072 35.324,377.087 35.342,377.099C35.378,377.135 35.405,377.159 35.423,377.171C35.453,377.201 35.482,377.228 35.509,377.252C35.536,377.276 35.564,377.303 35.594,377.333C35.642,377.381 35.689,377.42 35.734,377.45C35.778,377.48 35.825,377.519 35.873,377.567C35.903,377.597 35.938,377.621 35.977,377.639C36.015,377.657 36.05,377.681 36.08,377.711C36.134,377.753 36.155,377.807 36.143,377.873C36.137,377.885 36.131,377.91 36.125,377.95C36.119,377.989 36.116,378.014 36.116,378.026C36.11,378.05 36.104,378.073 36.098,378.094C36.092,378.115 36.086,378.137 36.08,378.161L36.062,378.161C36.056,378.161 36.047,378.155 36.035,378.143C35.885,378.041 35.739,377.936 35.599,377.828C35.458,377.72 35.321,377.603 35.189,377.477C34.931,377.243 34.709,376.991 34.523,376.721C34.337,376.457 34.193,376.166 34.091,375.848C34.079,375.812 34.073,375.788 34.073,375.776C34.067,375.77 34.069,375.764 34.078,375.758C34.087,375.752 34.097,375.749 34.109,375.749C34.145,375.761 34.172,375.773 34.19,375.785C34.196,375.791 34.202,375.794 34.208,375.794C34.274,375.848 34.346,375.896 34.424,375.938C34.502,375.98 34.583,376.019 34.667,376.055C34.721,376.079 34.775,376.1 34.829,376.118C34.883,376.136 34.94,376.154 35,376.172C35.156,376.22 35.311,376.265 35.464,376.307C35.616,376.349 35.771,376.394 35.927,376.442C36.035,376.472 36.145,376.499 36.256,376.523C36.366,376.547 36.479,376.565 36.593,376.577C36.653,376.589 36.713,376.598 36.773,376.604C36.833,376.61 36.896,376.616 36.962,376.622L37.178,376.649C37.25,376.661 37.321,376.67 37.39,376.676C37.459,376.682 37.526,376.691 37.592,376.703C37.628,376.709 37.664,376.714 37.7,376.717C37.736,376.72 37.772,376.721 37.808,376.721C37.838,376.727 37.868,376.73 37.898,376.73C37.928,376.73 37.958,376.733 37.988,376.739C38.048,376.745 38.108,376.749 38.168,376.752C38.228,376.756 38.288,376.757 38.348,376.757C38.384,376.763 38.422,376.767 38.461,376.77C38.5,376.774 38.537,376.775 38.573,376.775C38.597,376.775 38.627,376.781 38.663,376.793C38.693,376.799 38.723,376.817 38.753,376.847C38.783,376.877 38.81,376.907 38.834,376.937C38.858,376.967 38.885,376.997 38.915,377.027L38.906,377.045C38.894,377.045 38.885,377.047 38.879,377.05C38.873,377.053 38.864,377.054 38.852,377.054C38.672,377.054 38.49,377.056 38.308,377.058C38.125,377.062 37.943,377.057 37.763,377.045C37.691,377.045 37.619,377.044 37.547,377.04C37.475,377.037 37.403,377.033 37.331,377.027C37.283,377.021 37.237,377.016 37.192,377.014C37.147,377.011 37.1,377.006 37.052,377C37.022,376.994 36.992,376.991 36.962,376.991C36.932,376.991 36.902,376.988 36.872,376.982C36.722,376.964 36.575,376.943 36.431,376.919C36.287,376.895 36.143,376.865 35.999,376.829C35.933,376.817 35.872,376.802 35.815,376.784C35.758,376.766 35.696,376.748 35.63,376.73C35.618,376.73 35.606,376.729 35.594,376.725C35.582,376.722 35.57,376.721 35.558,376.721L35.549,376.73L35.549,376.739L35.585,376.757C35.651,376.781 35.718,376.805 35.788,376.829C35.857,376.853 35.924,376.877 35.99,376.901C36.008,376.913 36.028,376.922 36.049,376.928C36.07,376.934 36.092,376.943 36.116,376.955L36.116,376.964C36.116,376.97 36.113,376.973 36.107,376.973C36.065,376.973 36.026,376.972 35.99,376.969C35.954,376.966 35.918,376.961 35.882,376.955L35.558,376.928C35.546,376.928 35.537,376.931 35.531,376.937L35.522,376.937L35.522,376.946L35.576,376.973C35.588,376.985 35.606,376.997 35.63,377.009C35.636,377.015 35.639,377.021 35.639,377.027L35.63,377.036C35.558,377.048 35.492,377.045 35.432,377.027C35.402,377.015 35.372,377.006 35.342,377C35.312,376.994 35.282,376.985 35.252,376.973L35.216,376.973ZM37.979,379.61C37.985,379.61 37.994,379.619 38.006,379.637C38,379.643 37.996,379.649 37.993,379.655C37.989,379.661 37.985,379.667 37.979,379.673C37.907,379.775 37.835,379.872 37.763,379.966C37.691,380.058 37.619,380.153 37.547,380.249C37.505,380.297 37.466,380.348 37.43,380.402C37.394,380.456 37.358,380.507 37.322,380.555C37.25,380.669 37.186,380.785 37.129,380.902C37.071,381.018 37.022,381.14 36.98,381.266C36.92,381.434 36.881,381.614 36.863,381.806C36.851,381.86 36.845,381.914 36.845,381.968L36.845,382.121C36.845,382.133 36.842,382.142 36.836,382.148L36.827,382.148C36.827,382.142 36.824,382.139 36.818,382.139C36.812,382.139 36.809,382.136 36.809,382.13C36.779,382.088 36.751,382.048 36.724,382.009C36.696,381.97 36.668,381.929 36.638,381.887C36.626,381.863 36.614,381.845 36.602,381.833L36.593,381.833L36.593,381.842C36.593,381.848 36.592,381.854 36.589,381.86C36.586,381.866 36.587,381.875 36.593,381.887L36.647,382.157C36.659,382.211 36.671,382.266 36.683,382.324C36.695,382.381 36.707,382.439 36.719,382.499C36.725,382.511 36.728,382.532 36.728,382.562C36.728,382.568 36.727,382.571 36.724,382.571C36.72,382.571 36.719,382.568 36.719,382.562C36.707,382.562 36.698,382.559 36.692,382.553C36.68,382.535 36.665,382.518 36.647,382.504C36.629,382.489 36.614,382.472 36.602,382.454C36.572,382.418 36.545,382.381 36.521,382.342C36.497,382.303 36.473,382.262 36.449,382.22C36.401,382.136 36.356,382.048 36.314,381.954C36.272,381.862 36.233,381.77 36.197,381.68C36.101,381.434 36.026,381.17 35.972,380.888C35.942,380.744 35.924,380.603 35.918,380.465L35.918,380.384C35.918,380.378 35.924,380.375 35.936,380.375L35.936,380.384C35.942,380.396 35.951,380.42 35.963,380.456C35.975,380.498 35.988,380.54 36.004,380.582C36.019,380.624 36.032,380.669 36.044,380.717C36.044,380.723 36.05,380.744 36.062,380.78L36.071,380.789C36.083,380.801 36.089,380.795 36.089,380.771C36.089,380.741 36.086,380.72 36.08,380.708C36.074,380.654 36.068,380.6 36.062,380.546C36.056,380.492 36.053,380.438 36.053,380.384C36.047,380.3 36.043,380.221 36.04,380.145C36.036,380.071 36.035,379.991 36.035,379.907C36.041,379.817 36.046,379.727 36.049,379.637C36.051,379.547 36.056,379.46 36.062,379.376L36.089,379.079C36.095,379.049 36.098,379.016 36.098,378.98C36.098,378.944 36.101,378.911 36.107,378.881C36.119,378.785 36.131,378.689 36.143,378.593C36.155,378.497 36.167,378.398 36.179,378.296C36.191,378.212 36.203,378.125 36.215,378.035C36.227,377.945 36.239,377.858 36.251,377.774C36.269,377.672 36.285,377.569 36.3,377.464C36.316,377.359 36.332,377.255 36.35,377.153C36.35,377.141 36.353,377.132 36.359,377.126C36.359,377.102 36.371,377.09 36.395,377.09C36.407,377.096 36.421,377.099 36.436,377.099C36.45,377.099 36.464,377.102 36.476,377.108C36.506,377.114 36.545,377.118 36.593,377.121C36.641,377.125 36.68,377.129 36.71,377.135C36.734,377.141 36.743,377.156 36.737,377.18C36.725,377.228 36.716,377.272 36.71,377.31C36.704,377.349 36.695,377.393 36.683,377.441C36.653,377.633 36.634,377.845 36.625,378.076C36.615,378.306 36.617,378.515 36.629,378.701C36.629,378.761 36.632,378.82 36.638,378.876C36.644,378.933 36.65,378.995 36.656,379.061C36.656,379.109 36.657,379.154 36.661,379.196C36.664,379.238 36.668,379.283 36.674,379.331C36.68,379.379 36.684,379.423 36.688,379.462C36.691,379.501 36.695,379.541 36.701,379.583C36.707,379.637 36.713,379.693 36.719,379.749C36.725,379.806 36.731,379.862 36.737,379.916C36.737,379.922 36.736,379.925 36.733,379.925C36.73,379.925 36.728,379.928 36.728,379.934L36.71,379.925C36.698,379.919 36.683,379.907 36.665,379.889L36.656,379.898L36.647,379.907L36.647,379.916C36.659,379.952 36.67,379.987 36.678,380.019C36.688,380.053 36.698,380.087 36.71,380.123C36.722,380.135 36.734,380.135 36.746,380.123C36.752,380.111 36.764,380.096 36.782,380.078C36.824,380.018 36.864,379.961 36.903,379.907C36.943,379.853 36.986,379.796 37.034,379.736C37.1,379.658 37.163,379.58 37.223,379.502C37.283,379.424 37.346,379.346 37.412,379.268L37.466,379.223C37.478,379.211 37.504,379.226 37.543,379.268C37.582,379.31 37.607,379.337 37.619,379.349C37.679,379.397 37.739,379.441 37.799,379.479C37.859,379.518 37.919,379.562 37.979,379.61M36.53,376.442C36.512,376.43 36.5,376.421 36.494,376.415C36.5,376.385 36.506,376.355 36.512,376.325C36.518,376.295 36.527,376.265 36.539,376.235C36.545,376.205 36.551,376.174 36.557,376.14C36.563,376.108 36.572,376.076 36.584,376.046L36.638,375.857C36.65,375.827 36.657,375.797 36.661,375.767C36.664,375.737 36.671,375.707 36.683,375.677L36.737,375.488C36.749,375.458 36.757,375.427 36.759,375.393C36.762,375.361 36.77,375.329 36.782,375.299L36.836,375.11C36.848,375.08 36.856,375.05 36.859,375.02C36.862,374.99 36.869,374.96 36.881,374.93L36.935,374.741L36.989,374.552C36.995,374.498 37.01,374.438 37.034,374.372C37.046,374.372 37.053,374.373 37.057,374.376C37.06,374.38 37.064,374.381 37.07,374.381C37.082,374.393 37.088,374.387 37.088,374.363L37.088,374.291C37.094,374.261 37.097,374.216 37.097,374.156C37.097,374.15 37.098,374.146 37.102,374.142C37.105,374.139 37.106,374.135 37.106,374.129L37.115,374.12L37.124,374.12C37.13,374.126 37.136,374.129 37.142,374.129C37.154,374.165 37.163,374.189 37.169,374.201C37.205,374.279 37.242,374.356 37.281,374.431C37.321,374.506 37.358,374.582 37.394,374.66C37.442,374.744 37.493,374.828 37.547,374.912C37.601,374.996 37.658,375.077 37.718,375.155C37.856,375.323 38.003,375.467 38.159,375.587C38.171,375.599 38.183,375.608 38.195,375.614C38.201,375.62 38.204,375.626 38.204,375.632C38.198,375.638 38.189,375.641 38.177,375.641L38.105,375.641C38.099,375.641 38.096,375.644 38.096,375.65L38.096,375.659C38.108,375.665 38.115,375.671 38.119,375.677C38.122,375.683 38.129,375.689 38.141,375.695C38.327,375.833 38.501,375.971 38.663,376.109C38.855,376.265 39.038,376.426 39.212,376.591C39.386,376.756 39.557,376.928 39.725,377.108C39.737,377.126 39.751,377.142 39.766,377.158C39.78,377.173 39.794,377.189 39.806,377.207C39.818,377.219 39.818,377.231 39.806,377.243C39.788,377.261 39.77,377.279 39.752,377.297C39.734,377.315 39.71,377.33 39.68,377.342C39.662,377.354 39.644,377.354 39.626,377.342C39.614,377.33 39.604,377.321 39.594,377.315C39.586,377.309 39.575,377.303 39.563,377.297C39.539,377.279 39.518,377.261 39.5,377.243C39.482,377.225 39.461,377.21 39.437,377.198C39.389,377.162 39.344,377.128 39.302,377.095C39.26,377.062 39.215,377.03 39.167,377C39.119,376.97 39.074,376.942 39.032,376.914C38.99,376.888 38.945,376.859 38.897,376.829C38.843,376.787 38.789,376.748 38.735,376.712C38.681,376.676 38.627,376.637 38.573,376.595C38.537,376.565 38.501,376.536 38.465,376.51C38.429,376.483 38.393,376.454 38.357,376.424C38.303,376.388 38.251,376.353 38.199,376.321C38.149,376.287 38.099,376.253 38.051,376.217L38.042,376.217L38.042,376.226L38.096,376.307C38.102,376.319 38.108,376.329 38.114,376.339C38.12,376.347 38.126,376.358 38.132,376.37L38.132,376.379L38.123,376.379C38.111,376.379 38.105,376.376 38.105,376.37C38.063,376.346 38.023,376.324 37.984,376.303C37.945,376.282 37.904,376.256 37.862,376.226C37.772,376.178 37.682,376.109 37.592,376.019C37.58,376.013 37.572,376.009 37.57,376.006C37.567,376.003 37.559,375.998 37.547,375.992C37.535,376.004 37.535,376.016 37.547,376.028C37.559,376.058 37.568,376.091 37.574,376.127C37.58,376.163 37.589,376.196 37.601,376.226L37.601,376.235L37.583,376.235C37.577,376.235 37.568,376.229 37.556,376.217L37.448,376.136C37.4,376.1 37.367,376.075 37.349,376.059C37.331,376.045 37.307,376.022 37.277,375.992L37.214,375.929L37.178,375.911C37.166,375.905 37.148,375.908 37.124,375.92C37.118,375.926 37.109,375.941 37.097,375.965L37.061,376.037C37.043,376.085 37.025,376.136 37.007,376.19C36.989,376.244 36.971,376.295 36.953,376.343C36.941,376.373 36.935,376.396 36.935,376.411C36.935,376.426 36.929,376.448 36.917,376.478C36.905,376.502 36.89,376.508 36.872,376.496C36.836,376.49 36.779,376.481 36.701,376.469C36.623,376.457 36.566,376.448 36.53,376.442M37.781,378.584C37.751,378.59 37.703,378.593 37.637,378.593C37.571,378.593 37.507,378.59 37.444,378.584C37.381,378.578 37.316,378.569 37.25,378.557C37.184,378.545 37.121,378.526 37.061,378.498C37.001,378.472 36.941,378.443 36.881,378.413C36.869,378.401 36.857,378.393 36.845,378.39C36.833,378.388 36.821,378.38 36.809,378.368L36.737,378.296C36.647,378.182 36.644,378.026 36.728,377.828C36.752,377.78 36.779,377.738 36.809,377.702C36.839,377.666 36.887,377.624 36.953,377.576C37.001,377.546 37.049,377.519 37.097,377.495C37.145,377.471 37.193,377.45 37.241,377.432C37.277,377.42 37.313,377.41 37.349,377.401C37.385,377.391 37.418,377.381 37.448,377.369C37.466,377.363 37.486,377.36 37.507,377.36L37.574,377.36C37.574,377.372 37.571,377.378 37.565,377.378C37.559,377.39 37.547,377.405 37.529,377.423C37.499,377.453 37.467,377.501 37.435,377.567C37.402,377.633 37.373,377.681 37.349,377.711C37.337,377.729 37.325,377.765 37.313,377.819C37.301,377.873 37.295,377.927 37.295,377.981C37.307,378.101 37.342,378.188 37.399,378.242C37.456,378.296 37.499,378.332 37.529,378.35L37.664,378.431L37.718,378.458C37.736,378.47 37.745,378.482 37.745,378.494C37.751,378.512 37.76,378.521 37.772,378.521C37.79,378.527 37.806,378.53 37.821,378.53C37.837,378.53 37.853,378.533 37.871,378.539C37.883,378.545 37.89,378.548 37.894,378.548C37.897,378.548 37.904,378.551 37.916,378.557L37.916,378.566C37.886,378.578 37.841,378.584 37.781,378.584M39.563,379.322C39.575,379.316 39.583,379.315 39.586,379.318C39.589,379.321 39.596,379.322 39.608,379.322C39.644,379.322 39.681,379.325 39.72,379.331C39.759,379.337 39.797,379.343 39.833,379.349C39.953,379.367 40.069,379.391 40.179,379.421C40.291,379.451 40.403,379.484 40.517,379.52C40.523,379.526 40.538,379.529 40.562,379.529L40.58,379.529C40.58,379.517 40.579,379.51 40.575,379.507C40.572,379.504 40.571,379.499 40.571,379.493C40.511,379.355 40.454,379.219 40.4,379.083C40.346,378.949 40.289,378.812 40.229,378.674C40.199,378.608 40.178,378.558 40.166,378.526C40.154,378.493 40.144,378.463 40.134,378.435C40.126,378.409 40.113,378.38 40.099,378.35C40.084,378.32 40.058,378.275 40.022,378.215C40.022,378.209 40.029,378.2 40.045,378.188C40.059,378.176 40.077,378.162 40.099,378.147C40.12,378.133 40.139,378.119 40.157,378.107C40.175,378.095 40.184,378.086 40.184,378.08C40.196,378.068 40.213,378.059 40.234,378.053C40.255,378.047 40.271,378.038 40.283,378.026C40.295,378.014 40.31,378.002 40.328,377.99C40.346,377.978 40.361,377.966 40.373,377.954C40.385,377.954 40.397,377.96 40.409,377.972C40.451,378.02 40.493,378.065 40.535,378.107C40.577,378.149 40.619,378.194 40.661,378.242C40.781,378.38 40.898,378.526 41.012,378.679C41.126,378.831 41.234,378.986 41.336,379.142C41.438,379.286 41.534,379.433 41.624,379.583C41.714,379.733 41.801,379.886 41.885,380.042L42.344,380.879C42.356,380.903 42.362,380.918 42.362,380.924C42.362,380.936 42.359,380.942 42.353,380.942L42.272,380.942C42.248,380.942 42.221,380.936 42.191,380.924C42.119,380.906 42.046,380.887 41.97,380.866C41.896,380.845 41.822,380.822 41.75,380.798C41.612,380.762 41.477,380.724 41.345,380.685C41.213,380.646 41.081,380.606 40.949,380.564C40.817,380.522 40.687,380.478 40.558,380.433C40.428,380.389 40.301,380.339 40.175,380.285C40.055,380.237 39.933,380.191 39.811,380.145C39.688,380.1 39.566,380.054 39.446,380.006C39.206,379.91 38.97,379.814 38.739,379.718C38.509,379.622 38.279,379.517 38.051,379.403C37.901,379.331 37.756,379.258 37.614,379.182C37.473,379.108 37.331,379.028 37.187,378.944C37.139,378.914 37.088,378.886 37.034,378.859C36.98,378.831 36.929,378.803 36.881,378.773C36.869,378.761 36.857,378.752 36.845,378.746C36.833,378.74 36.821,378.731 36.809,378.719C36.761,378.683 36.746,378.638 36.764,378.584C36.764,378.572 36.765,378.563 36.769,378.557C36.772,378.551 36.773,378.545 36.773,378.539C36.779,378.527 36.791,378.521 36.809,378.521L36.863,378.548C36.971,378.596 37.061,378.634 37.133,378.66C37.205,378.687 37.273,378.713 37.336,378.737C37.399,378.761 37.466,378.786 37.538,378.813C37.61,378.841 37.7,378.881 37.808,378.935C37.928,378.989 38.048,379.037 38.168,379.079C38.288,379.121 38.411,379.157 38.537,379.187C38.621,379.211 38.708,379.234 38.798,379.255C38.888,379.276 38.975,379.298 39.059,379.322L39.068,379.313L39.068,379.304L39.023,379.259L39.023,379.241L39.059,379.241L39.077,379.25C39.125,379.262 39.173,379.276 39.221,379.29C39.269,379.306 39.317,379.319 39.365,379.331C39.389,379.337 39.413,379.343 39.437,379.349C39.461,379.355 39.488,379.361 39.518,379.367C39.53,379.373 39.551,379.376 39.581,379.376L39.581,379.358C39.581,379.352 39.578,379.347 39.572,379.345C39.566,379.342 39.563,379.334 39.563,379.322L39.572,379.322L39.563,379.322ZM37.952,377.171C37.952,377.159 37.949,377.153 37.943,377.153C37.949,377.141 37.961,377.138 37.979,377.144C37.991,377.144 38.003,377.15 38.015,377.162C38.069,377.198 38.123,377.237 38.177,377.279C38.231,377.321 38.282,377.366 38.33,377.414C38.366,377.444 38.398,377.478 38.425,377.517C38.452,377.556 38.48,377.597 38.51,377.639C38.54,377.687 38.555,377.744 38.555,377.81C38.555,377.894 38.54,377.987 38.51,378.089C38.504,378.101 38.498,378.116 38.492,378.134C38.486,378.152 38.48,378.17 38.474,378.188C38.468,378.212 38.459,378.242 38.447,378.278C38.435,378.326 38.444,378.38 38.474,378.44C38.486,378.47 38.507,378.503 38.537,378.539C38.543,378.545 38.546,378.551 38.546,378.557L38.546,378.566C38.54,378.572 38.534,378.575 38.528,378.575C38.372,378.587 38.217,378.561 38.065,378.498C37.912,378.435 37.784,378.347 37.682,378.233C37.622,378.173 37.592,378.092 37.592,377.99C37.592,377.93 37.595,377.885 37.601,377.855C37.637,377.723 37.694,377.606 37.772,377.504C37.778,377.504 37.784,377.501 37.79,377.495C37.79,377.501 37.792,377.504 37.795,377.504C37.798,377.504 37.799,377.507 37.799,377.513L37.799,377.549C37.805,377.579 37.808,377.604 37.808,377.625C37.808,377.647 37.811,377.672 37.817,377.702C37.823,377.768 37.85,377.822 37.898,377.864C37.916,377.882 37.925,377.882 37.925,377.864C37.931,377.858 37.934,377.852 37.934,377.846C37.964,377.78 37.987,377.713 38.002,377.643C38.016,377.575 38.024,377.504 38.024,377.432C38.024,377.33 38,377.243 37.952,377.171M40.4,376.937C40.358,376.931 40.309,376.93 40.252,376.932C40.195,376.935 40.148,376.937 40.112,376.937C40.088,376.943 40.066,376.946 40.045,376.946C40.024,376.946 40.001,376.949 39.977,376.955C39.911,376.955 39.857,376.937 39.815,376.901L39.734,376.82C39.728,376.82 39.725,376.811 39.725,376.793C39.755,376.793 39.785,376.792 39.815,376.788C39.845,376.786 39.875,376.781 39.905,376.775C39.935,376.769 39.961,376.766 39.982,376.766C40.003,376.766 40.025,376.763 40.049,376.757C40.055,376.757 40.058,376.754 40.058,376.748L40.058,376.739C40.046,376.733 40.034,376.727 40.022,376.721C40.01,376.715 39.998,376.706 39.986,376.694L39.986,376.685L39.986,376.676C39.998,376.67 40.011,376.667 40.027,376.667C40.042,376.667 40.055,376.664 40.067,376.658L40.535,376.586C40.595,376.574 40.655,376.563 40.715,376.555C40.775,376.546 40.838,376.535 40.904,376.523L41.066,376.496C41.09,376.496 41.096,376.484 41.084,376.46L41.066,376.442C41.066,376.43 41.075,376.424 41.093,376.424C41.117,376.412 41.139,376.405 41.161,376.402C41.181,376.399 41.204,376.391 41.228,376.379L42.272,376.091C42.284,376.091 42.308,376.085 42.344,376.073L42.353,376.082L42.353,376.091L42.335,376.109C42.197,376.235 42.059,376.363 41.921,376.492C41.783,376.62 41.642,376.748 41.498,376.874C41.366,376.988 41.233,377.097 41.098,377.202C40.963,377.307 40.826,377.411 40.688,377.513C40.568,377.597 40.445,377.684 40.319,377.774C40.193,377.864 40.07,377.951 39.95,378.035C39.83,378.119 39.712,378.206 39.594,378.296C39.478,378.386 39.359,378.476 39.239,378.566C39.149,378.638 39.061,378.713 38.974,378.791C38.886,378.869 38.801,378.95 38.717,379.034C38.705,379.04 38.69,379.052 38.672,379.07C38.606,379.118 38.54,379.118 38.474,379.07C38.456,379.052 38.447,379.028 38.447,378.998C38.453,378.986 38.458,378.974 38.461,378.962C38.464,378.95 38.468,378.938 38.474,378.926L38.519,378.881C38.585,378.797 38.653,378.718 38.721,378.642C38.791,378.568 38.864,378.491 38.942,378.413C38.972,378.383 39.004,378.351 39.037,378.319C39.07,378.285 39.104,378.254 39.14,378.224C39.32,378.044 39.503,377.882 39.689,377.738C39.737,377.696 39.785,377.656 39.833,377.617C39.881,377.577 39.929,377.537 39.977,377.495C40.013,377.465 40.048,377.433 40.081,377.401C40.113,377.368 40.145,377.33 40.175,377.288C40.199,377.234 40.235,377.189 40.283,377.153C40.301,377.135 40.322,377.108 40.346,377.072L40.4,376.964L40.4,376.937ZM38.465,377.414C38.471,377.408 38.474,377.404 38.474,377.401C38.474,377.398 38.477,377.393 38.483,377.387C38.519,377.363 38.555,377.351 38.591,377.351C38.615,377.339 38.639,377.333 38.663,377.333L38.735,377.333C38.759,377.333 38.781,377.331 38.802,377.328C38.823,377.326 38.846,377.324 38.87,377.324C38.888,377.324 38.891,377.312 38.879,377.288L38.87,377.27L38.87,377.252C38.87,377.24 38.873,377.234 38.879,377.234L38.888,377.234C39.032,377.216 39.17,377.237 39.302,377.297L39.383,377.351C39.407,377.369 39.428,377.39 39.446,377.414C39.476,377.456 39.488,377.524 39.482,377.617C39.476,377.71 39.458,377.78 39.428,377.828C39.404,377.864 39.383,377.888 39.365,377.9C39.335,377.93 39.303,377.957 39.271,377.981C39.237,378.005 39.206,378.029 39.176,378.053C39.128,378.089 39.082,378.123 39.037,378.157C38.991,378.19 38.945,378.221 38.897,378.251C38.855,378.275 38.816,378.291 38.78,378.301C38.744,378.309 38.705,378.32 38.663,378.332L38.654,378.332C38.648,378.326 38.636,378.325 38.618,378.327C38.6,378.33 38.591,378.329 38.591,378.323L38.609,378.305L38.645,378.269C38.675,378.233 38.714,378.191 38.762,378.143C38.81,378.095 38.849,378.056 38.879,378.026C38.891,378.014 38.904,377.986 38.92,377.941C38.934,377.895 38.945,377.864 38.951,377.846C38.969,377.792 38.966,377.735 38.942,377.675C38.912,377.621 38.876,377.582 38.834,377.558C38.768,377.504 38.696,377.468 38.618,377.45C38.594,377.444 38.57,377.438 38.546,377.432C38.522,377.426 38.495,377.42 38.465,377.414" style="fill-rule:nonzero;"/>
        </g>
    </g>
</svg>
