<?xml version="1.0" encoding="UTF-8" standalone="no"?>
<!DOCTYPE svg PUBLIC "-//W3C//DTD SVG 1.1//EN" "http://www.w3.org/Graphics/SVG/1.1/DTD/svg11.dtd">
<svg width="100%" height="100%" viewBox="0 0 34 34" version="1.1" xmlns="http://www.w3.org/2000/svg" xmlns:xlink="http://www.w3.org/1999/xlink" xml:space="preserve" style="fill-rule:evenodd;clip-rule:evenodd;stroke-linejoin:round;stroke-miterlimit:1.41421;">
    <g transform="matrix(1,0,0,1,-542.013,-352.167)">
        <g transform="matrix(4.16667,0,0,4.16667,394.682,-1269.61)">
            <path d="M38.685,395.792C38.691,395.822 38.693,395.851 38.689,395.877C38.686,395.905 38.682,395.933 38.676,395.963C38.676,395.981 38.667,395.999 38.649,396.017C38.619,396.059 38.587,396.1 38.555,396.139C38.521,396.178 38.49,396.221 38.46,396.269C38.436,396.299 38.415,396.332 38.397,396.368C38.379,396.404 38.358,396.437 38.334,396.467C38.334,396.473 38.332,396.478 38.33,396.48C38.327,396.483 38.325,396.488 38.325,396.494L38.298,396.494C38.292,396.494 38.286,396.491 38.28,396.485C38.268,396.473 38.258,396.464 38.248,396.458C38.24,396.452 38.229,396.443 38.217,396.431L37.623,395.837C37.611,395.819 37.59,395.795 37.56,395.765C37.554,395.759 37.551,395.747 37.551,395.729C37.551,395.699 37.554,395.678 37.56,395.666C37.56,395.648 37.563,395.628 37.569,395.608C37.575,395.587 37.581,395.567 37.587,395.549C37.593,395.531 37.596,395.501 37.596,395.459C37.596,395.417 37.593,395.387 37.587,395.369C37.587,395.333 37.581,395.285 37.569,395.225C37.563,395.177 37.556,395.131 37.547,395.085C37.538,395.041 37.527,394.994 37.515,394.946L37.497,394.91C37.467,394.826 37.434,394.763 37.398,394.721C37.386,394.697 37.371,394.673 37.353,394.649C37.335,394.625 37.32,394.601 37.308,394.577C37.296,394.565 37.29,394.553 37.29,394.541C37.266,394.517 37.245,394.502 37.227,394.496C37.215,394.484 37.203,394.478 37.191,394.478C37.161,394.466 37.137,394.448 37.119,394.424C37.083,394.364 37.023,394.313 36.939,394.271C36.927,394.265 36.918,394.259 36.912,394.253C36.906,394.247 36.897,394.241 36.885,394.235C36.849,394.223 36.814,394.208 36.782,394.19C36.748,394.172 36.717,394.154 36.687,394.136C36.657,394.124 36.618,394.112 36.57,394.1C36.552,394.1 36.534,394.097 36.516,394.091C36.498,394.085 36.48,394.079 36.462,394.073C36.438,394.067 36.408,394.058 36.372,394.046C36.354,394.046 36.337,394.045 36.323,394.042C36.308,394.039 36.291,394.04 36.273,394.046C36.255,394.046 36.236,394.048 36.215,394.051C36.193,394.054 36.171,394.055 36.147,394.055C36.105,394.055 36.06,394.07 36.012,394.1C35.964,394.13 35.922,394.163 35.886,394.199L35.769,394.316C35.745,394.334 35.727,394.358 35.715,394.388C35.703,394.418 35.691,394.451 35.679,394.487C35.667,394.523 35.661,394.559 35.661,394.595C35.655,394.613 35.652,394.646 35.652,394.694C35.64,394.742 35.636,394.793 35.639,394.847C35.642,394.901 35.649,394.952 35.661,395C35.667,395.054 35.685,395.108 35.715,395.162C35.727,395.186 35.741,395.209 35.756,395.23C35.77,395.251 35.784,395.27 35.796,395.288C35.802,395.3 35.802,395.309 35.796,395.315L35.778,395.315L35.769,395.306C35.721,395.282 35.676,395.243 35.634,395.189C35.598,395.141 35.568,395.108 35.544,395.09C35.514,395.06 35.496,395.03 35.49,395C35.472,394.97 35.456,394.938 35.441,394.906C35.426,394.873 35.412,394.841 35.4,394.811C35.388,394.775 35.376,394.727 35.364,394.667C35.358,394.643 35.358,394.613 35.364,394.577C35.376,394.547 35.382,394.519 35.382,394.492L35.382,394.406C35.388,394.364 35.395,394.322 35.405,394.28C35.414,394.238 35.43,394.196 35.454,394.154C35.466,394.13 35.484,394.088 35.508,394.028C35.52,394.004 35.538,393.974 35.562,393.938C35.58,393.908 35.6,393.884 35.621,393.866C35.642,393.848 35.664,393.827 35.688,393.803C35.724,393.767 35.763,393.74 35.805,393.722C35.829,393.71 35.85,393.697 35.868,393.682C35.886,393.667 35.907,393.653 35.931,393.641C35.973,393.599 36.018,393.578 36.066,393.578C36.114,393.56 36.161,393.544 36.206,393.529C36.25,393.514 36.297,393.5 36.345,393.488C36.381,393.476 36.405,393.47 36.417,393.47C36.447,393.464 36.474,393.46 36.498,393.457C36.522,393.454 36.549,393.452 36.579,393.452C36.591,393.446 36.606,393.443 36.624,393.443C36.642,393.443 36.657,393.44 36.669,393.434C36.687,393.428 36.717,393.425 36.759,393.425C36.771,393.431 36.785,393.434 36.8,393.434C36.814,393.434 36.828,393.437 36.84,393.443C36.882,393.437 36.927,393.458 36.975,393.506L37.002,393.533C37.05,393.557 37.086,393.572 37.11,393.578C37.158,393.59 37.197,393.593 37.227,393.587C37.251,393.587 37.269,393.59 37.281,393.596C37.311,393.608 37.341,393.619 37.371,393.627C37.401,393.637 37.431,393.647 37.461,393.659C37.521,393.689 37.578,393.704 37.632,393.704L37.686,393.731C37.734,393.761 37.77,393.791 37.794,393.821C37.824,393.851 37.848,393.872 37.866,393.884C37.896,393.896 37.921,393.913 37.943,393.934C37.963,393.955 37.986,393.974 38.01,393.992C38.034,394.016 38.049,394.034 38.055,394.046C38.067,394.07 38.079,394.088 38.091,394.1C38.097,394.112 38.104,394.124 38.114,394.136C38.123,394.148 38.133,394.16 38.145,394.172C38.157,394.184 38.169,394.193 38.181,394.199C38.205,394.23 38.223,394.256 38.235,394.28C38.241,394.286 38.244,394.291 38.244,394.293C38.244,394.297 38.247,394.301 38.253,394.307C38.259,394.343 38.28,394.385 38.316,394.433C38.334,394.457 38.349,394.48 38.361,394.5C38.373,394.522 38.385,394.544 38.397,394.568C38.421,394.616 38.439,394.661 38.451,394.703C38.463,394.751 38.481,394.793 38.505,394.829C38.529,394.865 38.547,394.901 38.559,394.937C38.565,394.955 38.571,394.975 38.577,394.996C38.583,395.017 38.589,395.036 38.595,395.054C38.625,395.138 38.637,395.21 38.631,395.27C38.625,395.288 38.628,395.309 38.64,395.333C38.64,395.345 38.643,395.355 38.649,395.36C38.667,395.426 38.676,395.492 38.676,395.558L38.676,395.63C38.676,395.654 38.679,395.681 38.685,395.711L38.685,395.792ZM35.949,394.937C35.949,394.943 35.946,394.943 35.94,394.937L35.949,394.937C35.955,394.943 35.955,394.948 35.949,394.951C35.943,394.954 35.943,394.959 35.949,394.964C35.955,394.952 35.955,394.946 35.949,394.946C35.943,394.946 35.943,394.943 35.949,394.937M36.147,391.877C36.153,391.781 36.147,391.673 36.129,391.553C36.123,391.547 36.12,391.535 36.12,391.517C36.12,391.481 36.123,391.454 36.129,391.436C36.135,391.424 36.141,391.415 36.147,391.409C36.153,391.403 36.156,391.394 36.156,391.382C36.168,391.358 36.174,391.34 36.174,391.328C36.18,391.304 36.183,391.28 36.183,391.256C36.183,391.232 36.186,391.208 36.192,391.184L36.192,391.103C36.192,391.091 36.198,391.061 36.21,391.013C36.222,390.983 36.234,390.952 36.246,390.918C36.258,390.886 36.27,390.855 36.282,390.824C36.294,390.782 36.312,390.749 36.336,390.725C36.36,390.695 36.378,390.665 36.39,390.635C36.402,390.605 36.417,390.575 36.435,390.545C36.441,390.539 36.444,390.527 36.444,390.509C36.45,390.491 36.453,390.475 36.453,390.459C36.453,390.445 36.456,390.431 36.462,390.419C36.462,390.395 36.471,390.374 36.489,390.356C36.495,390.356 36.498,390.353 36.498,390.347C36.534,390.323 36.557,390.304 36.566,390.289C36.575,390.274 36.591,390.248 36.615,390.212C36.627,390.188 36.639,390.166 36.651,390.145C36.663,390.124 36.672,390.098 36.678,390.068C36.69,390.038 36.708,390.014 36.732,389.996C36.75,389.984 36.767,389.975 36.782,389.969C36.796,389.963 36.81,389.954 36.822,389.942C36.834,389.93 36.843,389.918 36.849,389.906C36.855,389.894 36.864,389.882 36.876,389.87C36.894,389.846 36.912,389.824 36.93,389.803C36.948,389.782 36.963,389.756 36.975,389.726C36.987,389.708 37.002,389.693 37.02,389.681C37.05,389.669 37.081,389.654 37.115,389.636C37.147,389.618 37.179,389.6 37.209,389.582C37.245,389.558 37.269,389.537 37.281,389.519C37.287,389.513 37.291,389.507 37.294,389.501C37.298,389.495 37.302,389.489 37.308,389.483C37.32,389.471 37.331,389.464 37.34,389.46C37.349,389.458 37.359,389.45 37.371,389.438C37.419,389.414 37.476,389.396 37.542,389.384C37.572,389.372 37.599,389.365 37.623,389.362C37.647,389.359 37.674,389.354 37.704,389.348C37.728,389.342 37.752,389.336 37.776,389.33C37.8,389.324 37.824,389.315 37.848,389.303C37.86,389.297 37.875,389.293 37.893,389.29C37.911,389.287 37.926,389.282 37.938,389.276C37.956,389.264 37.983,389.252 38.019,389.24C38.055,389.234 38.091,389.234 38.127,389.24C38.145,389.246 38.165,389.248 38.185,389.245C38.206,389.242 38.226,389.24 38.244,389.24C38.274,389.228 38.303,389.224 38.33,389.227C38.356,389.23 38.385,389.234 38.415,389.24C38.451,389.24 38.49,389.255 38.532,389.285C38.538,389.291 38.544,389.296 38.55,389.299C38.556,389.302 38.562,389.306 38.568,389.312C38.604,389.324 38.634,389.33 38.658,389.33L38.667,389.33C38.721,389.318 38.769,389.334 38.811,389.375C38.835,389.405 38.865,389.429 38.901,389.447L39.036,389.501C39.084,389.519 39.113,389.53 39.122,389.533C39.131,389.536 39.156,389.561 39.198,389.609C39.21,389.633 39.24,389.657 39.288,389.681C39.3,389.681 39.312,389.687 39.324,389.699C39.354,389.711 39.375,389.732 39.387,389.762C39.399,389.804 39.417,389.842 39.441,389.875C39.465,389.908 39.492,389.939 39.522,389.969C39.546,389.993 39.567,390.011 39.585,390.023C39.609,390.047 39.627,390.068 39.639,390.086C39.651,390.11 39.663,390.125 39.675,390.131C39.699,390.173 39.714,390.215 39.72,390.257C39.726,390.293 39.741,390.332 39.765,390.374L39.792,390.428C39.804,390.452 39.81,390.476 39.81,390.5C39.81,390.53 39.811,390.559 39.814,390.585C39.818,390.613 39.822,390.641 39.828,390.671C39.846,390.713 39.846,390.761 39.828,390.815C39.816,390.839 39.81,390.881 39.81,390.941C39.822,390.995 39.819,391.037 39.801,391.067C39.789,391.103 39.782,391.139 39.779,391.175C39.775,391.211 39.771,391.244 39.765,391.274C39.759,391.292 39.75,391.313 39.738,391.337C39.732,391.349 39.726,391.358 39.72,391.364C39.714,391.37 39.708,391.379 39.702,391.391C39.684,391.439 39.657,391.475 39.621,391.499L39.603,391.517C39.591,391.523 39.579,391.538 39.567,391.562C39.555,391.574 39.548,391.589 39.544,391.607C39.541,391.625 39.534,391.64 39.522,391.652C39.51,391.676 39.495,391.691 39.477,391.697L39.468,391.706C39.438,391.718 39.41,391.733 39.383,391.751C39.355,391.769 39.33,391.79 39.306,391.814C39.3,391.832 39.282,391.847 39.252,391.859C39.192,391.889 39.137,391.917 39.085,391.945C39.035,391.972 38.979,391.997 38.919,392.021C38.907,392.021 38.895,392.015 38.883,392.003L38.883,391.994L38.901,391.958C38.919,391.928 38.937,391.903 38.955,391.882C38.973,391.861 38.988,391.835 39,391.805C39.018,391.775 39.032,391.747 39.04,391.72C39.05,391.693 39.06,391.664 39.072,391.634L39.072,391.562L39.072,391.49C39.072,391.448 39.075,391.415 39.081,391.391C39.105,391.331 39.105,391.253 39.081,391.157C39.075,391.127 39.06,391.082 39.036,391.022C39.024,390.98 39.003,390.953 38.973,390.941C38.937,390.917 38.91,390.884 38.892,390.842C38.862,390.794 38.823,390.761 38.775,390.743C38.745,390.731 38.718,390.719 38.694,390.707C38.67,390.695 38.643,390.683 38.613,390.671C38.589,390.659 38.565,390.65 38.541,390.644C38.517,390.638 38.49,390.629 38.46,390.617C38.442,390.611 38.424,390.611 38.406,390.617C38.376,390.623 38.349,390.629 38.325,390.635C38.301,390.641 38.274,390.65 38.244,390.662C38.214,390.674 38.187,390.688 38.163,390.703C38.139,390.718 38.115,390.734 38.091,390.752C38.067,390.776 38.043,390.799 38.019,390.82C37.995,390.841 37.971,390.86 37.947,390.878C37.911,390.908 37.893,390.938 37.893,390.968L37.893,391.004L37.866,391.085L37.839,391.112C37.815,391.166 37.797,391.223 37.785,391.283C37.773,391.373 37.773,391.463 37.785,391.553C37.797,391.601 37.809,391.637 37.821,391.661C37.827,391.673 37.831,391.681 37.834,391.684C37.837,391.687 37.842,391.694 37.848,391.706C37.872,391.742 37.884,391.775 37.884,391.805C37.89,391.841 37.902,391.874 37.92,391.904C37.932,391.917 37.939,391.93 37.943,391.945C37.946,391.959 37.953,391.973 37.965,391.985C37.983,392.009 38.004,392.03 38.028,392.048C38.04,392.054 38.047,392.059 38.051,392.062C38.054,392.065 38.061,392.069 38.073,392.075C38.085,392.081 38.093,392.087 38.096,392.093C38.099,392.099 38.103,392.105 38.109,392.111C38.121,392.123 38.133,392.137 38.145,392.152C38.157,392.167 38.169,392.18 38.181,392.192C38.205,392.228 38.22,392.258 38.226,392.282C38.232,392.288 38.235,392.297 38.235,392.309C38.241,392.333 38.259,392.354 38.289,392.372L38.307,392.381C38.337,392.393 38.363,392.408 38.384,392.426C38.405,392.444 38.427,392.462 38.451,392.48L38.478,392.507C38.502,392.519 38.523,392.525 38.541,392.525L38.577,392.525C38.595,392.525 38.616,392.531 38.64,392.543C38.658,392.555 38.675,392.564 38.689,392.57C38.705,392.576 38.721,392.582 38.739,392.588C38.775,392.612 38.799,392.633 38.811,392.651C38.829,392.669 38.847,392.686 38.865,392.701C38.883,392.716 38.904,392.732 38.928,392.75C38.946,392.762 38.964,392.777 38.982,392.795C39,392.813 39.018,392.831 39.036,392.849C39.06,392.885 39.09,392.915 39.126,392.939C39.156,392.957 39.183,392.978 39.207,393.002C39.231,393.026 39.255,393.053 39.279,393.083C39.291,393.089 39.303,393.104 39.315,393.128L39.342,393.182C39.366,393.23 39.387,393.263 39.405,393.281C39.411,393.293 39.415,393.301 39.418,393.304C39.421,393.307 39.426,393.314 39.432,393.326C39.456,393.362 39.468,393.389 39.468,393.407C39.468,393.437 39.471,393.461 39.477,393.479C39.489,393.539 39.495,393.584 39.495,393.614C39.495,393.65 39.504,393.68 39.522,393.704L39.522,393.713C39.558,393.755 39.576,393.809 39.576,393.875L39.576,394.019C39.576,394.073 39.564,394.109 39.54,394.127C39.516,394.145 39.486,394.172 39.45,394.208C39.432,394.22 39.417,394.234 39.405,394.249C39.393,394.264 39.381,394.277 39.369,394.289C39.315,394.355 39.276,394.412 39.252,394.46C39.234,394.49 39.213,394.514 39.189,394.532C39.141,394.58 39.105,394.634 39.081,394.694C39.069,394.718 39.059,394.741 39.05,394.762C39.04,394.783 39.03,394.805 39.018,394.829C39,394.865 38.985,394.903 38.973,394.942C38.961,394.981 38.949,395.021 38.937,395.063C38.931,395.069 38.922,395.072 38.91,395.072C38.91,395.066 38.907,395.063 38.901,395.063L38.892,395.054C38.88,395.024 38.868,394.996 38.856,394.969C38.844,394.942 38.832,394.913 38.82,394.883C38.808,394.841 38.796,394.802 38.784,394.766C38.772,394.73 38.76,394.691 38.748,394.649C38.748,394.631 38.745,394.616 38.739,394.604C38.733,394.592 38.728,394.582 38.725,394.573C38.723,394.563 38.715,394.553 38.703,394.541C38.697,394.529 38.691,394.52 38.685,394.514C38.679,394.508 38.673,394.499 38.667,394.487C38.643,394.451 38.628,394.424 38.622,394.406C38.622,394.394 38.616,394.376 38.604,394.352C38.592,394.316 38.577,394.289 38.559,394.271C38.535,394.253 38.514,394.232 38.496,394.208C38.478,394.184 38.46,394.16 38.442,394.136C38.43,394.124 38.421,394.112 38.415,394.1C38.409,394.088 38.4,394.076 38.388,394.064C38.34,394.016 38.31,393.986 38.298,393.974C38.286,393.962 38.256,393.941 38.208,393.911C38.184,393.887 38.166,393.866 38.154,393.848L38.145,393.83C38.133,393.8 38.117,393.781 38.096,393.771C38.075,393.763 38.049,393.752 38.019,393.74C38.001,393.74 37.986,393.737 37.974,393.731C37.956,393.731 37.944,393.722 37.938,393.704C37.926,393.698 37.918,393.692 37.915,393.686C37.913,393.68 37.905,393.671 37.893,393.659C37.881,393.629 37.854,393.605 37.812,393.587C37.794,393.575 37.776,393.568 37.758,393.564C37.74,393.562 37.722,393.554 37.704,393.542C37.692,393.536 37.682,393.533 37.673,393.533C37.664,393.533 37.653,393.53 37.641,393.524C37.629,393.524 37.599,393.518 37.551,393.506L37.371,393.434C37.359,393.428 37.344,393.424 37.326,393.421C37.308,393.417 37.293,393.413 37.281,393.407L37.218,393.407C37.182,393.425 37.146,393.416 37.11,393.38L36.975,393.272C36.945,393.242 36.914,393.217 36.881,393.196C36.848,393.175 36.816,393.152 36.786,393.128C36.774,393.116 36.764,393.109 36.755,393.105C36.746,393.103 36.735,393.095 36.723,393.083C36.699,393.077 36.678,393.059 36.66,393.029L36.66,393.02C36.63,392.972 36.588,392.927 36.534,392.885C36.498,392.837 36.474,392.801 36.462,392.777C36.462,392.765 36.46,392.758 36.457,392.755C36.455,392.751 36.453,392.747 36.453,392.741C36.447,392.717 36.432,392.699 36.408,392.687L36.372,392.651C36.36,392.639 36.35,392.625 36.341,392.611C36.331,392.596 36.321,392.582 36.309,392.57C36.303,392.552 36.297,392.536 36.291,392.521C36.285,392.506 36.279,392.489 36.273,392.471C36.267,392.465 36.264,392.459 36.264,392.453C36.264,392.447 36.261,392.441 36.255,392.435C36.243,392.369 36.229,392.311 36.215,392.26C36.2,392.209 36.183,392.156 36.165,392.102C36.153,392.078 36.147,392.054 36.147,392.03L36.147,391.877ZM42.186,395.738C42.168,395.738 42.141,395.744 42.105,395.756C42.087,395.762 42.054,395.765 42.006,395.765C41.988,395.765 41.97,395.764 41.952,395.761C41.934,395.757 41.916,395.756 41.898,395.756C41.886,395.75 41.873,395.747 41.858,395.747C41.843,395.747 41.826,395.744 41.808,395.738C41.766,395.732 41.718,395.732 41.664,395.738C41.634,395.744 41.604,395.746 41.574,395.743C41.544,395.74 41.514,395.735 41.484,395.729C41.466,395.723 41.447,395.72 41.426,395.72C41.405,395.72 41.385,395.714 41.367,395.702C41.337,395.696 41.309,395.691 41.282,395.688C41.255,395.686 41.226,395.69 41.196,395.702C41.184,395.708 41.16,395.711 41.124,395.711C41.094,395.705 41.066,395.701 41.039,395.698C41.012,395.694 40.983,395.693 40.953,395.693C40.923,395.687 40.884,395.684 40.836,395.684C40.788,395.684 40.752,395.69 40.728,395.702C40.71,395.708 40.689,395.711 40.665,395.711C40.641,395.711 40.62,395.717 40.602,395.729C40.578,395.735 40.556,395.741 40.535,395.747C40.514,395.753 40.488,395.756 40.458,395.756C40.41,395.768 40.374,395.78 40.35,395.792C40.314,395.81 40.277,395.828 40.238,395.846C40.199,395.864 40.164,395.888 40.134,395.918C40.122,395.924 40.113,395.93 40.107,395.936C40.101,395.942 40.092,395.948 40.08,395.954L39.837,396.17C39.801,396.206 39.777,396.233 39.765,396.251C39.735,396.305 39.696,396.365 39.648,396.431C39.624,396.467 39.612,396.497 39.612,396.521C39.606,396.533 39.603,396.551 39.603,396.575C39.603,396.611 39.594,396.641 39.576,396.665C39.57,396.677 39.565,396.685 39.562,396.688C39.559,396.69 39.555,396.698 39.549,396.71C39.537,396.716 39.53,396.722 39.527,396.728C39.523,396.734 39.519,396.74 39.513,396.746C39.441,396.812 39.371,396.881 39.302,396.953C39.232,397.025 39.162,397.094 39.09,397.16C39.078,397.178 39.063,397.193 39.045,397.205C39.033,397.217 39.021,397.217 39.009,397.205C39.003,397.205 38.997,397.202 38.991,397.196C38.907,397.112 38.826,397.033 38.748,396.958C38.67,396.882 38.592,396.803 38.514,396.719C38.496,396.701 38.487,396.68 38.487,396.656L38.487,396.611C38.487,396.593 38.493,396.566 38.505,396.53C38.595,396.368 38.706,396.221 38.838,396.089C38.85,396.077 38.862,396.067 38.874,396.058C38.886,396.049 38.901,396.038 38.919,396.026C38.949,396.002 38.973,395.979 38.991,395.959C39.009,395.938 39.03,395.915 39.054,395.891C39.066,395.879 39.074,395.87 39.077,395.864C39.08,395.858 39.087,395.849 39.099,395.837C39.117,395.801 39.147,395.765 39.189,395.729C39.219,395.699 39.247,395.674 39.275,395.653C39.302,395.631 39.33,395.609 39.36,395.585C39.384,395.561 39.408,395.549 39.432,395.549C39.45,395.549 39.462,395.546 39.468,395.54C39.504,395.528 39.531,395.513 39.549,395.495C39.609,395.441 39.674,395.392 39.743,395.347C39.811,395.302 39.879,395.258 39.945,395.216C39.975,395.204 40.002,395.192 40.026,395.18C40.05,395.168 40.077,395.159 40.107,395.153C40.113,395.153 40.134,395.147 40.17,395.135C40.2,395.117 40.233,395.099 40.269,395.081C40.305,395.063 40.341,395.042 40.377,395.018C40.401,395 40.44,394.985 40.494,394.973C40.524,394.973 40.551,394.972 40.575,394.969C40.599,394.966 40.626,394.964 40.656,394.964L40.755,394.964C40.809,394.959 40.863,394.959 40.917,394.964C40.965,394.964 41.009,394.966 41.048,394.969C41.086,394.972 41.13,394.976 41.178,394.982C41.19,394.988 41.211,394.991 41.241,394.991C41.295,394.991 41.334,394.997 41.358,395.009C41.388,395.021 41.414,395.029 41.434,395.032C41.456,395.035 41.481,395.042 41.511,395.054C41.559,395.078 41.608,395.098 41.66,395.113C41.71,395.128 41.76,395.141 41.808,395.153C41.868,395.165 41.919,395.186 41.961,395.216C41.985,395.234 42.015,395.243 42.051,395.243C42.069,395.243 42.081,395.24 42.087,395.234C42.141,395.228 42.195,395.24 42.249,395.27C42.255,395.276 42.26,395.279 42.263,395.279C42.266,395.279 42.27,395.282 42.276,395.288C42.312,395.3 42.342,395.303 42.366,395.297L42.402,395.297C42.438,395.285 42.468,395.288 42.492,395.306C42.504,395.312 42.513,395.315 42.519,395.315C42.525,395.315 42.534,395.318 42.546,395.324C42.564,395.336 42.597,395.342 42.645,395.342C42.663,395.342 42.69,395.336 42.726,395.324C42.744,395.318 42.774,395.315 42.816,395.315C42.852,395.315 42.876,395.312 42.888,395.306C42.936,395.294 42.975,395.282 43.005,395.27C43.029,395.264 43.05,395.258 43.068,395.252C43.086,395.246 43.107,395.24 43.131,395.234C43.167,395.234 43.2,395.219 43.23,395.189C43.248,395.177 43.266,395.162 43.284,395.144C43.302,395.126 43.317,395.111 43.329,395.099C43.353,395.081 43.374,395.06 43.392,395.036L43.41,395.036C43.422,395.036 43.428,395.042 43.428,395.054L43.428,395.072C43.404,395.114 43.389,395.153 43.383,395.189C43.371,395.219 43.357,395.246 43.343,395.27C43.328,395.294 43.314,395.318 43.302,395.342C43.272,395.39 43.233,395.426 43.185,395.45C43.161,395.462 43.139,395.476 43.118,395.491C43.097,395.506 43.071,395.519 43.041,395.531C43.005,395.549 42.975,395.57 42.951,395.594L42.924,395.621C42.912,395.633 42.894,395.645 42.87,395.657C42.84,395.669 42.809,395.678 42.776,395.684C42.743,395.69 42.711,395.696 42.681,395.702C42.621,395.702 42.564,395.711 42.51,395.729C42.492,395.741 42.462,395.747 42.42,395.747C42.396,395.741 42.366,395.738 42.33,395.738L42.186,395.738ZM40.629,394.784C40.551,394.784 40.476,394.793 40.404,394.811C40.362,394.817 40.323,394.835 40.287,394.865C40.275,394.871 40.262,394.878 40.247,394.888C40.231,394.896 40.218,394.904 40.206,394.91C40.17,394.928 40.136,394.946 40.102,394.964C40.07,394.982 40.032,394.994 39.99,395C39.954,395.012 39.93,395.021 39.918,395.027C39.834,395.075 39.753,395.125 39.675,395.176C39.597,395.227 39.522,395.282 39.45,395.342C39.432,395.36 39.417,395.369 39.405,395.369C39.339,395.381 39.27,395.42 39.198,395.486C39.174,395.504 39.153,395.522 39.135,395.54C39.117,395.558 39.093,395.576 39.063,395.594C39.063,395.588 39.06,395.585 39.054,395.585C39.048,395.585 39.045,395.582 39.045,395.576C39.045,395.57 39.043,395.564 39.04,395.558C39.038,395.552 39.036,395.546 39.036,395.54C39.036,395.498 39.038,395.456 39.04,395.414C39.043,395.372 39.045,395.33 39.045,395.288C39.045,395.258 39.048,395.237 39.054,395.225C39.072,395.195 39.085,395.165 39.095,395.135C39.103,395.105 39.114,395.075 39.126,395.045C39.138,395.015 39.149,394.988 39.158,394.964C39.166,394.94 39.177,394.913 39.189,394.883C39.201,394.865 39.213,394.838 39.225,394.802C39.243,394.76 39.257,394.732 39.266,394.717C39.275,394.702 39.3,394.676 39.342,394.64C39.354,394.628 39.372,394.604 39.396,394.568C39.408,394.544 39.421,394.523 39.436,394.505C39.452,394.487 39.465,394.469 39.477,394.451C39.519,394.379 39.567,394.328 39.621,394.298C39.645,394.292 39.666,394.274 39.684,394.244C39.702,394.22 39.722,394.198 39.743,394.177C39.764,394.156 39.786,394.13 39.81,394.1C39.828,394.076 39.861,394.046 39.909,394.01L40.053,393.902C40.167,393.818 40.287,393.743 40.413,393.677C40.419,393.677 40.425,393.676 40.431,393.673C40.437,393.67 40.443,393.668 40.449,393.668C40.485,393.644 40.509,393.626 40.521,393.614C40.533,393.608 40.548,393.596 40.566,393.578C40.578,393.572 40.587,393.566 40.593,393.56C40.599,393.554 40.608,393.551 40.62,393.551C40.626,393.545 40.635,393.542 40.647,393.542C40.683,393.53 40.719,393.517 40.755,393.501C40.791,393.487 40.827,393.47 40.863,393.452C40.881,393.44 40.9,393.433 40.922,393.43C40.943,393.427 40.962,393.422 40.98,393.416C41.016,393.392 41.04,393.371 41.052,393.353C41.052,393.347 41.058,393.338 41.07,393.326C41.088,393.29 41.109,393.263 41.133,393.245C41.181,393.203 41.22,393.149 41.25,393.083C41.274,393.042 41.296,393.001 41.318,392.961C41.338,392.923 41.355,392.882 41.367,392.84C41.385,392.798 41.394,392.753 41.394,392.705L41.394,392.606C41.394,392.54 41.391,392.492 41.385,392.462C41.379,392.42 41.355,392.378 41.313,392.336C41.253,392.294 41.196,392.27 41.142,392.264L41.03,392.264C40.991,392.264 40.95,392.267 40.908,392.273C40.866,392.279 40.827,392.285 40.791,392.291C40.755,392.297 40.716,392.306 40.674,392.318L40.62,392.345C40.59,392.363 40.563,392.381 40.539,392.399C40.515,392.417 40.488,392.432 40.458,392.444C40.452,392.444 40.449,392.446 40.449,392.449C40.449,392.452 40.446,392.453 40.44,392.453C40.428,392.465 40.419,392.473 40.413,392.476C40.407,392.479 40.401,392.486 40.395,392.498L40.377,392.534C40.365,392.564 40.35,392.59 40.332,392.611C40.314,392.632 40.296,392.654 40.278,392.678C40.266,392.69 40.257,392.69 40.251,392.678C40.245,392.678 40.242,392.672 40.242,392.66C40.242,392.618 40.248,392.567 40.26,392.507C40.266,392.453 40.266,392.399 40.26,392.345C40.26,392.333 40.266,392.303 40.278,392.255C40.284,392.249 40.287,392.243 40.287,392.237C40.287,392.231 40.29,392.222 40.296,392.21C40.32,392.168 40.335,392.126 40.341,392.084C40.341,392.066 40.347,392.045 40.359,392.021C40.371,391.991 40.386,391.961 40.404,391.931C40.41,391.919 40.417,391.907 40.427,391.895C40.435,391.883 40.446,391.871 40.458,391.859C40.488,391.835 40.514,391.813 40.535,391.792L40.602,391.724C40.626,391.7 40.644,391.685 40.656,391.679C40.668,391.667 40.683,391.657 40.701,391.647C40.719,391.639 40.737,391.628 40.755,391.616C40.767,391.61 40.785,391.607 40.809,391.607C40.815,391.601 40.827,391.598 40.845,391.598C40.887,391.592 40.926,391.574 40.962,391.544C40.974,391.538 40.981,391.534 40.985,391.531C40.988,391.528 40.995,391.523 41.007,391.517C41.013,391.511 41.022,391.508 41.034,391.508C41.064,391.496 41.094,391.487 41.124,391.481C41.154,391.475 41.184,391.472 41.214,391.472C41.244,391.472 41.271,391.471 41.295,391.468C41.319,391.465 41.346,391.466 41.376,391.472C41.43,391.49 41.493,391.487 41.565,391.463C41.577,391.457 41.588,391.456 41.597,391.459C41.605,391.462 41.616,391.463 41.628,391.463C41.676,391.475 41.736,391.502 41.808,391.544C41.82,391.55 41.835,391.558 41.853,391.567C41.871,391.576 41.886,391.584 41.898,391.589C41.952,391.619 42,391.649 42.042,391.679C42.09,391.709 42.126,391.742 42.15,391.778C42.168,391.802 42.186,391.826 42.204,391.85C42.222,391.874 42.24,391.901 42.258,391.931C42.27,391.943 42.279,391.955 42.285,391.967C42.291,391.979 42.3,391.991 42.312,392.003C42.342,392.045 42.363,392.096 42.375,392.156C42.381,392.198 42.399,392.237 42.429,392.273C42.441,392.297 42.45,392.312 42.456,392.318C42.462,392.33 42.465,392.348 42.465,392.372L42.465,392.408C42.465,392.462 42.474,392.516 42.492,392.57C42.51,392.624 42.516,392.675 42.51,392.723C42.504,392.759 42.499,392.794 42.497,392.827C42.494,392.86 42.486,392.894 42.474,392.93C42.468,392.96 42.463,392.992 42.46,393.025C42.457,393.058 42.45,393.089 42.438,393.119C42.432,393.149 42.426,393.176 42.42,393.2C42.414,393.224 42.408,393.248 42.402,393.272C42.39,393.302 42.378,393.331 42.366,393.358C42.354,393.385 42.339,393.413 42.321,393.443C42.297,393.479 42.282,393.515 42.276,393.551C42.276,393.569 42.27,393.584 42.258,393.596C42.258,393.608 42.255,393.619 42.249,393.627C42.243,393.637 42.237,393.647 42.231,393.659L42.204,393.686C42.18,393.704 42.15,393.737 42.114,393.785C42.084,393.834 42.059,393.871 42.038,393.897C42.017,393.925 41.997,393.949 41.979,393.97C41.961,393.991 41.938,394.013 41.912,394.037C41.885,394.061 41.85,394.094 41.808,394.136C41.76,394.172 41.724,394.211 41.7,394.253L41.682,394.271C41.658,394.295 41.637,394.31 41.619,394.316C41.613,394.316 41.61,394.318 41.61,394.321C41.61,394.324 41.607,394.325 41.601,394.325C41.553,394.343 41.523,394.356 41.511,394.366C41.499,394.375 41.478,394.397 41.448,394.433C41.436,394.451 41.412,394.472 41.376,394.496C41.328,394.514 41.285,394.538 41.246,394.568C41.206,394.598 41.166,394.628 41.124,394.658C41.088,394.694 41.058,394.718 41.034,394.73C40.986,394.76 40.957,394.777 40.949,394.78C40.939,394.783 40.911,394.784 40.863,394.784L40.728,394.784L40.629,394.784Z" style="fill-rule:nonzero;"/>
        </g>
    </g>
</svg>
