<?xml version="1.0" encoding="UTF-8" standalone="no"?>
<!DOCTYPE svg PUBLIC "-//W3C//DTD SVG 1.1//EN" "http://www.w3.org/Graphics/SVG/1.1/DTD/svg11.dtd">
<svg width="100%" height="100%" viewBox="0 0 33 35" version="1.1" xmlns="http://www.w3.org/2000/svg" xmlns:xlink="http://www.w3.org/1999/xlink" xml:space="preserve" style="fill-rule:evenodd;clip-rule:evenodd;stroke-linejoin:round;stroke-miterlimit:1.41421;">
    <g transform="matrix(1,0,0,1,-447.904,-351.471)">
        <g transform="matrix(4.16667,0,0,4.16667,242.686,-1132.72)">
            <path d="M51.034,360.217C51.04,360.217 51.046,360.218 51.052,360.221C51.058,360.224 51.064,360.226 51.07,360.226C51.01,360.43 50.949,360.701 50.886,361.04C50.823,361.379 50.797,361.75 50.809,362.152C50.797,362.164 50.782,362.17 50.764,362.17C50.764,362.176 50.761,362.179 50.755,362.179C50.743,362.191 50.732,362.198 50.723,362.201C50.715,362.204 50.704,362.209 50.692,362.215C50.68,362.227 50.669,362.236 50.66,362.242C50.652,362.248 50.641,362.254 50.629,362.26C50.617,362.272 50.599,362.284 50.575,362.296C50.557,362.308 50.537,362.322 50.516,362.336C50.495,362.351 50.476,362.368 50.458,362.386L50.422,362.404C50.404,362.422 50.385,362.44 50.364,362.458C50.343,362.476 50.323,362.497 50.305,362.521C50.281,362.533 50.251,362.557 50.215,362.593C50.209,362.605 50.204,362.612 50.201,362.615C50.199,362.618 50.194,362.626 50.188,362.638L50.161,362.665L50.152,362.665L50.152,362.656C50.146,362.656 50.143,362.653 50.143,362.647C50.143,362.617 50.14,362.593 50.134,362.575L50.134,362.557C50.122,362.521 50.116,362.491 50.116,362.467C50.11,362.461 50.107,362.449 50.107,362.431C50.095,362.407 50.086,362.383 50.08,362.359C50.074,362.335 50.065,362.311 50.053,362.287C50.047,362.263 50.041,362.242 50.035,362.224C50.029,362.206 50.023,362.185 50.017,362.161C50.011,362.161 50.008,362.158 50.008,362.152C49.996,362.134 49.986,362.114 49.976,362.093C49.968,362.072 49.957,362.053 49.945,362.035C49.933,362.017 49.923,361.999 49.913,361.981C49.905,361.963 49.894,361.945 49.882,361.927C49.858,361.891 49.828,361.849 49.792,361.801L49.792,361.792C49.774,361.774 49.757,361.756 49.742,361.738C49.727,361.72 49.711,361.705 49.693,361.693C49.645,361.651 49.6,361.615 49.558,361.585L49.531,361.558C49.525,361.558 49.519,361.555 49.513,361.549C49.495,361.537 49.475,361.525 49.454,361.513C49.433,361.501 49.414,361.489 49.396,361.477C49.39,361.477 49.384,361.474 49.378,361.468C49.366,361.468 49.36,361.459 49.36,361.441L49.36,361.414C49.36,361.39 49.361,361.369 49.365,361.351C49.367,361.333 49.369,361.315 49.369,361.297C49.375,361.279 49.378,361.255 49.378,361.225L49.378,361.18C49.372,361.162 49.37,361.145 49.373,361.13C49.376,361.115 49.378,361.099 49.378,361.081C49.384,361.063 49.387,361.039 49.387,361.009C49.387,360.949 49.384,360.907 49.378,360.882L49.378,360.757C49.384,360.745 49.387,360.724 49.387,360.694C49.381,360.646 49.381,360.595 49.387,360.541C49.387,360.511 49.384,360.49 49.378,360.478C49.378,360.448 49.375,360.424 49.369,360.406L49.369,360.379L49.369,360.316L49.369,360.253C49.363,360.241 49.36,360.226 49.36,360.208C49.354,360.19 49.351,360.172 49.351,360.154C49.351,360.136 49.348,360.115 49.342,360.091L49.342,360.064L49.342,360.028C49.342,360.01 49.341,359.99 49.337,359.969C49.334,359.948 49.333,359.926 49.333,359.902C49.327,359.878 49.323,359.854 49.32,359.83C49.316,359.806 49.312,359.779 49.306,359.749C49.3,359.731 49.295,359.714 49.292,359.699C49.289,359.684 49.288,359.668 49.288,359.65L49.288,359.623C49.282,359.611 49.279,359.599 49.279,359.587C49.279,359.575 49.276,359.563 49.27,359.551C49.27,359.527 49.267,359.509 49.261,359.497C49.261,359.479 49.258,359.467 49.252,359.461C49.252,359.455 49.255,359.452 49.261,359.452L49.288,359.479C49.306,359.491 49.333,359.515 49.369,359.551L49.405,359.587L49.45,359.623C49.474,359.647 49.504,359.671 49.54,359.695C49.552,359.707 49.57,359.719 49.594,359.731C49.612,359.743 49.631,359.757 49.653,359.776C49.674,359.794 49.696,359.809 49.72,359.821C49.744,359.839 49.768,359.855 49.792,359.87C49.816,359.885 49.84,359.899 49.864,359.911C49.888,359.923 49.91,359.933 49.931,359.942C49.952,359.951 49.975,359.962 49.999,359.974C50.005,359.98 50.01,359.983 50.013,359.983C50.015,359.983 50.02,359.986 50.026,359.992C50.038,359.992 50.049,359.993 50.057,359.996C50.067,359.999 50.077,360.001 50.089,360.001C50.095,360.001 50.101,360.002 50.107,360.005C50.113,360.009 50.119,360.01 50.125,360.01L50.161,360.028C50.197,360.04 50.224,360.046 50.242,360.046C50.26,360.052 50.28,360.058 50.301,360.064C50.322,360.07 50.344,360.076 50.368,360.082C50.38,360.088 50.39,360.091 50.399,360.091C50.408,360.091 50.419,360.094 50.431,360.1L50.44,360.1C50.458,360.1 50.485,360.106 50.521,360.118C50.533,360.118 50.539,360.121 50.539,360.127C50.551,360.133 50.563,360.136 50.575,360.136C50.587,360.136 50.599,360.139 50.611,360.145L50.647,360.145C50.665,360.145 50.686,360.151 50.71,360.163L50.728,360.163C50.746,360.175 50.764,360.181 50.782,360.181C50.8,360.181 50.818,360.184 50.836,360.19L50.863,360.19C50.869,360.196 50.878,360.199 50.89,360.199L50.926,360.199C50.938,360.199 50.951,360.2 50.967,360.203C50.981,360.206 50.995,360.208 51.007,360.208C51.013,360.208 51.017,360.209 51.02,360.212C51.023,360.216 51.028,360.217 51.034,360.217M55.291,359.317C55.279,359.329 55.267,359.335 55.255,359.335L55.237,359.344C55.207,359.35 55.162,359.365 55.102,359.389C55.09,359.401 55.078,359.407 55.066,359.407C55.054,359.419 55.036,359.431 55.012,359.443C55,359.455 54.988,359.461 54.976,359.461L54.967,359.461C54.955,359.467 54.945,359.471 54.935,359.474C54.927,359.477 54.916,359.482 54.904,359.488L54.832,359.488L54.823,359.488C54.811,359.488 54.796,359.494 54.778,359.506C54.766,359.518 54.752,359.528 54.738,359.537C54.722,359.546 54.709,359.557 54.697,359.569C54.661,359.599 54.628,359.632 54.598,359.668C54.586,359.68 54.58,359.689 54.58,359.695C54.574,359.707 54.571,359.719 54.571,359.731C54.571,359.743 54.568,359.755 54.562,359.767L54.562,359.794C54.574,359.806 54.586,359.83 54.598,359.866C54.604,359.872 54.607,359.876 54.607,359.879C54.607,359.882 54.61,359.887 54.616,359.893C54.628,359.905 54.636,359.914 54.638,359.92C54.641,359.926 54.649,359.935 54.661,359.947C54.661,359.953 54.662,359.959 54.665,359.965C54.668,359.971 54.67,359.977 54.67,359.983C54.676,359.995 54.679,360.004 54.679,360.01C54.679,360.016 54.682,360.025 54.688,360.037C54.688,360.043 54.694,360.064 54.706,360.1C54.718,360.124 54.727,360.148 54.733,360.172C54.739,360.196 54.748,360.22 54.76,360.244C54.76,360.25 54.761,360.256 54.764,360.262C54.767,360.268 54.769,360.274 54.769,360.28L54.769,360.352C54.769,360.364 54.77,360.371 54.773,360.374C54.776,360.377 54.778,360.382 54.778,360.388C54.778,360.394 54.781,360.397 54.787,360.397C54.793,360.409 54.797,360.421 54.801,360.433C54.804,360.445 54.808,360.457 54.814,360.469C54.82,360.481 54.829,360.505 54.841,360.541C54.841,360.553 54.843,360.563 54.845,360.572C54.848,360.581 54.85,360.592 54.85,360.604C54.85,360.628 54.853,360.646 54.859,360.658L54.859,360.667C54.859,360.697 54.862,360.721 54.868,360.739C54.868,360.769 54.871,360.793 54.877,360.811L54.886,360.811C54.898,360.847 54.904,360.871 54.904,360.882C54.916,360.907 54.922,360.928 54.922,360.946C54.928,360.958 54.931,360.976 54.931,361L54.931,361.099C54.937,361.123 54.949,361.147 54.967,361.171L54.967,361.306C54.979,361.366 54.991,361.411 55.003,361.441L55.003,361.477C55.015,361.501 55.018,361.522 55.012,361.54L55.012,361.612C55.012,361.618 55.015,361.633 55.021,361.657C55.027,361.663 55.03,361.672 55.03,361.684C55.036,361.696 55.039,361.717 55.039,361.747C55.039,361.759 55.036,361.768 55.03,361.774L55.03,361.855C55.024,361.909 55.024,361.96 55.03,362.007L55.03,362.107C55.042,362.131 55.042,362.152 55.03,362.17L55.03,362.602C55.03,362.613 55.024,362.626 55.012,362.638C55,362.65 54.991,362.657 54.985,362.66C54.979,362.663 54.97,362.671 54.958,362.683C54.946,362.689 54.934,362.697 54.922,362.71C54.916,362.716 54.911,362.722 54.908,362.728C54.906,362.734 54.898,362.74 54.886,362.746C54.88,362.764 54.868,362.776 54.85,362.782C54.844,362.788 54.823,362.803 54.787,362.827C54.775,362.839 54.769,362.848 54.769,362.854C54.757,362.86 54.745,362.875 54.733,362.899L54.706,362.935L54.67,362.971C54.646,362.983 54.616,363.007 54.58,363.043C54.568,363.055 54.559,363.062 54.553,363.065C54.547,363.068 54.541,363.076 54.535,363.088C54.529,363.093 54.524,363.1 54.521,363.106C54.518,363.112 54.514,363.118 54.508,363.124C54.484,363.148 54.46,363.178 54.436,363.214C54.43,363.219 54.426,363.226 54.423,363.232C54.419,363.238 54.412,363.244 54.4,363.25C54.388,363.256 54.373,363.268 54.355,363.286L54.301,363.34L54.247,363.394C54.235,363.4 54.224,363.405 54.216,363.412C54.206,363.418 54.196,363.424 54.184,363.43C54.184,363.436 54.178,363.445 54.166,363.457C54.154,363.481 54.142,363.499 54.13,363.511C54.118,363.535 54.106,363.55 54.094,363.556C54.088,363.556 54.085,363.559 54.085,363.565C54.061,363.577 54.049,363.584 54.049,363.587C54.049,363.59 54.037,363.604 54.013,363.628C53.989,363.658 53.975,363.673 53.972,363.673C53.97,363.673 53.953,363.688 53.923,363.718L53.914,363.727C53.902,363.733 53.894,363.738 53.891,363.745C53.888,363.751 53.881,363.759 53.869,363.772L53.842,363.799C53.842,363.811 53.833,363.82 53.815,363.826C53.803,363.832 53.788,363.844 53.77,363.862C53.764,363.868 53.76,363.871 53.757,363.871C53.753,363.871 53.749,363.874 53.743,363.88C53.719,363.904 53.704,363.922 53.698,363.934C53.674,363.958 53.656,363.973 53.644,363.979C53.638,363.991 53.632,363.998 53.626,364.001C53.62,364.004 53.611,364.011 53.599,364.024L53.572,364.051C53.554,364.069 53.542,364.084 53.536,364.096C53.512,364.12 53.494,364.141 53.482,364.159C53.446,364.195 53.416,364.222 53.392,364.24L53.365,364.267C53.353,364.273 53.345,364.279 53.343,364.285C53.339,364.291 53.332,364.3 53.32,364.312C53.296,364.324 53.281,364.336 53.275,364.348L53.248,364.375L53.167,364.483C53.155,364.495 53.149,364.504 53.149,364.51C53.137,364.51 53.131,364.516 53.131,364.528L53.113,364.528C53.107,364.522 53.101,364.517 53.095,364.514C53.089,364.511 53.083,364.504 53.077,364.492L53.068,364.483C53.044,364.453 53.021,364.427 53,364.406C52.979,364.385 52.957,364.36 52.933,364.33L52.906,364.303C52.876,364.297 52.855,364.285 52.843,364.267C52.807,364.243 52.783,364.222 52.771,364.204C52.771,364.198 52.768,364.195 52.762,364.195L52.681,364.087L52.573,363.979C52.567,363.967 52.561,363.959 52.555,363.956C52.549,363.953 52.543,363.948 52.537,363.943C52.507,363.931 52.489,363.916 52.483,363.898C52.471,363.892 52.463,363.885 52.46,363.88C52.457,363.874 52.45,363.865 52.438,363.853C52.432,363.841 52.423,363.829 52.411,363.817C52.387,363.799 52.366,363.781 52.348,363.763C52.33,363.745 52.312,363.727 52.294,363.709C52.27,363.685 52.255,363.667 52.249,363.655L52.204,363.61C52.198,363.604 52.194,363.598 52.19,363.592C52.187,363.586 52.18,363.58 52.168,363.574C52.162,363.568 52.156,363.563 52.15,363.56C52.144,363.557 52.135,363.55 52.123,363.538C52.117,363.532 52.113,363.529 52.11,363.529C52.106,363.529 52.102,363.526 52.096,363.52C52.09,363.507 52.084,363.499 52.078,363.493C52.072,363.487 52.066,363.478 52.06,363.466L52.033,363.439C52.021,363.433 52.012,363.426 52.006,363.421C52,363.415 51.991,363.409 51.979,363.403C51.967,363.391 51.955,363.38 51.943,363.371C51.931,363.363 51.919,363.352 51.907,363.34C51.901,363.334 51.896,363.328 51.893,363.322C51.89,363.316 51.886,363.31 51.88,363.304C51.856,363.28 51.841,363.262 51.835,363.25C51.823,363.238 51.811,363.229 51.799,363.223C51.793,363.211 51.778,363.199 51.754,363.187C51.748,363.175 51.742,363.167 51.736,363.164C51.73,363.161 51.724,363.156 51.718,363.151C51.712,363.139 51.706,363.13 51.7,363.124C51.694,363.118 51.688,363.109 51.682,363.097L51.655,363.07C51.649,363.07 51.646,363.068 51.646,363.065C51.646,363.062 51.643,363.061 51.637,363.061C51.619,363.043 51.608,363.034 51.605,363.034C51.602,363.034 51.595,363.022 51.583,362.998L51.556,362.944L51.529,362.917C51.517,362.911 51.505,362.905 51.493,362.899C51.481,362.893 51.469,362.884 51.457,362.872C51.439,362.866 51.427,362.854 51.421,362.836L51.367,362.782C51.361,362.77 51.355,362.76 51.349,362.755C51.343,362.749 51.337,362.74 51.331,362.728C51.325,362.716 51.316,362.704 51.304,362.692C51.298,362.686 51.295,362.677 51.295,362.665L51.295,362.656C51.295,362.65 51.293,362.644 51.29,362.638C51.287,362.632 51.286,362.626 51.286,362.62C51.286,362.572 51.283,362.536 51.277,362.512C51.271,362.488 51.268,362.455 51.268,362.413C51.268,362.401 51.266,362.392 51.263,362.386C51.261,362.38 51.259,362.371 51.259,362.359C51.259,362.347 51.261,362.34 51.263,362.336C51.266,362.333 51.268,362.326 51.268,362.314L51.268,362.287L51.268,362.233C51.262,362.221 51.259,362.203 51.259,362.179C51.253,362.161 51.248,362.141 51.245,362.12C51.242,362.099 51.238,362.08 51.232,362.062L51.232,362.026L51.232,361.999C51.232,361.981 51.233,361.963 51.237,361.945C51.24,361.927 51.241,361.909 51.241,361.891C51.253,361.855 51.259,361.825 51.259,361.801L51.259,361.783C51.265,361.765 51.268,361.735 51.268,361.693C51.262,361.681 51.259,361.66 51.259,361.63L51.259,361.54L51.259,361.504C51.265,361.486 51.274,361.453 51.286,361.405C51.292,361.393 51.295,361.382 51.295,361.373C51.295,361.364 51.298,361.354 51.304,361.342L51.304,361.288L51.304,361.252L51.304,361.18C51.31,361.168 51.313,361.159 51.313,361.153C51.313,361.147 51.316,361.138 51.322,361.126C51.322,361.108 51.325,361.096 51.331,361.09C51.343,361.054 51.352,361.024 51.358,361C51.37,360.964 51.376,360.937 51.376,360.919C51.382,360.901 51.391,360.868 51.403,360.82C51.409,360.814 51.412,360.805 51.412,360.793C51.412,360.781 51.41,360.772 51.408,360.766C51.405,360.76 51.403,360.751 51.403,360.739L51.403,360.703L51.403,360.685C51.409,360.679 51.412,360.675 51.412,360.671C51.412,360.668 51.415,360.664 51.421,360.658C51.433,360.634 51.442,360.619 51.448,360.613L51.448,360.586C51.448,360.58 51.451,360.574 51.457,360.568L51.457,360.523C51.457,360.505 51.463,360.484 51.475,360.46L51.484,360.451L51.538,360.316C51.544,360.31 51.547,360.301 51.547,360.289C51.547,360.253 51.55,360.226 51.556,360.208C51.556,360.196 51.559,360.184 51.565,360.172C51.577,360.148 51.589,360.13 51.601,360.118L51.61,360.1L51.61,360.091L51.61,360.073C51.61,360.055 51.613,360.043 51.619,360.037L51.619,359.992C51.625,359.98 51.629,359.972 51.633,359.969C51.636,359.967 51.64,359.959 51.646,359.947C51.67,359.899 51.688,359.86 51.7,359.83C51.718,359.812 51.727,359.791 51.727,359.767C51.739,359.737 51.748,359.711 51.754,359.69C51.76,359.669 51.766,359.644 51.772,359.614C51.772,359.608 51.778,359.599 51.79,359.587C51.802,359.563 51.814,359.545 51.826,359.533C51.826,359.521 51.829,359.515 51.835,359.515L51.835,359.506L51.826,359.497C51.796,359.467 51.77,359.44 51.749,359.416C51.728,359.392 51.706,359.365 51.682,359.335C51.676,359.329 51.667,359.326 51.655,359.326L51.646,359.317C51.622,359.311 51.599,359.305 51.578,359.299C51.557,359.293 51.535,359.287 51.511,359.281C51.499,359.275 51.489,359.27 51.479,359.267C51.47,359.264 51.46,359.26 51.448,359.254C51.442,359.248 51.436,359.245 51.43,359.245C51.394,359.221 51.367,359.206 51.349,359.2C51.343,359.2 51.34,359.198 51.34,359.195C51.34,359.192 51.337,359.191 51.331,359.191C51.313,359.179 51.303,359.173 51.3,359.173C51.296,359.173 51.289,359.167 51.277,359.155C51.259,359.143 51.242,359.131 51.227,359.119C51.212,359.107 51.196,359.095 51.178,359.083C51.16,359.071 51.136,359.05 51.106,359.02L51.07,358.984C51.058,358.978 51.049,358.975 51.043,358.975C51.037,358.975 51.028,358.972 51.016,358.966L50.998,358.966C50.986,358.96 50.978,358.955 50.975,358.952C50.972,358.949 50.965,358.945 50.953,358.939C50.929,358.927 50.911,358.915 50.899,358.903C50.893,358.903 50.89,358.902 50.89,358.898C50.89,358.895 50.887,358.894 50.881,358.894C50.869,358.882 50.863,358.873 50.863,358.867C50.845,358.849 50.824,358.822 50.8,358.786C50.788,358.768 50.771,358.748 50.75,358.727C50.729,358.706 50.71,358.684 50.692,358.66L50.665,358.632C50.629,358.609 50.608,358.594 50.602,358.588C50.596,358.582 50.592,358.579 50.589,358.579C50.585,358.579 50.581,358.576 50.575,358.57C50.569,358.552 50.554,358.531 50.53,358.507L50.503,358.48C50.491,358.474 50.482,358.468 50.476,358.462C50.47,358.456 50.461,358.45 50.449,358.444C50.443,358.444 50.434,358.438 50.422,358.426C50.41,358.414 50.403,358.405 50.399,358.399C50.396,358.393 50.389,358.384 50.377,358.372C50.371,358.36 50.359,358.345 50.341,358.327L50.314,358.282L50.269,358.255C50.245,358.243 50.222,358.229 50.201,358.214C50.18,358.199 50.158,358.186 50.134,358.174C50.122,358.162 50.108,358.151 50.094,358.142C50.078,358.134 50.065,358.123 50.053,358.111C50.053,358.105 50.052,358.102 50.049,358.102C50.045,358.102 50.044,358.099 50.044,358.093C50.032,358.081 50.023,358.07 50.017,358.061C50.011,358.052 50.002,358.042 49.99,358.03C49.984,358.024 49.981,358.015 49.981,358.003C49.969,357.973 49.96,357.946 49.954,357.922C49.948,357.898 49.942,357.871 49.936,357.841L49.927,357.823L49.927,357.787L49.927,357.778C49.939,357.754 49.947,357.731 49.949,357.71C49.952,357.689 49.96,357.667 49.972,357.643C49.972,357.625 49.975,357.613 49.981,357.607C49.981,357.601 49.984,357.595 49.99,357.589L50.017,357.535C50.029,357.523 50.05,357.511 50.08,357.499C50.08,357.493 50.083,357.49 50.089,357.49C50.095,357.484 50.104,357.481 50.116,357.481C50.134,357.475 50.155,357.472 50.179,357.472C50.185,357.472 50.191,357.469 50.197,357.463C50.233,357.451 50.257,357.445 50.269,357.445C50.269,357.439 50.275,357.436 50.287,357.436L50.296,357.436C50.314,357.436 50.326,357.439 50.332,357.445C50.362,357.451 50.388,357.457 50.408,357.463C50.429,357.469 50.452,357.475 50.476,357.481L50.494,357.481C50.5,357.487 50.504,357.49 50.508,357.49C50.511,357.49 50.515,357.493 50.521,357.499L50.53,357.499C50.542,357.511 50.553,357.521 50.561,357.53C50.571,357.539 50.581,357.55 50.593,357.562C50.605,357.58 50.617,357.607 50.629,357.643C50.635,357.649 50.638,357.655 50.638,357.661C50.644,357.685 50.653,357.715 50.665,357.751L50.665,357.805C50.665,357.811 50.663,357.815 50.66,357.818C50.658,357.822 50.656,357.826 50.656,357.832L50.656,357.872C50.656,357.875 50.662,357.886 50.674,357.904L50.719,357.949C50.719,357.955 50.725,357.964 50.737,357.976C50.755,357.994 50.782,358.015 50.818,358.039C50.836,358.051 50.852,358.06 50.867,358.066C50.882,358.072 50.896,358.078 50.908,358.084C50.938,358.096 50.968,358.11 50.998,358.124C51.028,358.139 51.058,358.153 51.088,358.165L51.097,358.165C51.109,358.177 51.118,358.183 51.124,358.183L51.169,358.228C51.175,358.234 51.179,358.237 51.182,358.237C51.185,358.237 51.19,358.24 51.196,358.246C51.196,358.252 51.202,358.255 51.214,358.255L51.457,358.309C51.469,358.315 51.478,358.318 51.484,358.318C51.49,358.318 51.499,358.321 51.511,358.327C51.523,358.327 51.536,358.328 51.552,358.331C51.566,358.334 51.58,358.336 51.592,358.336L51.655,358.336C51.661,358.336 51.667,358.339 51.673,358.345C51.691,358.351 51.707,358.357 51.722,358.363C51.738,358.369 51.751,358.375 51.763,358.381L51.781,358.399C51.799,358.411 51.82,358.429 51.844,358.453C51.856,358.465 51.862,358.474 51.862,358.48C51.874,358.492 51.881,358.502 51.885,358.511C51.888,358.52 51.895,358.531 51.907,358.543C51.907,358.549 51.913,358.558 51.925,358.57C51.949,358.594 51.964,358.612 51.97,358.624C51.982,358.636 51.991,358.642 51.997,358.642C51.997,358.654 52.003,358.66 52.015,358.66L52.132,358.777C52.144,358.777 52.156,358.783 52.168,358.795L52.276,358.876C52.276,358.882 52.279,358.885 52.285,358.885L52.312,358.912C52.324,358.918 52.334,358.924 52.344,358.93C52.352,358.936 52.363,358.942 52.375,358.948L52.438,359.011C52.444,359.011 52.447,359.012 52.447,359.015C52.447,359.018 52.45,359.02 52.456,359.02C52.48,359.032 52.501,359.041 52.519,359.047C52.525,359.047 52.534,359.053 52.546,359.065C52.558,359.071 52.567,359.077 52.573,359.083C52.579,359.089 52.588,359.095 52.6,359.101C52.612,359.113 52.618,359.113 52.618,359.101C52.624,359.101 52.627,359.098 52.627,359.092C52.633,359.092 52.636,359.089 52.636,359.083C52.63,359.083 52.627,359.08 52.627,359.074C52.615,359.056 52.603,359.039 52.591,359.024C52.579,359.009 52.567,358.993 52.555,358.975L52.528,358.948C52.51,358.93 52.498,358.915 52.492,358.903C52.486,358.891 52.481,358.88 52.478,358.871C52.475,358.863 52.468,358.852 52.456,358.84L52.438,358.822C52.426,358.816 52.415,358.81 52.407,358.804C52.397,358.798 52.387,358.792 52.375,358.786C52.369,358.78 52.363,358.776 52.357,358.772C52.351,358.769 52.345,358.762 52.339,358.75C52.321,358.732 52.303,358.714 52.285,358.696C52.267,358.678 52.252,358.657 52.24,358.632C52.228,358.621 52.218,358.61 52.208,358.601C52.199,358.592 52.189,358.582 52.177,358.57L52.141,358.534L52.114,358.489C52.102,358.465 52.095,358.451 52.092,358.448C52.088,358.446 52.078,358.435 52.06,358.417C52.054,358.411 52.05,358.405 52.047,358.399C52.043,358.393 52.036,358.384 52.024,358.372C52.018,358.366 52.015,358.36 52.015,358.354C52.015,358.348 52.012,358.339 52.006,358.327L51.979,358.273C51.967,358.249 51.956,358.226 51.948,358.205C51.938,358.184 51.928,358.162 51.916,358.138L51.889,358.084C51.889,358.066 51.886,358.051 51.88,358.039C51.88,358.027 51.874,358.009 51.862,357.985C51.838,357.943 51.817,357.903 51.799,357.863C51.781,357.824 51.76,357.784 51.736,357.742L51.736,357.733C51.736,357.727 51.734,357.724 51.731,357.724C51.728,357.724 51.727,357.721 51.727,357.715L51.727,357.688C51.733,357.646 51.734,357.607 51.731,357.571C51.728,357.535 51.727,357.496 51.727,357.454L51.727,357.409C51.733,357.391 51.736,357.367 51.736,357.337L51.736,357.319C51.73,357.319 51.727,357.318 51.727,357.314C51.727,357.311 51.724,357.31 51.718,357.31C51.712,357.304 51.707,357.298 51.704,357.292C51.701,357.286 51.697,357.28 51.691,357.274C51.685,357.274 51.676,357.259 51.664,357.229C51.658,357.217 51.655,357.208 51.655,357.202C51.655,357.196 51.652,357.19 51.646,357.184C51.64,357.178 51.637,357.174 51.637,357.17C51.637,357.167 51.634,357.163 51.628,357.157C51.61,357.139 51.598,357.124 51.592,357.112C51.586,357.112 51.58,357.109 51.574,357.103L51.574,357.094C51.568,357.076 51.565,357.052 51.565,357.022C51.559,357.016 51.556,357.004 51.556,356.986L51.556,356.941C51.556,356.911 51.553,356.89 51.547,356.878L51.547,356.86C51.541,356.836 51.538,356.822 51.538,356.819C51.538,356.816 51.544,356.806 51.556,356.788C51.58,356.752 51.61,356.71 51.646,356.662L51.655,356.653C51.679,356.617 51.7,356.593 51.718,356.581C51.718,356.575 51.724,356.572 51.736,356.572L51.736,356.563L51.925,356.509L51.943,356.509C51.967,356.515 51.997,356.524 52.033,356.536C52.039,356.536 52.048,356.542 52.06,356.554C52.084,356.566 52.105,356.581 52.123,356.599C52.129,356.599 52.138,356.605 52.15,356.617C52.18,356.653 52.199,356.677 52.208,356.689C52.218,356.701 52.234,356.728 52.258,356.77C52.264,356.776 52.267,356.785 52.267,356.797L52.267,356.923C52.255,356.953 52.247,356.983 52.244,357.013C52.242,357.043 52.234,357.073 52.222,357.103C52.222,357.121 52.216,357.142 52.204,357.166C52.204,357.178 52.201,357.187 52.195,357.193L52.204,357.202C52.21,357.214 52.219,357.226 52.231,357.238C52.255,357.256 52.285,357.289 52.321,357.337L52.339,357.355C52.345,357.367 52.351,357.381 52.357,357.395C52.363,357.41 52.369,357.427 52.375,357.445C52.375,357.451 52.376,357.455 52.379,357.458C52.383,357.461 52.384,357.466 52.384,357.472C52.39,357.484 52.393,357.491 52.393,357.494C52.393,357.497 52.396,357.505 52.402,357.517C52.414,357.553 52.426,357.583 52.438,357.607L52.438,357.616C52.462,357.664 52.48,357.703 52.492,357.733C52.492,357.739 52.493,357.743 52.496,357.746C52.499,357.749 52.501,357.757 52.501,357.769C52.507,357.769 52.51,357.77 52.51,357.773C52.51,357.777 52.513,357.778 52.519,357.778L52.537,357.796L52.591,357.823C52.603,357.835 52.609,357.844 52.609,357.85C52.621,357.862 52.628,357.871 52.632,357.877C52.635,357.883 52.642,357.892 52.654,357.904C52.66,357.91 52.663,357.916 52.663,357.922C52.663,357.928 52.669,357.931 52.681,357.931L52.753,358.003C52.759,358.015 52.763,358.027 52.766,358.039C52.769,358.051 52.774,358.063 52.78,358.075C52.78,358.081 52.786,358.09 52.798,358.102C52.828,358.126 52.847,358.141 52.856,358.147C52.866,358.153 52.885,358.168 52.915,358.192C52.927,358.198 52.942,358.21 52.96,358.228C52.984,358.24 53.005,358.253 53.023,358.268C53.041,358.283 53.062,358.297 53.086,358.309C53.098,358.321 53.116,358.333 53.14,358.345L53.194,358.372C53.218,358.384 53.233,358.39 53.239,358.39C53.263,358.402 53.284,358.411 53.302,358.417L53.338,358.417C53.38,358.417 53.41,358.414 53.428,358.408L53.446,358.408C53.464,358.408 53.476,358.405 53.482,358.399C53.506,358.393 53.53,358.384 53.554,358.372L53.608,358.345C53.62,358.321 53.629,358.306 53.635,358.3C53.647,358.276 53.655,358.264 53.658,358.264C53.66,358.264 53.674,358.258 53.698,358.246C53.704,358.24 53.71,358.237 53.716,358.237C53.722,358.237 53.728,358.234 53.734,358.228C53.74,358.228 53.749,358.222 53.761,358.21C53.779,358.186 53.798,358.162 53.82,358.138C53.841,358.114 53.86,358.087 53.878,358.057C53.89,358.045 53.899,358.033 53.905,358.021C53.911,358.009 53.917,357.997 53.923,357.985C53.935,357.973 53.942,357.967 53.946,357.967C53.949,357.967 53.956,357.961 53.968,357.949C53.98,357.943 53.989,357.937 53.995,357.931C54.001,357.925 54.01,357.919 54.022,357.913C54.034,357.913 54.04,357.907 54.04,357.895C54.046,357.883 54.052,357.875 54.058,357.872C54.064,357.869 54.07,357.862 54.076,357.85C54.082,357.838 54.088,357.829 54.094,357.823C54.1,357.817 54.106,357.808 54.112,357.796C54.136,357.772 54.151,357.754 54.157,357.742C54.163,357.73 54.169,357.719 54.175,357.71C54.181,357.701 54.187,357.691 54.193,357.679C54.205,357.643 54.211,357.622 54.211,357.616C54.223,357.58 54.229,357.556 54.229,357.544C54.253,357.507 54.268,357.487 54.274,357.481L54.283,357.472C54.295,357.448 54.301,357.433 54.301,357.427L54.31,357.418C54.322,357.394 54.331,357.37 54.337,357.346C54.343,357.322 54.352,357.298 54.364,357.274C54.364,357.262 54.366,357.253 54.368,357.247C54.371,357.241 54.373,357.232 54.373,357.22C54.385,357.184 54.391,357.16 54.391,357.148C54.397,357.136 54.4,357.121 54.4,357.103C54.4,357.091 54.401,357.079 54.405,357.067C54.408,357.055 54.409,357.043 54.409,357.031C54.409,357.019 54.41,357.01 54.413,357.004C54.416,356.998 54.418,356.989 54.418,356.977C54.43,356.953 54.436,356.932 54.436,356.914L54.436,356.896C54.43,356.884 54.418,356.869 54.4,356.851C54.394,356.839 54.388,356.83 54.382,356.824C54.376,356.818 54.37,356.809 54.364,356.797C54.346,356.767 54.325,356.734 54.301,356.698C54.295,356.692 54.292,356.687 54.292,356.684C54.292,356.681 54.289,356.677 54.283,356.671L54.283,356.653L54.283,356.572L54.283,356.554L54.283,356.536C54.289,356.524 54.292,356.513 54.292,356.504C54.292,356.495 54.295,356.485 54.301,356.473L54.337,356.401L54.355,356.382C54.367,356.371 54.376,356.363 54.382,356.36C54.388,356.357 54.397,356.35 54.409,356.338L54.427,356.32L54.436,356.32C54.46,356.308 54.481,356.296 54.499,356.284C54.517,356.272 54.535,356.26 54.553,356.248C54.565,356.248 54.571,356.245 54.571,356.239L54.598,356.239L54.616,356.23L54.652,356.23C54.682,356.23 54.712,356.227 54.742,356.221C54.754,356.221 54.761,356.219 54.764,356.216C54.767,356.213 54.775,356.212 54.787,356.212C54.799,356.206 54.806,356.204 54.809,356.207C54.812,356.21 54.817,356.212 54.823,356.212L54.904,356.239C54.91,356.239 54.914,356.24 54.917,356.243C54.92,356.246 54.928,356.248 54.94,356.248C54.958,356.272 54.982,356.287 55.012,356.293C55.024,356.305 55.034,356.317 55.043,356.329C55.053,356.341 55.063,356.353 55.075,356.365L55.084,356.365C55.096,356.377 55.102,356.392 55.102,356.41C55.114,356.422 55.12,356.437 55.12,356.455C55.132,356.467 55.138,356.479 55.138,356.491L55.138,356.608C55.132,356.62 55.129,356.632 55.129,356.644C55.129,356.656 55.126,356.668 55.12,356.68C55.114,356.71 55.111,356.728 55.111,356.734C55.111,356.74 55.105,356.749 55.093,356.761C55.081,356.773 55.074,356.786 55.071,356.801C55.067,356.816 55.06,356.833 55.048,356.851C55.048,356.857 55.046,356.862 55.043,356.864C55.04,356.867 55.039,356.872 55.039,356.878C55.039,356.884 55.037,356.887 55.034,356.887C55.032,356.887 55.03,356.89 55.03,356.896C55.018,356.908 55.011,356.918 55.008,356.927C55.004,356.936 54.997,356.947 54.985,356.959C54.979,356.965 54.973,356.968 54.967,356.968C54.943,356.98 54.928,356.986 54.922,356.986C54.916,356.992 54.91,356.995 54.904,356.995L54.886,357.013L54.886,357.022C54.886,357.034 54.885,357.043 54.882,357.049C54.878,357.055 54.877,357.064 54.877,357.076C54.877,357.088 54.875,357.1 54.872,357.112C54.869,357.124 54.871,357.136 54.877,357.148L54.877,357.238C54.871,357.256 54.868,357.274 54.868,357.292C54.868,357.31 54.865,357.325 54.859,357.337C54.853,357.361 54.844,357.391 54.832,357.427C54.832,357.439 54.83,357.448 54.827,357.454C54.824,357.46 54.823,357.466 54.823,357.472C54.817,357.484 54.812,357.496 54.809,357.507C54.806,357.52 54.802,357.532 54.796,357.544C54.796,357.55 54.794,357.554 54.791,357.557C54.788,357.56 54.787,357.565 54.787,357.571L54.787,357.634L54.76,357.823C54.76,357.841 54.757,357.856 54.751,357.868C54.751,357.874 54.749,357.878 54.746,357.881C54.743,357.884 54.742,357.889 54.742,357.895L54.715,357.949C54.703,357.973 54.694,357.994 54.688,358.012C54.688,358.03 54.685,358.045 54.679,358.057C54.679,358.069 54.676,358.078 54.67,358.084L54.661,358.093C54.649,358.111 54.634,358.126 54.616,358.138C54.61,358.144 54.607,358.148 54.607,358.151C54.607,358.154 54.604,358.159 54.598,358.165L54.589,358.183C54.589,358.189 54.587,358.193 54.584,358.197C54.581,358.199 54.58,358.207 54.58,358.219C54.58,358.225 54.578,358.231 54.576,358.237C54.573,358.243 54.571,358.249 54.571,358.255L54.553,358.291C54.529,358.315 54.511,358.33 54.499,358.336C54.487,358.348 54.481,358.355 54.481,358.358C54.481,358.362 54.478,358.369 54.472,358.381L54.445,358.435C54.439,358.447 54.434,358.454 54.431,358.457C54.429,358.46 54.424,358.468 54.418,358.48C54.388,358.534 54.355,358.582 54.319,358.624L54.292,358.651L54.238,358.705C54.226,358.717 54.22,358.726 54.22,358.732C54.214,358.744 54.208,358.754 54.202,358.763C54.196,358.772 54.19,358.783 54.184,358.795C54.178,358.801 54.174,358.807 54.17,358.813C54.167,358.819 54.163,358.825 54.157,358.831L54.148,358.84C54.142,358.852 54.13,358.867 54.112,358.885C54.112,358.909 54.109,358.927 54.103,358.939C54.103,358.951 54.101,358.965 54.098,358.979C54.095,358.994 54.094,359.008 54.094,359.02C54.088,359.026 54.085,359.032 54.085,359.038L54.094,359.038C54.1,359.038 54.106,359.035 54.112,359.029C54.136,359.005 54.157,358.987 54.175,358.975C54.187,358.963 54.199,358.957 54.211,358.957L54.229,358.939C54.253,358.927 54.266,358.919 54.269,358.916C54.272,358.913 54.283,358.9 54.301,358.876C54.331,358.858 54.349,358.837 54.355,358.813L54.373,358.795C54.379,358.777 54.391,358.765 54.409,358.759C54.433,358.735 54.449,358.72 54.458,358.714C54.468,358.708 54.487,358.699 54.517,358.687C54.529,358.675 54.541,358.669 54.553,358.669C54.577,358.657 54.601,358.648 54.625,358.642C54.649,358.636 54.673,358.627 54.697,358.615C54.709,358.609 54.718,358.606 54.724,358.606C54.73,358.606 54.739,358.603 54.751,358.597C54.781,358.591 54.806,358.585 54.827,358.579C54.848,358.573 54.871,358.564 54.895,358.552L54.931,358.534C54.943,358.528 54.953,358.522 54.962,358.516C54.972,358.51 54.982,358.504 54.994,358.498C55,358.492 55.009,358.489 55.021,358.489L55.084,358.489C55.096,358.489 55.105,358.488 55.111,358.484C55.117,358.481 55.123,358.48 55.129,358.48L55.165,358.462C55.189,358.45 55.213,358.443 55.237,358.439C55.261,358.436 55.285,358.432 55.309,358.426C55.315,358.426 55.319,358.425 55.323,358.421C55.326,358.418 55.33,358.417 55.336,358.417L55.381,358.417C55.393,358.411 55.4,358.408 55.404,358.408C55.407,358.408 55.414,358.402 55.426,358.39C55.438,358.378 55.447,358.37 55.453,358.367C55.459,358.364 55.468,358.357 55.48,358.345C55.486,358.345 55.489,358.343 55.489,358.34C55.489,358.337 55.492,358.336 55.498,358.336C55.51,358.336 55.52,358.334 55.53,358.331C55.538,358.328 55.549,358.327 55.561,358.327C55.573,358.321 55.586,358.318 55.601,358.318C55.617,358.318 55.63,358.315 55.642,358.309C55.654,358.303 55.678,358.294 55.714,358.282L55.786,358.246C55.792,358.24 55.807,358.231 55.831,358.219C55.861,358.207 55.886,358.195 55.908,358.183C55.929,358.171 55.951,358.156 55.975,358.138L56.029,358.111C56.065,358.099 56.089,358.093 56.101,358.093C56.107,358.087 56.111,358.084 56.115,358.084C56.117,358.084 56.122,358.081 56.128,358.075C56.14,358.063 56.154,358.052 56.168,358.043C56.183,358.034 56.197,358.024 56.209,358.012L56.218,357.994L56.218,357.949C56.218,357.907 56.221,357.874 56.227,357.85L56.227,357.778C56.227,357.766 56.23,357.757 56.236,357.751L56.236,357.742C56.242,357.73 56.246,357.715 56.249,357.697C56.252,357.679 56.26,357.664 56.272,357.652C56.296,357.616 56.311,357.589 56.317,357.571C56.323,357.565 56.326,357.56 56.326,357.557C56.326,357.554 56.329,357.55 56.335,357.544C56.347,357.532 56.359,357.523 56.371,357.517C56.383,357.511 56.395,357.502 56.407,357.49C56.413,357.49 56.417,357.488 56.42,357.485C56.424,357.482 56.428,357.481 56.434,357.481C56.452,357.475 56.471,357.469 56.492,357.463C56.513,357.457 56.533,357.451 56.551,357.445C56.575,357.433 56.596,357.427 56.614,357.427C56.62,357.421 56.635,357.418 56.659,357.418C56.671,357.424 56.68,357.427 56.686,357.427C56.692,357.427 56.701,357.43 56.713,357.436L56.731,357.436C56.737,357.436 56.742,357.437 56.744,357.44C56.747,357.444 56.752,357.445 56.758,357.445C56.77,357.451 56.783,357.457 56.799,357.463C56.813,357.469 56.827,357.475 56.839,357.481C56.845,357.481 56.849,357.482 56.852,357.485C56.855,357.488 56.86,357.49 56.866,357.49C56.89,357.526 56.908,357.55 56.92,357.562C56.926,357.568 56.929,357.572 56.929,357.575C56.929,357.578 56.932,357.583 56.938,357.589C56.938,357.595 56.944,357.61 56.956,357.634L56.992,357.706C56.998,357.712 57.007,357.727 57.019,357.751C57.025,357.757 57.028,357.763 57.028,357.769L57.028,357.841C57.028,357.865 57.025,357.889 57.019,357.913L57.019,357.931C57.019,357.949 57.017,357.966 57.014,357.98C57.011,357.995 57.01,358.009 57.01,358.021C57.004,358.033 57.001,358.04 57.001,358.043C57.001,358.047 56.998,358.054 56.992,358.066C56.992,358.078 56.986,358.09 56.974,358.102C56.962,358.126 56.95,358.148 56.938,358.169C56.926,358.19 56.914,358.21 56.902,358.228L56.884,358.246C56.872,358.258 56.862,358.265 56.852,358.268C56.844,358.271 56.833,358.279 56.821,358.291C56.815,358.291 56.809,358.294 56.803,358.3C56.785,358.306 56.764,358.315 56.74,358.327C56.728,358.327 56.72,358.328 56.718,358.331C56.714,358.334 56.707,358.336 56.695,358.336L56.65,358.336C56.644,358.336 56.638,358.339 56.632,358.345L56.623,358.345C56.599,358.363 56.569,358.384 56.533,358.408C56.521,358.42 56.507,358.43 56.492,358.439C56.477,358.448 56.464,358.459 56.452,358.471L56.425,358.498C56.413,358.522 56.398,358.543 56.38,358.561C56.368,358.573 56.356,358.582 56.344,358.588C56.332,358.6 56.323,358.607 56.317,358.61C56.311,358.613 56.302,358.621 56.29,358.632C56.278,358.632 56.272,358.639 56.272,358.651L56.245,358.705C56.239,358.717 56.23,358.729 56.218,358.741C56.212,358.753 56.206,358.762 56.2,358.768C56.194,358.774 56.188,358.783 56.182,358.795C56.176,358.801 56.171,358.804 56.168,358.804C56.165,358.804 56.161,358.807 56.155,358.813C56.125,358.825 56.099,358.834 56.078,358.84C56.057,358.846 56.032,358.855 56.002,358.867C55.99,358.873 55.979,358.877 55.97,358.88C55.961,358.884 55.951,358.891 55.939,358.903C55.927,358.909 55.916,358.913 55.908,358.916C55.898,358.919 55.888,358.924 55.876,358.93L55.822,358.984C55.81,358.996 55.8,359.005 55.79,359.011C55.782,359.017 55.771,359.026 55.759,359.038C55.735,359.05 55.717,359.062 55.705,359.074C55.681,359.086 55.663,359.092 55.651,359.092L55.543,359.146L55.516,359.164L55.462,359.218L55.444,359.236C55.432,359.242 55.422,359.246 55.412,359.249C55.404,359.252 55.393,359.257 55.381,359.263C55.369,359.263 55.354,359.272 55.336,359.29C55.324,359.296 55.316,359.301 55.313,359.303C55.31,359.306 55.303,359.311 55.291,359.317M57.037,359.47C57.031,359.482 57.028,359.503 57.028,359.533C57.016,359.569 57.01,359.593 57.01,359.605C56.998,359.641 56.992,359.674 56.992,359.704C56.992,359.722 56.991,359.741 56.988,359.762C56.984,359.783 56.983,359.803 56.983,359.821C56.977,359.845 56.972,359.866 56.97,359.884C56.966,359.902 56.962,359.923 56.956,359.947C56.956,359.953 56.954,359.959 56.951,359.965C56.949,359.971 56.947,359.98 56.947,359.992L56.947,360.019C56.947,360.079 56.944,360.121 56.938,360.145L56.938,360.172C56.932,360.196 56.929,360.218 56.929,360.239C56.929,360.26 56.926,360.283 56.92,360.307L56.92,360.379C56.92,360.403 56.917,360.427 56.911,360.451L56.911,360.577C56.911,360.613 56.908,360.64 56.902,360.658L56.902,360.955C56.908,360.985 56.911,361.027 56.911,361.081L56.911,361.099C56.905,361.123 56.903,361.145 56.907,361.166C56.909,361.187 56.911,361.207 56.911,361.225C56.911,361.243 56.914,361.255 56.92,361.261L56.92,361.288C56.926,361.312 56.929,361.351 56.929,361.405L56.929,361.45C56.929,361.462 56.926,361.468 56.92,361.468L56.911,361.477C56.887,361.489 56.872,361.495 56.866,361.495C56.854,361.501 56.844,361.507 56.834,361.513C56.826,361.519 56.815,361.525 56.803,361.531C56.779,361.543 56.756,361.558 56.736,361.576C56.714,361.594 56.695,361.609 56.677,361.621C56.665,361.627 56.653,361.636 56.641,361.648L56.515,361.774L56.497,361.792C56.485,361.804 56.476,361.816 56.47,361.828C56.464,361.84 56.455,361.852 56.443,361.864C56.437,361.87 56.434,361.874 56.434,361.877C56.434,361.881 56.431,361.885 56.425,361.891C56.413,361.915 56.398,361.939 56.38,361.963C56.362,361.987 56.347,362.014 56.335,362.044L56.317,362.08C56.293,362.158 56.26,362.242 56.218,362.332C56.206,362.356 56.2,362.374 56.2,362.386C56.194,362.416 56.188,362.441 56.182,362.462C56.176,362.484 56.167,362.509 56.155,362.539C56.155,362.551 56.154,362.563 56.151,362.575C56.147,362.587 56.146,362.599 56.146,362.611C56.146,362.629 56.143,362.644 56.137,362.656C56.137,362.662 56.134,362.665 56.128,362.665C56.128,362.659 56.125,362.656 56.119,362.656C56.113,362.65 56.108,362.644 56.105,362.638C56.102,362.632 56.098,362.626 56.092,362.62L56.056,362.584L55.948,362.476C55.936,362.464 55.926,362.455 55.916,362.449C55.908,362.443 55.897,362.434 55.885,362.422C55.873,362.41 55.849,362.392 55.813,362.368C55.795,362.356 55.778,362.344 55.763,362.332C55.748,362.32 55.735,362.308 55.723,362.296C55.699,362.284 55.685,362.277 55.682,362.273C55.679,362.27 55.669,362.263 55.651,362.251L55.543,362.197L55.489,362.17C55.465,361.894 55.439,361.649 55.412,361.436C55.386,361.223 55.359,361.039 55.331,360.882C55.304,360.727 55.276,360.595 55.246,360.487C55.216,360.379 55.189,360.292 55.165,360.226L55.201,360.226C55.219,360.22 55.246,360.217 55.282,360.217C55.294,360.211 55.306,360.208 55.318,360.208C55.33,360.208 55.342,360.205 55.354,360.199C55.378,360.193 55.399,360.19 55.417,360.19C55.435,360.19 55.456,360.187 55.48,360.181C55.498,360.175 55.514,360.172 55.53,360.172C55.544,360.172 55.561,360.169 55.579,360.163C55.627,360.151 55.666,360.142 55.696,360.136C55.708,360.13 55.723,360.127 55.741,360.127L55.885,360.091C55.909,360.091 55.939,360.085 55.975,360.073C55.987,360.073 55.994,360.072 55.997,360.068C56,360.065 56.008,360.064 56.02,360.064C56.026,360.058 56.035,360.055 56.047,360.055C56.059,360.049 56.074,360.044 56.092,360.041C56.11,360.038 56.125,360.034 56.137,360.028L56.146,360.028C56.158,360.022 56.17,360.019 56.182,360.019C56.194,360.019 56.206,360.013 56.218,360.001C56.248,359.989 56.287,359.977 56.335,359.965C56.359,359.959 56.383,359.947 56.407,359.929C56.425,359.917 56.444,359.905 56.466,359.893C56.487,359.881 56.506,359.869 56.524,359.857C56.548,359.845 56.566,359.833 56.578,359.821C56.59,359.815 56.608,359.8 56.632,359.776C56.65,359.764 56.671,359.752 56.695,359.74C56.707,359.728 56.725,359.716 56.749,359.704C56.749,359.698 56.755,359.689 56.767,359.677C56.779,359.665 56.803,359.647 56.839,359.623C56.869,359.599 56.896,359.576 56.92,359.555C56.944,359.534 56.971,359.509 57.001,359.479C57.007,359.473 57.01,359.468 57.01,359.465C57.01,359.462 57.016,359.458 57.028,359.452L57.037,359.452L57.037,359.47Z" style="fill-rule:nonzero;"/>
        </g>
    </g>
</svg>
