<?xml version="1.0" encoding="UTF-8" standalone="no"?>
<!DOCTYPE svg PUBLIC "-//W3C//DTD SVG 1.1//EN" "http://www.w3.org/Graphics/SVG/1.1/DTD/svg11.dtd">
<svg width="100%" height="100%" viewBox="0 0 15 34" version="1.1" xmlns="http://www.w3.org/2000/svg" xmlns:xlink="http://www.w3.org/1999/xlink" xml:space="preserve" style="fill-rule:evenodd;clip-rule:evenodd;stroke-linejoin:round;stroke-miterlimit:1.41421;">
    <g transform="matrix(0.466096,0,0,0.553667,-32.2473,-307.476)">
        <path d="M99.186,580.115L99.186,580.256L98.225,583.256C98.366,583.631 97.827,584.85 97.827,585.037C97.827,585.287 96.913,587.287 95.085,591.037C94.272,592.444 93.866,593.303 93.866,593.615C93.866,593.615 92.647,594.85 92.647,595.397C92.522,595.397 89.788,595.537 89.788,595.537C89.6,595.537 89.506,595.483 89.506,595.373C89.335,595.483 89.194,595.537 89.085,595.537L88.827,595.397C88.655,595.49 88.514,595.537 88.405,595.537L88.405,595.373C87.952,595.576 87.592,595.678 87.327,595.678C87.155,595.584 87.014,595.537 86.905,595.537L86.905,595.678C86.827,595.678 86.788,595.631 86.788,595.537C85.694,595.6 85.147,595.694 85.147,595.819L84.96,595.725C84.96,595.725 84.881,595.756 84.725,595.819C84.631,595.819 84.585,595.772 84.585,595.678C83.897,595.772 83.444,595.858 83.225,595.936L83.225,595.842C82.413,595.905 82.006,595.983 82.006,596.076L81.725,595.936C81.522,595.936 81.342,595.983 81.186,596.076C81.03,595.983 80.85,595.936 80.647,595.936L80.647,596.076L80.366,595.936C79.366,595.998 78.866,596.092 78.866,596.217L79.053,596.311C78.663,596.311 78.467,596.28 78.467,596.217C78.374,596.217 78.327,596.17 78.327,596.076C75.577,596.67 73.53,597.444 72.186,598.397C71.249,598.912 70.295,599.592 69.327,600.436L69.186,600.178L69.186,599.897L69.233,599.92L69.233,599.897C69.202,599.897 69.186,599.803 69.186,599.615L69.186,598.936L71.085,594.037C71.631,592.256 72.092,591.03 72.467,590.358C72.639,589.655 72.725,589.108 72.725,588.717C72.46,588.717 73.545,587.373 73.545,586.936C73.999,585.764 74.413,585.178 74.788,585.178L74.905,585.178C75.295,585.303 76.21,585.803 77.647,586.678C78.272,586.944 78.585,587.131 78.585,587.24L78.866,587.076L79.147,587.217C79.241,587.217 79.374,587.17 79.545,587.076C80.17,587.17 80.67,587.217 81.045,587.217L81.467,587.217L81.725,587.381L81.725,587.217C81.819,587.217 81.866,587.217 81.866,587.217C82.022,587.28 82.163,587.28 82.288,587.217C82.491,587.217 82.67,587.264 82.827,587.358C88.264,587.17 91.311,586.803 91.967,586.256C93.889,585.35 95.116,584.725 95.647,584.381C96.35,583.194 97.53,581.772 99.186,580.115Z" style="fill-rule:nonzero;"/>
    </g>
</svg>
