<?xml version="1.0" encoding="UTF-8" standalone="no"?>
<!DOCTYPE svg PUBLIC "-//W3C//DTD SVG 1.1//EN" "http://www.w3.org/Graphics/SVG/1.1/DTD/svg11.dtd">
<svg width="100%" height="100%" viewBox="0 0 20 34" version="1.1" xmlns="http://www.w3.org/2000/svg" xmlns:xlink="http://www.w3.org/1999/xlink" xml:space="preserve" style="fill-rule:evenodd;clip-rule:evenodd;stroke-linejoin:round;stroke-miterlimit:1.41421;">
    <g transform="matrix(0.52301,0,0,0.45073,-51.2623,-245.372)">
        <path d="M120.374,571.678C120.624,571.678 120.905,571.764 121.217,571.936C121.233,571.764 121.319,571.678 121.475,571.678L121.616,571.678C121.694,571.678 121.733,571.725 121.733,571.819L122.014,571.678L122.413,571.678C122.6,571.709 122.694,571.795 122.694,571.936L122.155,572.498L122.155,572.615C122.155,572.709 122.202,572.756 122.295,572.756L121.733,575.217L121.874,575.217C121.811,575.373 121.725,576.006 121.616,577.115L121.733,577.115C121.655,577.303 121.616,577.444 121.616,577.537C121.616,578.115 121.569,579.295 121.475,581.076L121.616,581.076C121.444,582.326 121.514,582.795 121.827,582.483C121.436,582.483 121.366,582.694 121.616,583.115C121.428,583.147 121.335,583.24 121.335,583.397L121.733,583.678L122.014,583.537L122.014,583.678C123.374,583.459 124.053,583.319 124.053,583.256C124.147,583.256 124.194,583.303 124.194,583.397L128.694,582.576C128.788,582.576 128.835,582.623 128.835,582.717L129.514,582.576L133.733,582.576C134.483,582.576 134.944,582.897 135.116,583.537L135.233,584.358L135.233,584.615L134.295,585.998C133.811,587.28 132.85,588.912 131.413,590.897C128.881,594.412 127.626,595.259 126.77,596.217C125.848,597.248 125.835,597.022 125.835,597.178L125.835,597.319L125.694,597.319C124.975,596.756 124.616,595.842 124.616,594.576C124.116,593.576 123.569,593.076 122.975,593.076L122.694,593.076C122.6,593.076 122.553,593.123 122.553,593.217C122.46,593.217 122.413,593.17 122.413,593.076C121.522,593.076 120.936,593.53 120.655,594.436L120.913,596.217L120.795,596.217C120.795,596.842 120.932,596.962 121.335,598.936C121.475,599.624 121.982,600.877 121.874,602.358C121.829,602.418 121.786,602.476 121.745,602.53C120.736,603.871 120.761,603.474 120.116,603.82C118.772,605.179 118.577,604.975 117.374,605.615C116.467,606.365 115.467,606.959 114.374,607.397C114.374,607.584 113.647,607.905 112.194,608.358C112.194,608.576 112.014,608.709 111.655,608.756L111.655,608.733C111.561,608.733 111.514,608.694 111.514,608.615C111.481,608.657 111.131,608.996 111.131,608.358C111.131,608.201 111.1,607.326 111.913,606.576C112.006,606.264 112.053,606.084 112.053,606.037C111.96,605.412 111.913,604.912 111.913,604.537L112.053,604.537L111.913,604.256C111.913,604.194 111.96,603.92 112.053,603.436L111.913,603.178C112.1,602.881 112.194,602.608 112.194,602.358L112.194,601.819C112.194,601.725 112.147,601.678 112.053,601.678L112.194,601.397L112.194,599.897C112.194,599.709 112.249,599.53 112.358,599.358C112.249,599.186 112.194,599.045 112.194,598.936L112.358,598.678C112.249,598.506 112.194,598.319 112.194,598.115L112.335,598.115L112.194,597.858L112.194,597.717C112.194,597.514 112.241,597.334 112.335,597.178C112.335,597.084 112.288,597.037 112.194,597.037C112.288,596.131 112.381,595.678 112.475,595.678C112.288,595.334 112.194,594.967 112.194,594.576L112.194,594.037C111.71,594.037 110.928,594.131 109.85,594.319L109.592,594.178L105.233,594.998L105.233,594.858L104.014,595.397L104.014,595.256C102.811,595.803 101.811,596.17 101.014,596.358L101.014,596.498L100.475,596.498C100.381,596.498 100.475,596.592 100.475,596.498C100.116,596.545 99.655,596.725 99.374,597.319L98.295,597.717L98.155,597.717C98.155,597.451 98.108,597.319 98.014,597.319C98.155,596.725 98.975,595.256 98.975,595.256C98.975,595.256 99.913,594.045 99.913,593.498C100.069,593.498 100.491,592.889 101.178,591.67C101.178,591.67 102.319,589.67 103.194,587.498C103.288,587.498 103.381,587.358 103.475,587.076C103.272,586.53 104.014,585.436 104.014,585.436C104.639,584.623 105.006,584.217 105.116,584.217C105.366,584.217 106.381,584.319 106.194,584.615C106.288,584.615 106.335,584.662 106.335,584.756C106.803,584.584 107.163,584.498 107.413,584.498L107.694,584.615C108.428,584.412 108.795,584.28 108.795,584.217C108.874,584.217 108.913,584.264 108.913,584.358L109.874,584.217L110.155,584.217C110.249,584.217 110.295,584.264 110.295,584.358L110.835,584.076L111.678,584.217L111.795,583.936L112.053,584.076L112.194,584.076C112.335,584.076 112.514,583.709 112.733,582.975C112.655,582.162 112.569,581.756 112.475,581.756L112.616,581.498L112.616,581.358L112.475,581.076L112.194,581.217L112.053,581.217L111.655,580.936L109.733,580.936C109.655,580.936 109.295,581.03 108.655,581.217L108.514,580.936L108.514,580.537C109.327,579.725 109.733,579.272 109.733,579.178C109.733,579.178 110.444,578.358 110.694,578.358C111.725,576.733 112.405,575.865 112.733,575.756C114.42,574.037 116.881,572.725 120.116,571.819L120.374,571.912L120.374,571.678Z" style="fill-rule:nonzero;"/>
    </g>
</svg>
