<?xml version="1.0" encoding="UTF-8" standalone="no"?>
<!DOCTYPE svg PUBLIC "-//W3C//DTD SVG 1.1//EN" "http://www.w3.org/Graphics/SVG/1.1/DTD/svg11.dtd">
<svg width="100%" height="100%" viewBox="0 0 25 35" version="1.1" xmlns="http://www.w3.org/2000/svg" xmlns:xlink="http://www.w3.org/1999/xlink" xml:space="preserve" style="fill-rule:evenodd;clip-rule:evenodd;stroke-linejoin:round;stroke-miterlimit:1.41421;">
    <g transform="matrix(1,0,0,1,-331.267,-351.609)">
        <g transform="matrix(4.16667,0,0,4.16667,242.686,-1132.72)">
            <path d="M27.026,362.103C27.032,362.115 27.035,362.136 27.035,362.166C27.041,362.232 27.026,362.304 26.99,362.382C26.972,362.4 26.951,362.427 26.927,362.463C26.909,362.487 26.889,362.51 26.868,362.531C26.847,362.552 26.828,362.574 26.81,362.598C26.792,362.61 26.774,362.628 26.756,362.652C26.726,362.694 26.687,362.7 26.639,362.67C26.627,362.658 26.612,362.649 26.594,362.643C26.576,362.637 26.561,362.628 26.549,362.616C26.519,362.604 26.495,362.595 26.477,362.589C26.459,362.583 26.438,362.577 26.414,362.571C26.306,362.511 26.186,362.475 26.054,362.463L25.739,362.463C25.631,362.463 25.508,362.466 25.37,362.472C25.274,362.472 25.19,362.484 25.118,362.508C25.1,362.508 25.084,362.511 25.068,362.517C25.053,362.523 25.037,362.532 25.019,362.544C24.995,362.55 24.977,362.571 24.965,362.607L24.929,362.787C24.911,362.853 24.911,362.91 24.929,362.958C24.935,362.982 24.941,363.003 24.947,363.021C24.953,363.039 24.959,363.06 24.965,363.084C24.977,363.096 24.986,363.102 24.992,363.102C25.022,363.096 25.052,363.092 25.082,363.089C25.112,363.085 25.142,363.084 25.172,363.084C25.19,363.078 25.205,363.087 25.217,363.111C25.229,363.135 25.241,363.156 25.253,363.174C25.253,363.18 25.259,363.189 25.271,363.201C25.283,363.231 25.295,363.234 25.307,363.21C25.313,363.21 25.322,363.204 25.334,363.192L25.352,363.183C25.37,363.171 25.385,363.177 25.397,363.201C25.397,363.219 25.399,363.237 25.401,363.255C25.404,363.273 25.406,363.291 25.406,363.309C25.406,363.345 25.418,363.387 25.442,363.435C25.472,363.483 25.493,363.54 25.505,363.606C25.517,363.672 25.529,363.741 25.541,363.813C25.559,363.843 25.541,363.867 25.487,363.885C25.481,363.891 25.473,363.895 25.464,363.899C25.456,363.902 25.448,363.906 25.442,363.912C25.43,363.918 25.418,363.933 25.406,363.957C25.406,363.975 25.4,363.987 25.388,363.993C25.358,364.017 25.331,364.039 25.307,364.06C25.283,364.081 25.256,364.101 25.226,364.119C25.214,364.131 25.205,364.137 25.199,364.137C25.187,364.149 25.175,364.146 25.163,364.128C25.151,364.116 25.145,364.104 25.145,364.092C25.133,364.062 25.126,364.032 25.123,364.002C25.119,363.972 25.115,363.942 25.109,363.912C25.109,363.888 25.108,363.867 25.105,363.849C25.101,363.831 25.097,363.807 25.091,363.777C25.091,363.771 25.088,363.768 25.082,363.768L25.073,363.768L25.064,363.768C25.052,363.816 25.046,363.846 25.046,363.858C25.034,363.924 25.037,363.981 25.055,364.029C25.061,364.047 25.064,364.066 25.064,364.088L25.064,364.146C25.064,364.2 25.046,364.239 25.01,364.263C25.004,364.263 25,364.264 24.997,364.267C24.993,364.27 24.989,364.272 24.983,364.272C24.959,364.284 24.937,364.296 24.916,364.308C24.894,364.32 24.872,364.332 24.848,364.344C24.842,364.344 24.838,364.346 24.835,364.349C24.831,364.351 24.827,364.353 24.821,364.353C24.779,364.365 24.758,364.35 24.758,364.308C24.752,364.296 24.749,364.278 24.749,364.254C24.749,364.242 24.751,364.232 24.754,364.223C24.756,364.214 24.758,364.203 24.758,364.191C24.758,364.173 24.752,364.158 24.74,364.146C24.74,364.122 24.731,364.119 24.713,364.137C24.701,364.143 24.689,364.158 24.677,364.182C24.635,364.194 24.611,364.207 24.605,364.223C24.599,364.238 24.596,364.251 24.596,364.263C24.638,364.281 24.662,364.299 24.668,364.317C24.674,364.335 24.677,364.353 24.677,364.371C24.677,364.383 24.66,364.395 24.628,364.407C24.594,364.419 24.572,364.428 24.56,364.434C24.53,364.458 24.494,364.473 24.452,364.479C24.41,364.485 24.374,364.482 24.344,364.47C24.314,364.452 24.29,364.428 24.272,364.398C24.26,364.362 24.254,364.332 24.254,364.308C24.254,364.278 24.255,364.251 24.258,364.227C24.261,364.203 24.263,364.179 24.263,364.155C24.269,364.125 24.272,364.094 24.272,364.06L24.272,363.966C24.266,363.936 24.261,363.903 24.258,363.867C24.255,363.831 24.248,363.792 24.236,363.75C24.224,363.75 24.215,363.747 24.209,363.741C24.197,363.789 24.187,363.832 24.177,363.871C24.169,363.911 24.158,363.948 24.146,363.984C24.14,364.014 24.135,364.041 24.132,364.065C24.13,364.089 24.128,364.116 24.128,364.146C24.128,364.17 24.13,364.191 24.132,364.209C24.135,364.227 24.14,364.248 24.146,364.272C24.152,364.29 24.155,364.307 24.155,364.322C24.155,364.336 24.158,364.353 24.164,364.371C24.164,364.395 24.161,364.41 24.155,364.416C24.143,364.44 24.131,364.458 24.119,364.47C24.059,364.494 24.005,364.5 23.957,364.488C23.915,364.482 23.888,364.452 23.876,364.398C23.864,364.35 23.858,364.314 23.858,364.29L23.858,364.218C23.858,364.212 23.857,364.207 23.854,364.204C23.85,364.202 23.849,364.197 23.849,364.191C23.837,364.203 23.831,364.212 23.831,364.218C23.831,364.224 23.828,364.233 23.822,364.245C23.81,364.281 23.798,364.311 23.786,364.335C23.786,364.347 23.78,364.359 23.768,364.371C23.762,364.383 23.75,364.389 23.732,364.389C23.66,364.377 23.608,364.362 23.574,364.344C23.542,364.326 23.513,364.302 23.489,364.272C23.465,364.248 23.453,364.209 23.453,364.155C23.453,364.089 23.454,364.026 23.458,363.966C23.461,363.906 23.468,363.843 23.48,363.777L23.462,363.768L23.462,363.777C23.432,363.831 23.405,363.884 23.381,363.934C23.357,363.986 23.339,364.041 23.327,364.101C23.321,364.113 23.318,364.126 23.318,364.142C23.318,364.157 23.315,364.17 23.309,364.182C23.309,364.188 23.307,364.193 23.304,364.196C23.301,364.199 23.3,364.203 23.3,364.209C23.288,364.233 23.273,364.239 23.255,364.227C23.225,364.215 23.192,364.185 23.156,364.137C23.114,364.071 23.09,364.002 23.084,363.93C23.066,363.834 23.069,363.738 23.093,363.642C23.105,363.606 23.114,363.572 23.12,363.538C23.126,363.506 23.132,363.474 23.138,363.444C23.156,363.318 23.216,363.204 23.318,363.102C23.33,363.09 23.342,363.08 23.354,363.071C23.366,363.061 23.378,363.051 23.39,363.039C23.402,363.033 23.42,363.018 23.444,362.994C23.468,362.976 23.48,362.946 23.48,362.904C23.48,362.892 23.482,362.885 23.484,362.882C23.487,362.878 23.489,362.871 23.489,362.859C23.477,362.787 23.486,362.709 23.516,362.625C23.528,362.589 23.528,362.567 23.516,362.558C23.504,362.549 23.483,362.538 23.453,362.526C23.435,362.52 23.419,362.517 23.403,362.517C23.388,362.517 23.372,362.514 23.354,362.508C23.336,362.502 23.318,362.499 23.3,362.499C23.282,362.499 23.264,362.493 23.246,362.481C23.198,362.469 23.15,362.46 23.102,362.454C23.054,362.448 23.006,362.442 22.958,362.436C22.91,362.436 22.853,362.435 22.787,362.432C22.721,362.429 22.655,362.433 22.589,362.445C22.565,362.451 22.541,362.454 22.517,362.454C22.493,362.454 22.469,362.457 22.445,362.463C22.397,362.475 22.352,362.486 22.31,362.495C22.268,362.504 22.226,362.517 22.184,362.535C22.142,362.559 22.1,362.574 22.058,362.58C22.04,362.592 22.004,362.604 21.95,362.616C21.878,362.634 21.806,362.616 21.734,362.562L21.725,362.553C21.677,362.505 21.635,362.457 21.599,362.409C21.563,362.361 21.53,362.31 21.5,362.256C21.464,362.202 21.437,362.146 21.419,362.085C21.401,362.013 21.404,361.944 21.428,361.878C21.434,361.86 21.44,361.842 21.446,361.824C21.452,361.806 21.461,361.782 21.473,361.752C21.485,361.716 21.497,361.686 21.509,361.662C21.521,361.638 21.533,361.614 21.545,361.59C21.593,361.524 21.611,361.44 21.599,361.338C21.593,361.29 21.587,361.247 21.581,361.208C21.575,361.169 21.566,361.128 21.554,361.086C21.548,361.063 21.544,361.038 21.541,361.014C21.537,360.99 21.533,360.966 21.527,360.942C21.515,360.834 21.507,360.74 21.505,360.659C21.502,360.578 21.506,360.502 21.518,360.429C21.53,360.334 21.545,360.237 21.563,360.141C21.581,360.046 21.596,359.934 21.608,359.808C21.614,359.766 21.62,359.727 21.626,359.692C21.632,359.655 21.635,359.619 21.635,359.583C21.635,359.553 21.636,359.525 21.639,359.498C21.642,359.471 21.644,359.442 21.644,359.412C21.644,359.328 21.641,359.241 21.635,359.151C21.629,359.061 21.617,358.957 21.599,358.837C21.587,358.776 21.575,358.735 21.563,358.711C21.563,358.704 21.56,358.701 21.554,358.701L21.545,358.711L21.545,359.142C21.545,359.167 21.542,359.193 21.536,359.223C21.524,359.254 21.516,359.28 21.513,359.304C21.51,359.328 21.503,359.356 21.491,359.385C21.479,359.409 21.47,359.43 21.464,359.448C21.458,359.466 21.449,359.487 21.437,359.511C21.413,359.566 21.397,359.619 21.387,359.673C21.379,359.727 21.371,359.781 21.365,359.836C21.365,359.896 21.366,359.939 21.369,359.966C21.372,359.993 21.368,360.019 21.356,360.042C21.356,360.048 21.353,360.051 21.347,360.051C21.341,360.046 21.338,360.039 21.338,360.033C21.326,359.967 21.316,359.897 21.306,359.822C21.297,359.747 21.29,359.679 21.284,359.619C21.272,359.524 21.264,359.429 21.261,359.336C21.258,359.243 21.26,359.149 21.266,359.052C21.272,358.968 21.276,358.897 21.279,358.837C21.282,358.776 21.287,358.722 21.293,358.674C21.305,358.609 21.316,358.546 21.324,358.486C21.334,358.425 21.344,358.362 21.356,358.297C21.368,358.248 21.377,358.202 21.383,358.157C21.389,358.112 21.398,358.059 21.41,357.999C21.434,357.873 21.473,357.765 21.527,357.675C21.563,357.61 21.607,357.545 21.657,357.482C21.709,357.419 21.776,357.358 21.86,357.298C21.944,357.19 22.034,357.088 22.13,356.991C22.226,356.896 22.325,356.811 22.427,356.74C22.481,356.703 22.527,356.674 22.567,356.65C22.606,356.626 22.644,356.604 22.684,356.587C22.722,356.569 22.767,356.552 22.818,356.537C22.869,356.522 22.934,356.503 23.012,356.478C23.12,356.443 23.234,356.409 23.354,356.38C23.474,356.349 23.609,356.325 23.759,356.307C23.873,356.271 23.99,356.254 24.11,356.254C24.146,356.248 24.182,356.243 24.218,356.24C24.254,356.237 24.29,356.239 24.326,356.244C24.38,356.251 24.435,356.254 24.492,356.254C24.549,356.254 24.623,356.257 24.713,356.262C24.809,356.281 24.903,356.302 24.997,356.325C25.089,356.349 25.181,356.377 25.271,356.406C25.415,356.454 25.556,356.511 25.694,356.577C25.832,356.644 25.955,356.721 26.063,356.811C26.153,356.896 26.231,356.988 26.297,357.091C26.345,357.162 26.401,357.23 26.464,357.293C26.526,357.356 26.591,357.421 26.657,357.487C26.687,357.523 26.715,357.562 26.742,357.603C26.77,357.646 26.795,357.688 26.819,357.729C26.861,357.807 26.896,357.901 26.922,358.008C26.949,358.116 26.972,358.213 26.99,358.297C27.008,358.423 27.017,358.548 27.017,358.674L27.017,359.052C27.011,359.1 27.006,359.149 27.004,359.196C27.001,359.244 26.996,359.293 26.99,359.34L26.963,359.556C26.957,359.592 26.954,359.627 26.954,359.66C26.954,359.693 26.951,359.724 26.945,359.754C26.939,359.899 26.927,360.006 26.909,360.078C26.909,360.12 26.903,360.171 26.891,360.232C26.891,360.243 26.885,360.261 26.873,360.285L26.864,360.285L26.855,360.285C26.843,360.261 26.834,360.24 26.828,360.222C26.822,360.204 26.819,360.185 26.819,360.164C26.819,360.143 26.816,360.12 26.81,360.096C26.804,360.067 26.801,360.032 26.801,359.993C26.801,359.954 26.798,359.901 26.792,359.836C26.792,359.781 26.783,359.731 26.765,359.682C26.753,359.634 26.744,359.587 26.738,359.538C26.732,359.49 26.726,359.442 26.72,359.394L26.72,359.124L26.72,359.061C26.714,359.068 26.708,359.07 26.702,359.07C26.702,359.083 26.7,359.091 26.697,359.097C26.695,359.103 26.693,359.112 26.693,359.124C26.681,359.191 26.672,359.258 26.666,359.327C26.66,359.396 26.651,359.466 26.639,359.538C26.633,359.605 26.626,359.672 26.616,359.741C26.608,359.81 26.603,359.896 26.603,359.997C26.615,360.051 26.626,360.104 26.634,360.155C26.644,360.206 26.663,360.255 26.693,360.303C26.723,360.351 26.75,360.401 26.774,360.452C26.798,360.503 26.822,360.552 26.846,360.6C26.87,360.636 26.882,360.669 26.882,360.699C26.888,360.723 26.894,360.749 26.9,360.776C26.906,360.803 26.915,360.849 26.927,360.915C26.939,360.951 26.952,360.989 26.967,361.028C26.983,361.067 26.996,361.104 27.008,361.14C27.038,361.266 27.044,361.383 27.026,361.491L26.999,361.707C26.987,361.792 26.984,361.857 26.99,361.905C26.996,361.953 27.005,361.999 27.017,362.04C27.017,362.052 27.018,362.062 27.022,362.072C27.025,362.081 27.026,362.091 27.026,362.103M23.525,361.689C23.555,361.666 23.584,361.643 23.611,361.622C23.637,361.601 23.678,361.578 23.732,361.554C23.744,361.53 23.757,361.509 23.773,361.491C23.787,361.473 23.801,361.455 23.813,361.437C23.825,361.431 23.84,361.431 23.858,361.437C23.882,361.449 23.903,361.464 23.921,361.482C23.939,361.5 23.957,361.515 23.975,361.527C23.981,361.533 23.99,361.536 24.002,361.536C24.008,361.536 24.011,361.53 24.011,361.518C24.011,361.464 24.008,361.425 24.002,361.401C23.996,361.371 23.988,361.343 23.98,361.316C23.97,361.289 23.96,361.26 23.948,361.23C23.936,361.189 23.936,361.144 23.948,361.095C23.966,361.065 23.972,361.035 23.966,361.005L23.966,360.929C23.966,360.902 23.963,360.861 23.957,360.807C23.957,360.795 23.952,360.788 23.943,360.785C23.935,360.782 23.927,360.783 23.921,360.789L23.903,360.807C23.897,360.856 23.889,360.885 23.88,360.898C23.872,360.909 23.861,360.912 23.849,360.906C23.837,360.9 23.819,360.898 23.795,360.898C23.795,360.849 23.794,360.822 23.791,360.816C23.787,360.811 23.786,360.804 23.786,360.798C23.768,360.756 23.744,360.72 23.714,360.69C23.684,360.66 23.63,360.633 23.552,360.609C23.48,360.567 23.405,360.534 23.327,360.51C23.249,360.486 23.168,360.468 23.084,360.456C23.036,360.444 23.005,360.441 22.989,360.447C22.974,360.453 22.946,360.468 22.904,360.492C22.898,360.486 22.894,360.483 22.89,360.483C22.887,360.483 22.883,360.481 22.877,360.474C22.835,360.444 22.766,360.447 22.67,360.483L22.661,360.483C22.655,360.483 22.652,360.486 22.652,360.492C22.586,360.523 22.532,360.534 22.49,360.528C22.478,360.528 22.469,360.527 22.463,360.524C22.457,360.521 22.448,360.519 22.436,360.519C22.418,360.513 22.385,360.51 22.337,360.51C22.271,360.51 22.214,360.523 22.166,360.546C22.154,360.552 22.145,360.555 22.139,360.555C22.133,360.555 22.124,360.558 22.112,360.565C22.088,360.576 22.067,360.579 22.049,360.573L22.031,360.565L22.022,360.565C21.998,360.565 21.986,360.573 21.986,360.591C21.986,360.645 21.977,360.681 21.959,360.699C21.947,360.717 21.94,360.74 21.937,360.767C21.933,360.794 21.935,360.834 21.941,360.888C21.947,360.919 21.944,360.957 21.932,361.005C21.926,361.035 21.922,361.064 21.919,361.091C21.915,361.118 21.911,361.147 21.905,361.176L21.905,361.239C21.917,361.371 21.944,361.494 21.986,361.608C21.992,361.644 22.007,361.677 22.031,361.707C22.061,361.773 22.094,361.826 22.13,361.865C22.166,361.904 22.205,361.936 22.247,361.959C22.271,361.971 22.301,361.995 22.337,362.031C22.343,362.062 22.355,362.082 22.373,362.094C22.385,362.106 22.394,362.112 22.4,362.112C22.412,362.125 22.424,362.129 22.436,362.125C22.448,362.123 22.46,362.115 22.472,362.103L22.499,362.049C22.541,361.995 22.598,361.968 22.67,361.968L22.886,361.968C22.916,361.974 22.949,361.976 22.985,361.973C23.021,361.97 23.054,361.968 23.084,361.968C23.174,361.956 23.255,361.932 23.327,361.896C23.363,361.878 23.398,361.85 23.43,361.811C23.463,361.772 23.495,361.731 23.525,361.689M24.776,362.76C24.776,362.736 24.779,362.715 24.785,362.697C24.791,362.667 24.796,362.642 24.798,362.621C24.801,362.6 24.803,362.577 24.803,362.553C24.797,362.542 24.794,362.52 24.794,362.49C24.782,362.46 24.773,362.432 24.767,362.405C24.761,362.378 24.755,362.349 24.749,362.319C24.737,362.283 24.719,362.249 24.695,362.216C24.671,362.183 24.629,362.151 24.569,362.121C24.545,362.091 24.526,362.062 24.51,362.036C24.495,362.009 24.479,361.98 24.461,361.95C24.449,361.932 24.44,361.916 24.434,361.901C24.428,361.886 24.419,361.866 24.407,361.842C24.395,361.776 24.377,361.731 24.353,361.707C24.311,361.677 24.272,361.671 24.236,361.689C24.14,361.755 24.077,361.845 24.047,361.959C24.041,361.989 24.026,362.034 24.002,362.094C23.972,362.166 23.941,362.234 23.907,362.297C23.875,362.36 23.837,362.424 23.795,362.49C23.771,362.526 23.75,362.574 23.732,362.634C23.63,362.772 23.633,362.883 23.741,362.967C23.759,363.015 23.783,363.063 23.813,363.111C23.831,363.147 23.858,363.174 23.894,363.192L24.002,363.264C24.026,363.276 24.047,363.282 24.065,363.282C24.101,363.294 24.128,363.285 24.146,363.255C24.152,363.249 24.161,363.234 24.173,363.21C24.179,363.198 24.182,363.189 24.182,363.183C24.182,363.177 24.185,363.168 24.191,363.156C24.197,363.114 24.218,363.081 24.254,363.057C24.29,363.033 24.32,363.039 24.344,363.075C24.356,363.087 24.363,363.096 24.366,363.102C24.369,363.108 24.377,363.117 24.389,363.129C24.419,363.159 24.452,363.165 24.488,363.147C24.53,363.135 24.578,363.116 24.632,363.089C24.686,363.061 24.719,363.024 24.731,362.976C24.731,362.964 24.733,362.955 24.736,362.949C24.738,362.943 24.74,362.934 24.74,362.922C24.746,362.898 24.751,362.874 24.754,362.85C24.756,362.826 24.764,362.796 24.776,362.76M26.774,361.437L26.774,361.379C26.774,361.358 26.777,361.333 26.783,361.302C26.777,361.278 26.774,361.254 26.774,361.23L26.774,361.149C26.774,361.113 26.765,361.077 26.747,361.041C26.723,360.993 26.696,360.937 26.666,360.87C26.636,360.804 26.597,360.751 26.549,360.708C26.531,360.696 26.514,360.688 26.5,360.681C26.484,360.675 26.462,360.667 26.432,360.654C26.372,360.625 26.315,360.597 26.261,360.573C26.207,360.549 26.153,360.523 26.099,360.492C26.081,360.474 26.063,360.465 26.045,360.465C26.009,360.441 25.961,360.441 25.901,360.465C25.895,360.471 25.889,360.476 25.883,360.479C25.877,360.482 25.871,360.486 25.865,360.492C25.853,360.492 25.841,360.498 25.829,360.51C25.781,360.528 25.736,360.537 25.694,360.537C25.67,360.537 25.631,360.528 25.577,360.51C25.541,360.504 25.508,360.492 25.478,360.474C25.448,360.462 25.427,360.468 25.415,360.492C25.403,360.516 25.397,360.531 25.397,360.537C25.385,360.567 25.367,360.582 25.343,360.582C25.301,360.582 25.259,360.597 25.217,360.627C25.199,360.639 25.182,360.647 25.168,360.65C25.152,360.653 25.136,360.66 25.118,360.672C25.07,360.696 25.028,360.705 24.992,360.699C24.962,360.699 24.923,360.705 24.875,360.717C24.869,360.723 24.864,360.726 24.861,360.726C24.859,360.726 24.854,360.73 24.848,360.735C24.824,360.735 24.821,360.751 24.839,360.78C24.851,360.786 24.859,360.791 24.861,360.794C24.864,360.797 24.872,360.801 24.884,360.807C24.896,360.856 24.902,360.885 24.902,360.898L24.902,360.933C24.908,360.993 24.893,361.053 24.857,361.113C24.845,361.125 24.835,361.14 24.825,361.158C24.817,361.176 24.806,361.191 24.794,361.203C24.776,361.233 24.759,361.263 24.744,361.293C24.73,361.323 24.716,361.353 24.704,361.383L24.704,361.401L24.722,361.401C24.746,361.389 24.761,361.383 24.767,361.383C24.785,361.383 24.794,361.386 24.794,361.392C24.8,361.422 24.821,361.461 24.857,361.509C24.887,361.551 24.92,361.59 24.956,361.626C24.992,361.662 25.031,361.704 25.073,361.752C25.097,361.8 25.124,361.839 25.154,361.869L25.262,361.923C25.394,361.977 25.556,362.022 25.748,362.058C25.808,362.064 25.868,362.064 25.928,362.058C26.018,362.052 26.108,362.025 26.198,361.977C26.276,361.947 26.356,361.901 26.437,361.838C26.518,361.775 26.6,361.71 26.684,361.644C26.72,361.614 26.741,361.59 26.747,361.572C26.753,361.554 26.762,361.521 26.774,361.473L26.774,361.437Z" style="fill-rule:nonzero;"/>
        </g>
    </g>
</svg>
