<?xml version="1.0" encoding="UTF-8" standalone="no"?>
<!DOCTYPE svg PUBLIC "-//W3C//DTD SVG 1.1//EN" "http://www.w3.org/Graphics/SVG/1.1/DTD/svg11.dtd">
<svg width="100%" height="100%" viewBox="0 0 29 35" version="1.1" xmlns="http://www.w3.org/2000/svg" xmlns:xlink="http://www.w3.org/1999/xlink" xml:space="preserve" style="fill-rule:evenodd;clip-rule:evenodd;stroke-linejoin:round;stroke-miterlimit:1.41421;">
    <g transform="matrix(1,0,0,1,-409.787,-351.539)">
        <g transform="matrix(4.16667,0,0,4.16667,242.686,-1132.72)">
            <path d="M43.245,364.286C43.191,364.286 43.137,364.295 43.083,364.313L43.065,364.295C43.065,364.277 43.056,364.268 43.038,364.268L42.925,364.268C42.904,364.268 42.888,364.271 42.876,364.277C42.87,364.283 42.864,364.286 42.858,364.286C42.852,364.286 42.843,364.289 42.831,364.295C42.813,364.295 42.801,364.301 42.795,364.313C42.789,364.325 42.774,364.337 42.75,364.349C42.738,364.349 42.723,364.35 42.705,364.353C42.687,364.356 42.672,364.358 42.66,364.358C42.642,364.364 42.624,364.367 42.606,364.367C42.588,364.367 42.57,364.37 42.552,364.376C42.54,364.376 42.528,364.37 42.516,364.358L42.489,364.331C42.435,364.319 42.393,364.319 42.363,364.331C42.351,364.337 42.343,364.343 42.34,364.349C42.337,364.355 42.33,364.364 42.318,364.376C42.312,364.382 42.306,364.385 42.3,364.385C42.288,364.391 42.274,364.394 42.259,364.394C42.245,364.394 42.231,364.397 42.219,364.403C42.201,364.409 42.182,364.412 42.161,364.412C42.139,364.412 42.114,364.415 42.084,364.421L42.03,364.421C41.964,364.403 41.907,364.4 41.859,364.412L41.85,364.403C41.838,364.391 41.826,364.373 41.814,364.349C41.796,364.307 41.763,364.292 41.715,364.304C41.703,364.304 41.691,364.31 41.679,364.322C41.655,364.334 41.634,364.349 41.616,364.367C41.604,364.379 41.589,364.385 41.571,364.385C41.559,364.385 41.55,364.391 41.544,364.403C41.544,364.427 41.532,364.433 41.508,364.421L41.481,364.421C41.463,364.403 41.443,364.392 41.422,364.39C41.401,364.387 41.379,364.382 41.355,364.376L41.337,364.385C41.337,364.403 41.331,364.412 41.319,364.412C41.295,364.418 41.265,364.421 41.229,364.421C41.205,364.427 41.185,364.432 41.17,364.434C41.155,364.437 41.133,364.439 41.103,364.439C41.103,364.445 41.099,364.447 41.089,364.444C41.08,364.44 41.076,364.436 41.076,364.43L41.076,364.403L41.076,364.385C41.076,364.379 41.067,364.376 41.049,364.376C41.019,364.376 41.001,364.379 40.995,364.385C40.995,364.397 40.992,364.406 40.986,364.412C40.98,364.418 40.974,364.427 40.968,364.439C40.962,364.463 40.947,364.475 40.923,364.475L40.914,364.466C40.92,364.448 40.923,364.433 40.923,364.421C40.923,364.409 40.926,364.397 40.932,364.385C40.932,364.379 40.929,364.373 40.923,364.367C40.917,364.361 40.911,364.361 40.905,364.367C40.887,364.367 40.872,364.373 40.86,364.385C40.854,364.385 40.845,364.391 40.833,364.403C40.827,364.415 40.821,364.43 40.815,364.448C40.809,364.466 40.803,364.481 40.797,364.493C40.791,364.505 40.779,364.511 40.761,364.511L40.68,364.511C40.674,364.511 40.671,364.508 40.671,364.502L40.671,364.484L40.671,364.439C40.689,364.379 40.677,364.319 40.635,364.259C40.635,364.253 40.629,364.244 40.617,364.232C40.605,364.208 40.599,364.187 40.599,364.169C40.593,364.157 40.59,364.142 40.59,364.124C40.59,364.106 40.587,364.088 40.581,364.07C40.575,364.058 40.572,364.044 40.572,364.03C40.572,364.015 40.566,363.998 40.554,363.98C40.542,363.95 40.533,363.915 40.527,363.876C40.521,363.837 40.518,363.794 40.518,363.746C40.518,363.722 40.512,363.686 40.5,363.638C40.488,363.614 40.48,363.589 40.477,363.561C40.474,363.535 40.47,363.512 40.464,363.494C40.452,363.458 40.446,363.428 40.446,363.404C40.452,363.374 40.446,363.338 40.428,363.296C40.416,363.254 40.413,363.221 40.419,363.197C40.419,363.173 40.413,363.137 40.401,363.089C40.389,363.065 40.383,363.044 40.383,363.026C40.365,362.972 40.359,362.924 40.365,362.882C40.371,362.846 40.371,362.816 40.365,362.792C40.359,362.75 40.354,362.711 40.351,362.675C40.348,362.639 40.347,362.606 40.347,362.576C40.347,362.552 40.344,362.534 40.338,362.522C40.332,362.45 40.314,362.372 40.284,362.288C40.284,362.252 40.29,362.228 40.302,362.216C40.307,362.174 40.307,362.135 40.302,362.099C40.302,362.087 40.299,362.075 40.293,362.063C40.287,362.051 40.284,362.039 40.284,362.027L40.284,361.973C40.272,361.943 40.263,361.901 40.257,361.847C40.251,361.793 40.254,361.742 40.266,361.694C40.272,361.682 40.273,361.672 40.27,361.662C40.267,361.654 40.266,361.643 40.266,361.631C40.248,361.601 40.237,361.57 40.234,361.536C40.231,361.504 40.23,361.472 40.23,361.442C40.218,361.418 40.212,361.396 40.212,361.374C40.212,361.353 40.209,361.331 40.203,361.307L40.203,361.226C40.209,361.202 40.209,361.172 40.203,361.136C40.197,361.112 40.191,361.088 40.185,361.064C40.179,361.04 40.176,361.013 40.176,360.983C40.17,360.953 40.165,360.914 40.162,360.866C40.159,360.818 40.152,360.782 40.14,360.758C40.134,360.728 40.131,360.697 40.131,360.663L40.131,360.569C40.125,360.545 40.122,360.521 40.122,360.497L40.122,360.416C40.122,360.386 40.123,360.356 40.126,360.326C40.129,360.296 40.128,360.266 40.122,360.236C40.104,360.2 40.104,360.164 40.122,360.128C40.128,360.104 40.128,360.077 40.122,360.047C40.11,360.023 40.104,359.997 40.104,359.971C40.104,359.944 40.11,359.897 40.122,359.831C40.134,359.813 40.134,359.792 40.122,359.768C40.098,359.714 40.098,359.669 40.122,359.633C40.122,359.621 40.123,359.614 40.126,359.611C40.129,359.608 40.131,359.6 40.131,359.588C40.131,359.546 40.132,359.507 40.135,359.471C40.138,359.435 40.134,359.396 40.122,359.354C40.104,359.306 40.107,359.267 40.131,359.237C40.137,359.201 40.137,359.165 40.131,359.129C40.131,359.093 40.14,359.066 40.158,359.048C40.17,359.018 40.182,358.98 40.194,358.935C40.206,358.89 40.218,358.853 40.23,358.823C40.272,358.805 40.311,358.796 40.347,358.796C40.359,358.796 40.368,358.799 40.374,358.805C40.38,358.805 40.386,358.808 40.392,358.814C40.41,358.826 40.429,358.835 40.45,358.841C40.471,358.847 40.491,358.856 40.509,358.868C40.539,358.868 40.569,358.879 40.599,358.9C40.629,358.921 40.659,358.946 40.689,358.976C40.719,359.012 40.761,359.036 40.815,359.048C40.845,359.06 40.872,359.072 40.896,359.084C40.92,359.096 40.947,359.108 40.977,359.12C41.007,359.132 41.036,359.141 41.062,359.147C41.089,359.153 41.121,359.159 41.157,359.165C41.175,359.171 41.191,359.177 41.206,359.183C41.221,359.189 41.235,359.195 41.247,359.201C41.313,359.243 41.373,359.27 41.427,359.282C41.469,359.3 41.508,359.318 41.544,359.336C41.58,359.354 41.616,359.378 41.652,359.408C41.67,359.426 41.697,359.435 41.733,359.435C41.757,359.435 41.787,359.447 41.823,359.471C41.847,359.501 41.883,359.519 41.931,359.525C41.943,359.531 41.958,359.536 41.976,359.538C41.994,359.542 42.018,359.549 42.048,359.561C42.09,359.591 42.126,359.614 42.156,359.629C42.186,359.643 42.216,359.657 42.246,359.669C42.312,359.705 42.369,359.744 42.417,359.786C42.441,359.81 42.465,359.843 42.489,359.885C42.513,359.927 42.54,359.954 42.57,359.966L42.624,359.993C42.636,360.005 42.651,360.015 42.669,360.025C42.687,360.034 42.702,360.044 42.714,360.056C42.744,360.086 42.774,360.104 42.804,360.11C42.84,360.122 42.861,360.128 42.867,360.128C42.897,360.14 42.936,360.152 42.984,360.164C43.032,360.176 43.065,360.194 43.083,360.218C43.095,360.23 43.113,360.242 43.137,360.254C43.197,360.278 43.242,360.302 43.272,360.326C43.284,360.338 43.296,360.346 43.308,360.348C43.32,360.351 43.332,360.356 43.344,360.362C43.368,360.368 43.387,360.375 43.402,360.385C43.417,360.393 43.431,360.404 43.443,360.416C43.455,360.428 43.467,360.437 43.479,360.443C43.491,360.449 43.503,360.458 43.515,360.47C43.533,360.482 43.551,360.493 43.569,360.501C43.587,360.511 43.605,360.518 43.623,360.524C43.659,360.542 43.686,360.563 43.704,360.587C43.71,360.605 43.722,360.617 43.74,360.623C43.776,360.671 43.815,360.707 43.857,360.731C43.881,360.755 43.917,360.791 43.965,360.839C44.013,360.887 44.043,360.926 44.055,360.956C44.067,360.98 44.079,361.001 44.091,361.019C44.103,361.037 44.118,361.055 44.136,361.073C44.16,361.091 44.179,361.112 44.194,361.136C44.209,361.16 44.223,361.184 44.235,361.208L44.307,361.316C44.325,361.34 44.337,361.364 44.343,361.388C44.355,361.448 44.373,361.487 44.397,361.505C44.421,361.529 44.433,361.553 44.433,361.577C44.433,361.601 44.437,361.622 44.446,361.64C44.455,361.658 44.466,361.676 44.478,361.694C44.52,361.808 44.541,361.901 44.541,361.973C44.541,362.021 44.556,362.075 44.586,362.135C44.598,362.165 44.607,362.194 44.613,362.221C44.619,362.247 44.625,362.276 44.631,362.306C44.637,362.336 44.643,362.365 44.649,362.391C44.655,362.418 44.658,362.447 44.658,362.477C44.658,362.489 44.664,362.513 44.676,362.549C44.682,362.585 44.691,362.63 44.703,362.684C44.703,362.708 44.704,362.729 44.707,362.747C44.71,362.765 44.712,362.786 44.712,362.81C44.712,362.84 44.713,362.867 44.716,362.891C44.719,362.915 44.724,362.939 44.73,362.963C44.736,362.975 44.739,362.99 44.739,363.008C44.739,363.026 44.742,363.044 44.748,363.062C44.748,363.08 44.754,363.113 44.766,363.161C44.772,363.179 44.775,363.206 44.775,363.242L44.775,363.323C44.775,363.377 44.784,363.425 44.802,363.467C44.814,363.533 44.823,363.598 44.829,363.661C44.835,363.724 44.832,363.791 44.82,363.863L44.82,363.881C44.82,363.929 44.817,363.96 44.811,363.975C44.805,363.991 44.796,364.013 44.784,364.043L44.757,364.097C44.745,364.115 44.733,364.124 44.721,364.124L44.622,364.124C44.586,364.13 44.553,364.124 44.523,364.106C44.511,364.1 44.493,364.097 44.469,364.097C44.445,364.103 44.409,364.106 44.361,364.106L44.244,364.106C44.208,364.106 44.184,364.109 44.172,364.115C44.148,364.121 44.112,364.124 44.064,364.124L43.875,364.124C43.845,364.124 43.83,364.136 43.83,364.16L43.812,364.178C43.8,364.19 43.791,364.196 43.785,364.196C43.743,364.202 43.704,364.209 43.668,364.219C43.632,364.227 43.593,364.238 43.551,364.25C43.545,364.25 43.536,364.244 43.524,364.232L43.524,364.196C43.518,364.196 43.515,364.195 43.515,364.192C43.515,364.188 43.512,364.187 43.506,364.187C43.488,364.187 43.476,364.193 43.47,364.205C43.464,364.211 43.459,364.217 43.456,364.223C43.453,364.229 43.449,364.235 43.443,364.241C43.443,364.253 43.437,364.259 43.425,364.259C43.413,364.259 43.401,364.261 43.389,364.264C43.377,364.266 43.365,364.268 43.353,364.268L43.344,364.259C43.332,364.247 43.323,364.241 43.317,364.241L43.29,364.268C43.278,364.28 43.263,364.286 43.245,364.286M44.055,360.317C44.031,360.305 43.995,360.295 43.947,360.286C43.899,360.277 43.863,360.266 43.839,360.254C43.785,360.218 43.729,360.181 43.672,360.141C43.615,360.102 43.563,360.059 43.515,360.011C43.503,359.999 43.489,359.987 43.474,359.975C43.459,359.963 43.443,359.951 43.425,359.939C43.407,359.885 43.389,359.85 43.371,359.835C43.353,359.821 43.332,359.807 43.308,359.795C43.296,359.789 43.284,359.783 43.272,359.777C43.26,359.771 43.248,359.762 43.236,359.75C43.212,359.72 43.185,359.696 43.155,359.678C43.125,359.66 43.101,359.636 43.083,359.606C43.071,359.594 43.056,359.585 43.038,359.579C43.02,359.573 42.984,359.564 42.93,359.552C42.894,359.54 42.864,359.528 42.84,359.516C42.792,359.48 42.75,359.459 42.714,359.453C42.636,359.429 42.558,359.393 42.48,359.345C42.462,359.333 42.445,359.324 42.431,359.318C42.415,359.312 42.399,359.303 42.381,359.291C42.333,359.279 42.292,359.26 42.259,359.233C42.226,359.205 42.195,359.177 42.165,359.147C42.129,359.105 42.066,359.069 41.976,359.039C41.946,359.021 41.928,358.994 41.922,358.958C41.91,358.928 41.896,358.904 41.881,358.886C41.866,358.868 41.853,358.85 41.841,358.832C41.817,358.814 41.793,358.799 41.769,358.787C41.727,358.781 41.694,358.76 41.67,358.724C41.652,358.706 41.625,358.685 41.589,358.661C41.559,358.655 41.535,358.64 41.517,358.616C41.493,358.598 41.47,358.581 41.449,358.567C41.428,358.552 41.406,358.535 41.382,358.517C41.352,358.499 41.322,358.48 41.292,358.458C41.262,358.437 41.229,358.418 41.193,358.4C41.187,358.394 41.181,358.39 41.175,358.387C41.169,358.384 41.163,358.376 41.157,358.364C41.127,358.346 41.095,358.329 41.062,358.314C41.029,358.3 40.998,358.286 40.968,358.274C40.95,358.268 40.938,358.256 40.932,358.238C40.92,358.214 40.914,358.196 40.914,358.184C40.908,358.178 40.905,358.169 40.905,358.157C40.911,358.133 40.915,358.106 40.918,358.076C40.921,358.046 40.929,358.013 40.941,357.977C40.953,357.959 40.963,357.938 40.973,357.914C40.981,357.89 40.998,357.869 41.022,357.851C41.07,357.803 41.116,357.757 41.162,357.712C41.206,357.666 41.244,357.62 41.274,357.572C41.298,357.53 41.328,357.491 41.364,357.455C41.394,357.425 41.418,357.395 41.436,357.365C41.454,357.335 41.475,357.305 41.499,357.275C41.517,357.245 41.536,357.211 41.558,357.172C41.578,357.133 41.601,357.095 41.625,357.059C41.637,357.047 41.646,357.035 41.652,357.023C41.658,357.011 41.667,356.999 41.679,356.987C41.697,356.969 41.715,356.95 41.733,356.929C41.751,356.908 41.769,356.888 41.787,356.87C41.811,356.852 41.841,356.825 41.877,356.789C41.907,356.771 41.938,356.756 41.972,356.744C42.004,356.732 42.054,356.72 42.12,356.708C42.156,356.696 42.19,356.684 42.224,356.672C42.256,356.66 42.291,356.648 42.327,356.636C42.375,356.606 42.423,356.588 42.471,356.582C42.495,356.57 42.519,356.559 42.543,356.551C42.567,356.541 42.591,356.528 42.615,356.51C42.651,356.492 42.687,356.474 42.723,356.456C42.759,356.438 42.795,356.423 42.831,356.411C42.855,356.399 42.876,356.393 42.894,356.393C42.912,356.387 42.945,356.383 42.993,356.38C43.041,356.377 43.074,356.369 43.092,356.357C43.104,356.351 43.113,356.348 43.119,356.348C43.125,356.348 43.134,356.345 43.146,356.339C43.158,356.339 43.17,356.338 43.182,356.334C43.194,356.331 43.206,356.33 43.218,356.33C43.266,356.33 43.312,356.327 43.357,356.321C43.402,356.315 43.449,356.309 43.497,356.303L43.569,356.303C43.641,356.315 43.71,356.303 43.776,356.267C43.794,356.261 43.824,356.258 43.866,356.258L44.028,356.258C44.064,356.258 44.097,356.252 44.127,356.24C44.151,356.228 44.187,356.222 44.235,356.222C44.277,356.24 44.319,356.246 44.361,356.24L44.37,356.24C44.382,356.246 44.392,356.249 44.401,356.249C44.411,356.249 44.421,356.252 44.433,356.258C44.469,356.27 44.505,356.279 44.541,356.285C44.577,356.291 44.613,356.303 44.649,356.321C44.727,356.357 44.817,356.396 44.919,356.438C44.961,356.456 44.995,356.471 45.022,356.483C45.049,356.495 45.075,356.507 45.099,356.519L45.207,356.573C45.261,356.603 45.312,356.651 45.36,356.717C45.372,356.735 45.385,356.753 45.4,356.771C45.415,356.789 45.429,356.807 45.441,356.825C45.447,356.837 45.45,356.852 45.45,356.87C45.444,356.9 45.439,356.93 45.436,356.96C45.433,356.99 45.426,357.02 45.414,357.05C45.402,357.086 45.393,357.12 45.387,357.154C45.381,357.186 45.375,357.218 45.369,357.248C45.369,357.308 45.354,357.362 45.324,357.41C45.306,357.458 45.288,357.508 45.27,357.558C45.252,357.61 45.228,357.659 45.198,357.707C45.192,357.719 45.187,357.734 45.184,357.752C45.181,357.77 45.177,357.785 45.171,357.797C45.159,357.821 45.151,357.844 45.148,357.865C45.145,357.886 45.138,357.911 45.126,357.941C45.102,358.061 45.072,358.166 45.036,358.256C45.03,358.268 45.024,358.283 45.018,358.301C45.012,358.319 45.003,358.334 44.991,358.346C44.955,358.376 44.937,358.403 44.937,358.427C44.937,358.457 44.913,358.496 44.865,358.544C44.853,358.556 44.842,358.567 44.833,358.576C44.824,358.584 44.817,358.595 44.811,358.607C44.799,358.631 44.787,358.661 44.775,358.697C44.763,358.727 44.748,358.757 44.73,358.787C44.706,358.823 44.688,358.856 44.676,358.886C44.664,358.922 44.653,358.958 44.644,358.994C44.635,359.03 44.628,359.06 44.622,359.084C44.616,359.102 44.613,359.129 44.613,359.165C44.607,359.195 44.601,359.226 44.595,359.26C44.589,359.292 44.58,359.324 44.568,359.354C44.562,359.36 44.553,359.384 44.541,359.426C44.529,359.462 44.517,359.486 44.505,359.498C44.469,359.546 44.448,359.585 44.442,359.615C44.436,359.627 44.43,359.638 44.424,359.646C44.418,359.656 44.412,359.666 44.406,359.678C44.376,359.714 44.349,359.766 44.325,359.835C44.301,359.905 44.274,359.963 44.244,360.011C44.232,360.029 44.22,360.049 44.208,360.07C44.196,360.091 44.181,360.11 44.163,360.128C44.127,360.17 44.1,360.221 44.082,360.281C44.076,360.287 44.071,360.293 44.068,360.299C44.065,360.305 44.061,360.311 44.055,360.317M45.648,357.68C45.666,357.68 45.69,357.689 45.72,357.707C45.732,357.731 45.744,357.746 45.756,357.752C45.762,357.77 45.783,357.791 45.819,357.815C45.867,357.839 45.909,357.875 45.945,357.923C45.975,357.977 45.993,358.004 45.999,358.004C46.017,358.046 46.033,358.084 46.048,358.117C46.063,358.15 46.077,358.181 46.089,358.211C46.113,358.259 46.131,358.292 46.143,358.31C46.155,358.322 46.162,358.336 46.165,358.35C46.168,358.366 46.176,358.379 46.188,358.391C46.212,358.433 46.233,358.474 46.251,358.513C46.269,358.552 46.29,358.595 46.314,358.643C46.326,358.661 46.339,358.681 46.354,358.702C46.369,358.723 46.383,358.742 46.395,358.76C46.413,358.79 46.425,358.826 46.431,358.868C46.437,358.886 46.44,358.907 46.44,358.931C46.44,358.955 46.443,358.976 46.449,358.994C46.461,359.024 46.47,359.056 46.476,359.089C46.482,359.121 46.488,359.153 46.494,359.183C46.5,359.219 46.504,359.254 46.507,359.286C46.51,359.32 46.515,359.354 46.521,359.39C46.521,359.426 46.527,359.474 46.539,359.534C46.551,359.582 46.564,359.629 46.579,359.674C46.594,359.719 46.608,359.765 46.62,359.813C46.632,359.897 46.647,359.968 46.665,360.025C46.683,360.081 46.698,360.134 46.71,360.182L46.71,360.209C46.74,360.281 46.755,360.347 46.755,360.407C46.755,360.419 46.758,360.431 46.764,360.443C46.77,360.455 46.776,360.467 46.782,360.479C46.788,360.497 46.791,360.527 46.791,360.569L46.791,360.632C46.791,360.674 46.794,360.719 46.8,360.767C46.806,360.815 46.812,360.881 46.818,360.965C46.824,360.989 46.827,361.012 46.827,361.033C46.827,361.054 46.833,361.076 46.845,361.1L46.845,361.145C46.857,361.181 46.857,361.223 46.845,361.271C46.845,361.307 46.848,361.334 46.854,361.352C46.854,361.388 46.851,361.415 46.845,361.433C46.845,361.445 46.842,361.459 46.836,361.473C46.83,361.489 46.827,361.505 46.827,361.523C46.839,361.547 46.84,361.568 46.831,361.586C46.822,361.604 46.815,361.625 46.809,361.649C46.809,361.661 46.8,361.667 46.782,361.667C46.764,361.673 46.746,361.676 46.728,361.676C46.71,361.676 46.695,361.679 46.683,361.685C46.671,361.673 46.665,361.664 46.665,361.658C46.665,361.628 46.644,361.622 46.602,361.64C46.596,361.646 46.575,361.661 46.539,361.685C46.509,361.703 46.488,361.709 46.476,361.703C46.458,361.703 46.443,361.706 46.431,361.712C46.419,361.718 46.407,361.727 46.395,361.739C46.371,361.775 46.345,361.793 46.318,361.793C46.291,361.793 46.266,361.787 46.242,361.775C46.224,361.775 46.209,361.763 46.197,361.739C46.185,361.721 46.164,361.712 46.134,361.712C46.11,361.718 46.068,361.721 46.008,361.721C45.99,361.721 45.978,361.739 45.972,361.775C45.972,361.799 45.954,361.823 45.918,361.847L45.869,361.847C45.847,361.847 45.831,361.853 45.819,361.865C45.789,361.865 45.762,361.847 45.738,361.811C45.726,361.793 45.717,361.793 45.711,361.811C45.705,361.835 45.696,361.859 45.684,361.883C45.672,361.889 45.654,361.892 45.63,361.892C45.57,361.91 45.522,361.895 45.486,361.847C45.468,361.811 45.45,361.811 45.432,361.847C45.42,361.883 45.399,361.91 45.369,361.928C45.345,361.952 45.327,361.967 45.315,361.973C45.309,361.979 45.304,361.982 45.301,361.982C45.298,361.982 45.294,361.985 45.288,361.991C45.264,361.991 45.249,361.985 45.243,361.973C45.243,361.961 45.231,361.955 45.207,361.955L45.189,361.964C45.177,361.988 45.165,362.006 45.153,362.018C45.117,362.03 45.09,362.036 45.072,362.036C45.072,362.03 45.07,362.026 45.067,362.022C45.064,362.019 45.063,362.015 45.063,362.009C45.069,361.997 45.072,361.984 45.072,361.969C45.072,361.953 45.075,361.94 45.081,361.928C45.081,361.904 45.078,361.889 45.072,361.883C45.054,361.829 45.04,361.781 45.031,361.739C45.022,361.697 45.012,361.661 45,361.631C44.988,361.589 44.961,361.553 44.919,361.523C44.865,361.457 44.824,361.392 44.797,361.329C44.77,361.266 44.742,361.202 44.712,361.136C44.7,361.112 44.694,361.097 44.694,361.091C44.682,361.043 44.67,361.007 44.658,360.983C44.646,360.971 44.637,360.953 44.631,360.929C44.625,360.905 44.622,360.866 44.622,360.812C44.622,360.782 44.616,360.755 44.604,360.731C44.586,360.695 44.575,360.658 44.572,360.619C44.569,360.579 44.571,360.542 44.577,360.506C44.583,360.446 44.601,360.389 44.631,360.335C44.643,360.293 44.658,360.254 44.676,360.218C44.694,360.182 44.712,360.146 44.73,360.11C44.778,360.038 44.811,359.924 44.829,359.768C44.829,359.726 44.847,359.687 44.883,359.651C44.925,359.621 44.955,359.588 44.973,359.552C44.985,359.522 44.998,359.492 45.014,359.462C45.028,359.432 45.045,359.402 45.063,359.372C45.093,359.33 45.108,359.294 45.108,359.264C45.12,359.228 45.132,359.198 45.144,359.174C45.15,359.156 45.156,359.138 45.162,359.12C45.168,359.102 45.171,359.084 45.171,359.066C45.177,359.03 45.184,358.985 45.193,358.931C45.203,358.877 45.213,358.835 45.225,358.805C45.237,358.781 45.246,358.759 45.252,358.738C45.258,358.717 45.264,358.691 45.27,358.661C45.282,358.601 45.3,358.544 45.324,358.49C45.33,358.478 45.334,358.468 45.337,358.458C45.34,358.45 45.345,358.439 45.351,358.427C45.363,358.397 45.375,358.368 45.387,358.342C45.399,358.314 45.411,358.286 45.423,358.256C45.435,358.226 45.445,358.196 45.454,358.166C45.463,358.136 45.477,358.1 45.495,358.058C45.501,358.046 45.505,358.031 45.508,358.013C45.511,357.995 45.519,357.974 45.531,357.95C45.537,357.938 45.54,357.923 45.54,357.905C45.54,357.887 45.543,357.872 45.549,357.86C45.561,357.83 45.573,357.803 45.585,357.779C45.597,357.755 45.609,357.728 45.621,357.698C45.633,357.686 45.642,357.68 45.648,357.68" style="fill-rule:nonzero;"/>
        </g>
    </g>
</svg>
