<?xml version="1.0" encoding="UTF-8" standalone="no"?>
<!DOCTYPE svg PUBLIC "-//W3C//DTD SVG 1.1//EN" "http://www.w3.org/Graphics/SVG/1.1/DTD/svg11.dtd">
<svg width="100%" height="100%" viewBox="0 0 32 35" version="1.1" xmlns="http://www.w3.org/2000/svg" xmlns:xlink="http://www.w3.org/1999/xlink" xml:space="preserve" style="fill-rule:evenodd;clip-rule:evenodd;stroke-linejoin:round;stroke-miterlimit:1.41421;">
    <g transform="matrix(1.6039,0,0,1.6039,-569.558,-138.198)">
        <path d="M373.99,102.88C373.743,103.251 372.637,103.545 372.25,103.798C371.99,103.968 371.814,104.266 371.546,104.417C371.158,104.636 370.626,104.652 370.21,104.791C369.421,105.053 368.689,105.724 367.903,105.961C367.56,106.065 367.201,106.241 366.854,106.303C366.488,106.368 366.174,106.505 365.831,106.647C365.706,106.698 365.485,106.721 365.302,106.775C365.263,106.072 365.165,105.262 365.165,104.679C365.165,103.326 364.856,102.016 364.854,100.677C364.853,99.322 365.053,97.974 365.01,96.623C364.994,96.136 365.176,95.687 365.211,95.212C365.804,94.894 366.527,94.772 367.066,94.343C367.703,93.838 368.431,93.654 369.206,93.429C370.446,93.068 371.701,92.312 372.856,91.768C373.009,91.696 373.321,91.634 373.604,91.549C373.518,92.046 373.594,92.637 373.592,93.119C373.588,94.317 373.539,95.735 373.595,96.933C373.633,97.722 373.662,98.573 373.785,99.344C373.901,100.075 374.1,100.725 374.097,101.493C374.095,101.984 374.265,102.467 373.99,102.88M361.866,105.731C361.386,105.607 361.008,105.376 360.583,105.154C359.962,104.83 359.372,104.314 358.685,104.144C358.136,104.008 357.627,103.861 357.109,103.586C356.854,103.45 356.197,103.118 356.068,102.859C355.873,102.466 356.175,101.8 356.261,101.416C356.459,100.531 356.574,99.595 356.388,98.706C356.102,97.333 355.996,95.836 355.853,94.427C355.754,93.449 356.164,92.328 356.048,91.363C356.22,91.474 356.421,91.577 356.523,91.637C356.985,91.908 357.657,91.879 357.903,92.254C358.294,92.49 358.746,92.815 359.159,93.016C359.739,93.299 360.3,93.293 360.808,93.654C361.23,93.954 361.622,94.016 362.093,94.193C362.551,94.365 363,94.593 363.475,94.71C364,94.84 364.578,94.749 364.359,95.361C364.182,95.856 364.185,96.18 364.274,96.713C364.437,97.688 364.237,98.481 364.061,99.439C363.941,100.086 363.847,100.406 364.029,101.065C364.273,101.949 364.509,102.906 364.577,103.822C364.609,104.244 364.383,105.893 364.6,106.837C364.192,106.748 363.867,106.487 363.459,106.35C362.94,106.177 362.387,105.865 361.866,105.731M357.453,90.076C357.785,89.875 358.156,89.775 358.485,89.594C359.069,89.273 359.636,89.184 360.275,88.972C360.965,88.743 361.383,88.182 362.064,87.972C362.686,87.781 363.357,87.691 363.961,87.439C364.187,87.344 364.36,87.117 364.573,87.04C364.866,86.933 364.748,87.01 364.994,87.185C365.436,87.5 366.062,87.566 366.566,87.83C367.202,88.165 367.656,88.755 368.335,89.03C369.033,89.312 369.641,89.502 370.307,89.907C370.607,90.09 370.869,90.116 371.182,90.256C371.468,90.384 371.684,90.634 371.969,90.778C372.207,90.899 372.519,90.968 372.832,90.994C372.528,91.182 372.217,91.447 371.98,91.556C371.689,91.689 371.433,91.816 371.117,91.911C370.276,92.164 369.47,92.545 368.638,92.84C367.791,93.141 366.697,93.334 365.98,93.885C365.698,94.101 365.345,94.49 364.971,94.487C364.599,94.484 364.095,94.118 363.723,93.991C363.106,93.779 362.539,93.472 361.898,93.316C361.203,93.147 360.966,93 360.399,92.587C360.136,92.395 359.829,92.284 359.527,92.14C358.938,91.859 358.376,91.556 357.794,91.262C357.368,91.047 356.902,90.781 356.416,90.656C356.433,90.633 356.45,90.613 356.466,90.584C356.786,90.572 357.182,90.241 357.453,90.076M374.639,100.916C374.576,100.128 374.477,99.355 374.376,98.575C374.292,97.929 374.385,97.261 374.272,96.623C373.994,95.055 374.188,93.162 374.175,91.564C374.136,91.506 374.098,91.429 374.043,91.364C374.107,91.32 374.156,91.271 374.179,91.215C373.925,91.065 373.757,90.816 373.439,90.791C372.611,89.913 371.265,89.693 370.135,89.209C369.218,88.816 368.383,88.132 367.522,87.631C366.891,87.263 366.149,87.086 365.555,86.702C365.367,86.58 365.161,86.33 364.99,86.235C364.711,86.079 364.81,86.206 364.505,86.351C364.158,86.515 363.72,86.461 363.358,86.623C363.1,86.739 362.947,86.927 362.72,87.097C362.434,87.312 362.129,87.347 361.815,87.496C361.561,87.615 361.348,87.809 361.107,87.942C360.532,88.258 360.043,88.39 359.398,88.597C359.095,88.695 358.781,88.888 358.485,89.032C358.016,89.26 357.467,89.369 357.028,89.651C356.69,89.867 356.031,90.212 355.772,90.591C355.758,90.592 355.744,90.591 355.73,90.592C355.735,90.607 355.738,90.623 355.742,90.638C355.723,90.669 355.707,90.701 355.694,90.733C355.717,90.739 355.739,90.745 355.761,90.752C355.769,90.841 355.765,90.938 355.752,91.041L355.744,91.042C355.745,91.047 355.749,91.053 355.75,91.058C355.689,91.506 355.468,92.04 355.396,92.373C355.241,93.093 355.106,93.822 355.107,94.561C355.109,95.852 355.129,97.199 355.294,98.468C355.441,99.596 355.533,100.724 355.573,101.845C355.592,102.37 355.513,102.835 355.54,103.355C355.944,103.463 356.135,103.564 356.468,103.843C356.722,104.057 357.158,104.533 357.444,104.677C357.622,104.767 357.966,104.689 358.175,104.719C358.491,104.765 358.848,104.838 359.153,104.944C359.521,105.073 359.734,105.302 360.039,105.526C360.47,105.843 360.962,105.913 361.442,106.114C361.986,106.343 362.486,106.597 363.085,106.721C363.546,106.817 364.801,107.837 365.225,107.635C365.235,107.656 365.243,107.673 365.249,107.685C365.724,107.733 366.193,107.309 366.592,107.226C367.158,107.108 367.669,106.763 368.222,106.593C369.249,106.277 370.179,105.503 371.185,105.157C371.644,104.999 372.136,104.878 372.576,104.652C372.921,104.474 373.2,103.967 373.518,103.751C373.869,103.513 374.23,103.705 374.53,103.536C374.711,103.433 374.657,103.275 374.678,103.07C374.767,102.206 374.708,101.778 374.639,100.916" style="fill:rgb(35,31,32);fill-rule:nonzero;"/>
    </g>
    <g transform="matrix(1.6039,0,0,1.6039,-569.558,-138.198)">
        <path d="M364.049,91.033C364.362,91.138 365.293,91.184 365.478,90.92C365.625,90.711 365.553,90.284 365.319,90.148C364.938,89.927 364.538,90.113 364.157,90.368C363.595,90.347 363.62,90.89 364.049,91.033" style="fill:rgb(35,31,32);fill-rule:nonzero;"/>
    </g>
    <g transform="matrix(1.6039,0,0,1.6039,-569.558,-138.198)">
        <path d="M369.369,99.225C369.373,99.219 369.38,99.216 369.385,99.21C369.389,99.196 369.395,99.181 369.398,99.166L369.369,99.225Z" style="fill:rgb(35,31,32);fill-rule:nonzero;"/>
    </g>
    <g transform="matrix(1.6039,0,0,1.6039,-569.558,-138.198)">
        <path d="M369.321,99.322L369.37,99.225C369.348,99.252 369.331,99.283 369.321,99.322" style="fill:rgb(35,31,32);fill-rule:nonzero;"/>
    </g>
    <g transform="matrix(1.6039,0,0,1.6039,-569.558,-138.198)">
        <path d="M369.385,99.211C369.254,99.636 368.775,100.216 369.252,100.496C369.589,100.693 370.253,100.564 370.448,100.237C370.837,99.587 369.694,98.886 369.385,99.211" style="fill:rgb(35,31,32);fill-rule:nonzero;"/>
    </g>
    <g transform="matrix(1.6039,0,0,1.6039,-569.558,-138.198)">
        <path d="M359.865,98.72C359.586,98.735 359.316,99.072 359.34,99.483C359.358,99.795 359.434,100.12 359.783,100.193C359.896,100.217 360.414,99.856 360.458,99.727C360.527,99.528 360.39,99.276 360.316,99.094C360.203,98.818 360.033,98.711 359.865,98.72" style="fill:rgb(35,31,32);fill-rule:nonzero;"/>
    </g>
</svg>
